<svg viewBox="0 0 188.34 575.17" xmlns="http://www.w3.org/2000/svg" xmlns:xlink="http://www.w3.org/1999/xlink" id="Layer_2" overflow="hidden">
<g id="_ëÎÓÈ_1"><g><path d="M104.88 572.05C139.17 575.28 170.58 577.8 183.26 570.09 187.75 567.36 188.03 564.52 188.31 559.27 189.22 542.66 159.78 492.18 125.63 439.79 120.89 432.52 110.71 431.2 103.69 436.29 96.67 441.38 95.74 450.78 100.19 458.23 132.26 512.01 139.32 525.86 146.63 541.33 147.24 542.63 147.79 543.84 148.29 544.95 126.11 547 92.94 544.44 54.54 533.88 46.18 531.58 35.34 534.6 32.16 542.67 28.98 550.74 33.6 562.77 43.28 564.66 67.52 569.4 83.36 570.02 104.88 572.05Z" class="MsftOfcThm_Text1_Fill_v2" stroke="none" stroke-width="1" stroke-linecap="butt" stroke-linejoin="miter" stroke-miterlimit="4" fill="currentColor" fill-opacity="1"></path><path d="M2.36 399.66C-10.79 320.39 34.15 275.89 58.61 249.22 60.72 246.92 62.72 244.74 64.54 242.69L69.14 237.52C99.84 203.11 139.09 159.31 129.15 99.39 121.12 50.98 72.68 23.24 72.18 22.88 64.47 17.3 58.01 11.29 61.3 5.26 65.45-2.34 74.31-0.45 82.15 3.24 85.02 4.59 144.36 30.25 155.12 95.09 167.52 169.86 123.9 222.45 92.47 257.67L87.92 262.77C85.99 264.95 83.88 267.25 81.64 269.69 59.72 293.59 26.59 329.72 37.23 393.89 49.18 465.93 106.21 500.59 148.07 520.4 155.91 524.11 159.27 533.47 155.55 541.32 151.84 549.16 143.32 555.92 135.27 552.68 82.8 531.52 16.71 486.26 2.35 399.68Z" class="MsftOfcThm_Text1_Fill_v2" stroke="none" stroke-width="1" stroke-linecap="butt" stroke-linejoin="miter" stroke-miterlimit="4" fill="currentColor" fill-opacity="1"></path></g></g></svg>
