<svg viewBox="0 0 645.05 262.68" xmlns="http://www.w3.org/2000/svg" xmlns:xlink="http://www.w3.org/1999/xlink" id="Layer_2" overflow="hidden">
<g id="_ëÎÓÈ_1"><g><path d="M642.17 112.25C638.54 118.14 632.02 121.84 625.99 121.59 617.21 121.23 612.61 109.26 613.2 100.35 614.56 79.63 613.25 51.9 612.52 33.62 589.7 36.72 567.1 43.74 536.89 53.13 528.42 55.76 519.63 50.99 517.25 42.47 514.88 33.96 520.79 24.57 529.32 22.13 565.44 11.79 585.37 6.54 621.88 0.18 630.56-1.33 639.83 7.07 640.34 15.93 640.47 18.17 646.79 67.08 644.56 100.88 644.38 103.67 644.6 108.28 642.15 112.25Z" class="MsftOfcThm_Text1_Fill_v2" stroke="none" stroke-width="1" stroke-linecap="butt" stroke-linejoin="miter" stroke-miterlimit="4" fill="currentColor" fill-opacity="1"></path><path d="M12.85 262.68C10.2 262.68 7.52 262.01 5.05 260.61-2.53 256.29-0.44 245.08 3.87 237.49 8.3 229.71 28.96 191.75 50.54 153.54 71.84 115.82 81.53 92.77 100.8 68.39 103.59 64.86 109.64 63.07 114.14 63.05L114.22 63.05C118.69 63.05 122.95 64.94 125.95 68.27 128.42 71.01 181.56 130.29 225.83 206.79 251.97 162.36 300.77 75.04 322.41 50.35 329.53 42.22 337.04 39.82 342.1 40.32 347.15 40.81 351.66 43.69 354.22 48.07 354.98 49.37 422.74 165.11 459.2 213.93 480.06 188.83 525.93 136.27 559.77 88.01 573.72 68.11 576.72 55.73 591.78 32.73 596.55 25.44 607.09 20.62 614.77 24.78 622.44 28.93 625.29 38.52 621.14 46.19 581.88 118.71 475.51 243.73 471 249.02 468.06 252.47 463.77 254.49 459.23 254.57 454.75 254.7 450.35 252.76 447.29 249.4 421.23 220.73 364 126.38 338.96 84.34 311.71 123.47 264.16 203.38 239.1 246.68 236.22 251.66 230.96 254.72 225.1 254.56 219.35 254.44 214.11 251.2 211.44 246.1 179.19 184.54 136.5 129.96 115.41 104.54 94.68 136.67 54.58 205.08 28.16 251.53 25.25 256.64 18.33 262.68 12.84 262.68Z" class="MsftOfcThm_Text1_Fill_v2" stroke="none" stroke-width="1" stroke-linecap="butt" stroke-linejoin="miter" stroke-miterlimit="4" fill="currentColor" fill-opacity="1"></path></g></g></svg>
