<svg viewBox="0 0 494.67 155.7" xmlns="http://www.w3.org/2000/svg" xmlns:xlink="http://www.w3.org/1999/xlink" id="Layer_2" overflow="hidden">
<g id="_ëÎÓÈ_1"><g><path d="M471.02 103.12C470.66 103.12 470.3 103.11 469.94 103.09 316.71 92.76 19.33 103.01 16.35 103.11 7.64 103.49 0.32 96.59 0 87.88-0.31 79.16 6.51 77.77 15.23 77.46 16.79 77.4 96.76 72.19 197.44 67.45 289.57 63.12 397.55 66.53 472.06 71.56 480.76 72.15 487.34 79.68 486.76 88.38 486.2 96.72 479.26 103.11 471.02 103.11Z" class="MsftOfcThm_Accent5_Fill_v2" stroke="none" stroke-width="1" stroke-linecap="butt" stroke-linejoin="miter" stroke-miterlimit="4" fill="currentColor" fill-opacity="1"></path><path d="M321.57 155.7C315.87 155.7 304.44 150.63 301.62 145.22 297.59 137.48 300.6 127.94 308.33 123.91 345.97 104.31 382.16 91.89 411.19 84.1 366.88 68.03 322.4 49.65 290.07 29.79 282.64 25.23 279.33 16.22 283.37 8.48 287.4 0.75 296.94-2.24 304.68 1.78 351.87 26.39 420.76 54.11 480.34 67.96 491.24 70.49 495.13 78.62 494.62 86.38 494.11 94.15 489.44 101.51 478.29 103.05 477.56 103.15 408.71 112.31 328.84 153.9 326.51 155.11 324.01 155.69 321.56 155.69Z" class="MsftOfcThm_Accent5_Fill_v2" stroke="none" stroke-width="1" stroke-linecap="butt" stroke-linejoin="miter" stroke-miterlimit="4" fill="currentColor" fill-opacity="1"></path></g></g></svg>
