<svg viewBox="0 0 283.66 617.69" xmlns="http://www.w3.org/2000/svg" xmlns:xlink="http://www.w3.org/1999/xlink" id="Layer_2" overflow="hidden">
<g id="_ëÎÓÈ_1"><g><path d="M43.37 432.7C47.24 426.67 55.18 420.09 65.72 424.09 73.87 427.19 78.26 436.02 75.35 444.24 54.38 503.58 43.5 541.91 37.85 565.86 43.46 561.49 49.05 557.08 54.57 552.72 82.23 530.9 110.83 508.33 140.22 491.52 147.79 487.19 157.44 489.81 161.77 497.38 166.1 504.95 161.08 512.45 154.24 517.87 128.17 538.54 102.55 557.48 75.79 578.59 59.77 591.23 41.33 605.82 25.13 614.91 20.13 617.71 14.36 618.76 9.18 616.3 4 613.84 0.57 608.76 0.21 603.04-0.02 599.49-4.46 566.81 41.77 435.98 42.19 434.8 42.73 433.7 43.37 432.7Z" class="MsftOfcThm_Text1_Fill_v2" stroke="none" stroke-width="1" stroke-linecap="butt" stroke-linejoin="miter" stroke-miterlimit="4" fill="currentColor" fill-opacity="1"></path><path d="M46.99 568.14C44 568.14 40.98 567.3 38.3 565.53 31.02 560.73 25.07 550.93 29.87 543.65L222.41 255.88 85.26 312.86C78.81 315.6 68.58 313.77 64.13 308.38 59.68 302.98 59.7 293.72 63.61 287.91L260.06 8.41C264.94 1.18 271.99-2.7 279.22 2.17 286.45 7.05 283.23 14.89 278.35 22.13L194.49 151.75 123.61 261.31 262.24 198.39C268.65 195.65 276.1 197.46 280.56 202.81 285.02 208.16 284.53 217.44 280.03 227.15 250.6 290.66 64.13 561.04 64.13 561.04 61.09 565.64 52.11 568.14 46.98 568.14Z" class="MsftOfcThm_Text1_Fill_v2" stroke="none" stroke-width="1" stroke-linecap="butt" stroke-linejoin="miter" stroke-miterlimit="4" fill="currentColor" fill-opacity="1"></path></g></g></svg>
