<svg viewBox="0 0 693.63 233.17" xmlns="http://www.w3.org/2000/svg" xmlns:xlink="http://www.w3.org/1999/xlink" id="Layer_2" overflow="hidden">
<g id="_ëÎÓÈ_1"><g><path d="M522.69 233.14C515.48 233.48 505.45 230.79 502.6 219.81 500.39 211.31 505.09 202.56 513.54 200.16 574.49 182.8 612.31 169.4 635.27 160.09 628.41 158.03 621.53 156.01 614.74 154.02 580.7 144.02 545.5 133.68 514.57 119.35 506.6 115.66 503.13 106.2 506.83 98.23 510.53 90.26 519.61 90.02 528.04 92.47 560.2 101.83 590.69 111.84 623.62 121.51 643.34 127.3 666.06 133.94 682.97 141.95 688.18 144.42 692.41 148.55 693.41 154.24 694.4 159.93 692.24 165.7 687.75 169.34 684.97 171.6 660.72 194.29 526.34 232.57 525.13 232.91 523.91 233.11 522.71 233.17Z" class="MsftOfcThm_Text1_Fill_v2" stroke="none" stroke-width="0.999953" stroke-linecap="butt" stroke-linejoin="miter" stroke-miterlimit="4" stroke-opacity="1" fill="currentColor" fill-opacity="1"></path><path d="M12.49 0C11.81 0.01 11.13 0.07 10.44 0.17 1.85 1.47-1 10.36 0.3 18.94 14.96 116.07 99.57 166.58 265.22 175.18 333.42 178.71 398.4 170.63 508 173.94 543.66 175.02 580.67 178.44 619.96 177.67 628.63 177.5 635.53 170.33 635.36 161.65 635.19 152.97 628.02 146.08 619.34 146.25 579.98 147.03 542.92 143.91 507.23 142.53 392.53 138.09 333.85 147.27 266.85 143.8 69.14 133.54 33.56 63.11 25.85 12.03 24.66 4.14 20.26-0.15 12.49 0Z" class="MsftOfcThm_Text1_Fill_v2" stroke="none" stroke-width="0.999953" stroke-linecap="butt" stroke-linejoin="miter" stroke-miterlimit="4" stroke-opacity="1" fill="currentColor" fill-opacity="1"></path></g></g></svg>
