<svg viewBox="0 0 561.79 170.93" xmlns="http://www.w3.org/2000/svg" xmlns:xlink="http://www.w3.org/1999/xlink" id="Layer_2" overflow="hidden">
<g id="_ëÎÓÈ_1"><g><path d="M477.38 100.32C477.03 100.32 476.67 100.31 476.31 100.29 324.01 90.02 62.6 104.13 60.38 104.24 51.66 104.62 44.36 94.02 43.95 85.35 43.55 76.69 50.24 69.33 58.91 68.92 60.27 68.86 143.19 67.02 242.62 66.36 307.1 65.93 417.8 62.89 478.43 66.98 487.09 67.56 493.63 77.02 493.05 85.68 492.49 93.98 485.59 100.34 477.39 100.34Z" class="MsftOfcThm_Text1_Fill_v2" stroke="none" stroke-width="0.999865" stroke-linecap="butt" stroke-linejoin="miter" stroke-miterlimit="4" stroke-opacity="1" fill="currentColor" fill-opacity="1"></path><path d="M395.05 170.81C389.42 171.49 383.61 169.1 380.18 164.09 375.27 156.93 377.1 147.15 384.26 142.25 424.54 114.64 463.99 96.27 493.43 84.79 476.8 78.58 459.92 71.33 443.31 64.21 427.49 57.42 411.14 50.41 395.66 44.58 387.54 41.52 383.43 32.46 386.49 24.34 389.55 16.22 398.16 13.85 406.73 15.17 422.22 17.56 442.94 25.9 459.08 32.82 491.14 46.58 521.39 57.71 548.95 68.52 555.86 71.23 561.59 76.15 561.79 83.57 561.98 90.98 556.96 97.52 549.74 99.25 549.02 99.42 476.1 117.4 402.02 168.17 399.86 169.65 397.47 170.52 395.04 170.81Z" class="MsftOfcThm_Text1_Fill_v2" stroke="none" stroke-width="0.999865" stroke-linecap="butt" stroke-linejoin="miter" stroke-miterlimit="4" stroke-opacity="1" fill="currentColor" fill-opacity="1"></path><path d="M141.85 153.31C152.41 155.29 167.89 154.24 168.39 141.98 168.67 135.12 163.6 128.71 156.14 125.69 135 117.12 84.31 98.48 56.26 78.94 54.11 77.44 54.58 74.61 57.11 73.84 93.59 62.66 129.26 51.26 164.78 31.12 172.45 26.77 176.42 16.84 172.9 9.32 165.72-5.98 146.34 1.18 138.78 5.47 100.08 27.42 79.63 36.57 22.43 53.82L10.84 57.33C5.45 58.97 1.56 62.89 0.58 67.69-0.41 72.5-0.96 79.73 6.44 84.15 7.72 84.92 29.38 98.01 76.93 122.34 95.15 131.66 131.65 151.39 141.86 153.31Z" class="MsftOfcThm_Text1_Fill_v2" stroke="none" stroke-width="0.999865" stroke-linecap="butt" stroke-linejoin="miter" stroke-miterlimit="4" stroke-opacity="1" fill="currentColor" fill-opacity="1"></path></g></g></svg>
