<svg viewBox="0 0 287.42 625.13" xmlns="http://www.w3.org/2000/svg" xmlns:xlink="http://www.w3.org/1999/xlink" id="Layer_2" overflow="hidden">
<g id="_ëÎÓÈ_1"><g><path d="M157.59 594.02C160.27 585.69 167.86 578.92 178.67 582.22 210.81 592.05 229.98 590.12 247.14 590.76 243.48 563.78 230.69 525.5 227.99 518.94 224.11 510.95 226.51 501.92 233.75 498.25 241.4 494.37 251.56 497.96 256.43 506.26 259.59 511.65 282.01 575.88 280.94 610.31 280.69 618.28 274.73 624.15 266.82 624.23 264.72 624.25 217.8 628.87 175.08 616.81 163.41 613.52 155.22 601.37 157.6 594ZM228.08 519.12C228.35 519.69 228.59 520.08 228.73 520.31 228.5 519.92 228.28 519.52 228.08 519.12Z" class="MsftOfcThm_Accent4_Fill_v2" stroke="none" stroke-width="1" stroke-linecap="butt" stroke-linejoin="miter" stroke-miterlimit="4" fill="currentColor" fill-opacity="1"></path><path d="M239.7 600.07C236.01 600.5 230.2 599.86 226.91 597.57 160.29 551.2 120.96 484.94 106.17 401.08 105.03 394.64 103.87 386.4 103.12 380.3 85.71 373.4 69.33 362.6 54.67 348.13 26.68 320.52 10.7 283.08 3.59 242.77-10.14 165.03 16.04 78.38 74.32 9.92 79.98 3.28 87.33-3.02 93.37 1.57 98.48 5.45 96.9 13.17 91.24 19.81 38.82 81.39 18.62 168.89 30.76 237.73 36.67 271.23 53.98 304.83 77.07 327.6 83.51 333.95 91.49 340.54 100.95 346.09 100.42 241.12 159.66 192.94 193.85 186.9 236.66 179.49 277.72 212.95 286.51 262.74 292.46 296.5 270.95 370.04 173.21 387.28 160.72 389.48 148.32 389.88 136.19 388.54 136.46 390.22 136.97 393.88 137.27 395.58 150.55 470.85 189.4 529.79 248.87 571.18 256.03 576.16 255.83 586.23 250.85 593.39 248.16 597.26 244.04 599.56 239.69 600.06ZM132.92 358.16C143.53 360.12 155.21 360.41 167.94 358.14 249.52 343.75 256.13 283.74 253.43 268.46 248.5 240.51 228.37 214.8 199.56 219.98 174.38 224.42 128.12 265.3 132.91 358.16Z" class="MsftOfcThm_Accent4_Fill_v2" stroke="none" stroke-width="1" stroke-linecap="butt" stroke-linejoin="miter" stroke-miterlimit="4" fill="currentColor" fill-opacity="1"></path></g></g></svg>
