<svg viewBox="0 0 158.6 462.58" xmlns="http://www.w3.org/2000/svg" xmlns:xlink="http://www.w3.org/1999/xlink" id="Layer_2" overflow="hidden">
<g id="_ëÎÓÈ_1"><path d="M142.32 462.58C140.58 462.58 138.02 462.09 135.68 459.75 135.54 459.61 135.16 459.28 134.56 458.75 117.33 443.79 74.84 402.2 52.57 339.34 38.12 298.53 32.21 256.8 35.03 215.32 38.73 160.77 57.66 108.14 91.31 58.9L89.87 57.44C72.93 68.74 48.77 87.37 29.86 111.96 26.68 116.09 21.87 118.46 16.65 118.46 12.95 118.46 9.45 117.27 6.51 115.01 2.98 112.3 0.73 108.38 0.15 103.96-0.43 99.55 0.75 95.18 3.46 91.65 18.06 72.68 36.75 54.75 59.04 38.38 77.07 25.14 92.84 16.34 102.89 11.3 115.21 5.11 125.89 1.05 132.2 0.16 132.97 0.05 133.75 0 134.52 0 139.26 0 143.79 2.03 146.95 5.57 159.78 19.95 162.07 78.96 153.56 176.22 152.81 184.74 145.53 191.42 136.98 191.42 136.5 191.42 136.01 191.4 135.51 191.36 131.08 190.97 127.07 188.88 124.21 185.47 121.35 182.06 119.99 177.75 120.38 173.31 123.39 138.98 125.01 109.16 125.22 84.68L125.25 81.31 123.32 84.07C96.01 123.18 79.62 161.94 73.22 202.57 66.97 242.18 70.35 282.87 83.53 326.95 102.36 389.92 139.43 432.89 146.67 440.86L146.88 441.1C152.96 449.15 153.59 452.96 149.77 458.78 148.25 461.09 145.33 462.58 142.32 462.58Z" class="MsftOfcThm_Text1_Fill_v2" stroke="none" stroke-width="1.00003" stroke-linecap="butt" stroke-linejoin="miter" stroke-miterlimit="4" stroke-opacity="1" fill="currentColor" fill-opacity="1"></path></g></svg>
