<svg viewBox="0 0 452.7 411.75" xmlns="http://www.w3.org/2000/svg" xmlns:xlink="http://www.w3.org/1999/xlink" id="Layer_2" overflow="hidden">
<defs></defs><g id="Layer_2-2"><path d="M21.31 243.32C11.44 115.3 91.38-4.52 228.39 0.13 242.81 0.66 257.18 2.19 271.4 4.74 383.12 24.9 455.73 102.99 452.6 218.75 452.02 296.22 402.33 360.95 332.1 390.36 189.91 450.9-33.32 382 4.18 195.69 21.57 110.56 102.57 9.6 196.79 15.45 241.89 17.24 290.03 27.04 324.63 58.16 335.53 67.74 345 79 353.14 90.88 354.97 93.53 354.3 97.15 351.66 98.98 349.03 100.8 345.43 100.15 343.6 97.55 322.97 67.59 292.39 46.28 257.02 37.82 235.21 32.17 212.12 30.26 189.44 29.95 185.09 29.9 180.73 30.19 176.39 30.72 131.73 36.78 94.22 67.6 67.01 102.21-4.39 195.03-4.39 318.47 113.73 370.38 178.99 398.32 258.58 399.45 324.12 371.85 384.83 346.17 428.46 291.83 431.74 224.98 437.01 128.56 386.72 57.25 294.09 29.91 268.24 22.21 241.15 18.18 214.15 18.31 140.04 18.68 76.8 67.81 50.45 135.96 43.72 152.74 39.09 170.37 36.34 188.26 33.59 206.21 32.6 224.47 33.28 242.72 33.38 250.48 22.05 251.22 21.29 243.31L21.29 243.31Z" class="MsftOfcThm_Text1_Fill_v2" stroke="none" stroke-width="1" stroke-linecap="butt" stroke-linejoin="miter" stroke-miterlimit="4" fill="currentColor" fill-opacity="1"></path></g></svg>
