<svg viewBox="0 0 516.77 424.19" xmlns="http://www.w3.org/2000/svg" xmlns:xlink="http://www.w3.org/1999/xlink" id="Layer_2" overflow="hidden">
<defs></defs><g id="Layer_2-2"><path d="M233.28 14.33C138.41 17.49 43.29 83.87 20.88 178.36 2.93 252.26 30.73 321.06 93.33 363.69 137.62 393.99 192.52 407.54 245.92 405.22 263.89 404.28 282.11 402.11 299.85 399.03 346.78 390.8 393.2 374.82 430.28 344.42 476.36 307.47 499.9 247.3 496.68 188.91 493.13 129.34 451.67 79.02 400.32 51.57 316.95 6.99 207.44 5.64 128.18 60.08 68.45 99.73 32.14 169.94 40.87 241.84 53.9 342.78 161.9 391.87 254.55 388.5 364.82 385.88 439.67 346.23 463.79 232.65 465.67 225.04 476.9 227.32 475.52 235.18 458.71 317.69 413.49 373.71 329.75 393.73 280.48 405.09 228.97 407.69 179.55 396.13 117.63 381.97 57.59 342.79 33.92 281.69 10.38 221.1 24.91 149.83 62.69 98.19 125.45 13.08 237.69-15.8 337.94 8.06 425.83 27.29 509.72 92.33 516.42 187.52 520.87 268.39 482.11 341.99 411.06 381.68 366.63 406.83 315.91 418.15 265.62 422.78 253.08 423.96 240.15 424.47 227.49 424.05 139.08 421.7 44.95 374.64 11.76 288.77-16.36 216.01 7.95 129.94 62.67 76.16 89.55 49.2 122.71 28.62 158.56 16.03 182.43 7.65 207.59 2.62 233.05 2.34 236.36 2.3 239.08 4.96 239.12 8.27 239.16 11.56 236.54 14.26 233.26 14.34L233.26 14.34Z" class="MsftOfcThm_Text1_Fill_v2" stroke="none" stroke-width="1" stroke-linecap="butt" stroke-linejoin="miter" stroke-miterlimit="4" fill="currentColor" fill-opacity="1"></path></g></svg>
