<svg viewBox="0 0 612.64 443.19" xmlns="http://www.w3.org/2000/svg" xmlns:xlink="http://www.w3.org/1999/xlink" id="Layer_2" overflow="hidden">
<defs></defs><g id="Layer_2-2"><path d="M256.52 11.7C192.83 24.51 127.36 60.15 80.76 105.24 33.66 150.19 3.23 218.74 21.68 283.49 44.98 362.1 127.82 403.05 203.25 417.38 242.75 425.06 283.48 426.03 323.49 421.8 389.43 415.14 457.97 400.91 513.34 363.06 557.23 333.63 586.11 286.15 591.78 233.61 593.38 220.86 593.19 208.14 591.01 195.52 579.07 129.44 520.02 84.4 460.86 60.12 362.13 20.72 244.57 21.69 150.48 73.53 104.57 98.79 64.19 137.92 47.61 188.3 31.15 238.23 36.82 294.52 75.59 332.59 142.84 400.36 289.83 414.09 379.95 395.95 460 380.56 532.39 332.05 552.22 249.39 553.03 246.18 556.3 244.23 559.51 245.04 562.7 245.85 564.63 249.06 563.88 252.25 557.37 279.79 545.04 306.13 527.32 328.31 473.32 395.66 382.54 418.71 299.63 418.86 230.1 418.3 157.92 407.53 97.28 371.25 28.2 329.4 6.52 258.38 30.4 182.65 52.84 113.52 113.93 64.82 179.6 38.93 271.33 2.48 376.89 5.88 468.22 42.11 533.3 68.42 597.66 119.31 610.56 192.12 617.7 234.09 605.89 281.23 584.01 317.38 538.33 392.11 448.99 422.88 366.71 435.66 346.07 438.85 325.3 441.04 304.48 442.41 234.52 446.56 162.28 434.48 100.61 399.97 43.08 368.01-0.66 313.3 0 245.13 1.33 126.99 110.94 45.06 213.81 10.33 227.08 6 240.6 2.33 254.59 0.07 257.8-0.45 260.83 1.73 261.35 4.95 261.87 8.14 259.71 11.16 256.53 11.7L256.53 11.7Z" class="MsftOfcThm_Accent2_Fill_v2" stroke="none" stroke-width="1" stroke-linecap="butt" stroke-linejoin="miter" stroke-miterlimit="4" fill="currentColor" fill-opacity="1"></path></g></svg>
