<svg viewBox="0 0 1132.61 443.84" xmlns="http://www.w3.org/2000/svg" xmlns:xlink="http://www.w3.org/1999/xlink" id="Layer_2" overflow="hidden">
<defs></defs><g id="Layer_2-2"><path d="M373.36 12.71C253.34 24.27 39.8 77.86 17.45 217.47 1.17 319.84 160.36 374.34 238.61 393.76 361.85 424.28 490.28 429.75 616.63 421.2 753.64 411.86 959.56 388.34 1064.14 294.48 1086.13 274.32 1104.27 248.61 1110.75 219.23 1112.89 210.15 1113.05 200.74 1111.2 191.6 1104.93 162.49 1081.45 140.43 1057.8 123.62 1023.75 99.95 984.59 83.66 945.19 70.51 885.07 50.78 822.72 38.58 759.92 30.56 592.61 10.37 419.63 15.97 257.49 64.51 198.42 83.15 138.13 107.05 92.15 149.44 64.64 175.13 40.77 215.75 57.51 253.34 81.26 305.06 154.73 336.65 205.89 355.58 402.68 422.47 629.53 433.32 830.17 377.03 904.35 354.73 997.12 315.64 1032.45 242.29 1033.98 239.04 1037.86 237.66 1041.1 239.19 1044.33 240.72 1045.71 244.56 1044.22 247.8 1037.26 263 1027.83 276.8 1016.83 289.27 968.87 341.91 901.07 370.58 834.37 391.16 669.15 438.99 492.36 439.78 324.36 406.05 261.25 393 198.32 375.56 140.03 347.19 80.76 318.17 10.65 266.26 40.59 191.31 84.78 82.12 271.34 34.86 377.47 16.79 462.19 2.46 548.31-2.16 634.12 0.9 741.31 4.87 849.02 18.44 951.45 51.54 1010.27 71.54 1081.73 101.2 1117.33 154.73 1138.8 188.15 1136.04 221.23 1118.98 256.03 1103.93 286.29 1079.21 310.81 1051.92 330.16 935.67 410.34 756.51 430.98 617.83 440.4 468.31 449.99 314.98 441.17 172.33 392.31 102.38 367.28 0.43 318.05 0 232.13 1.1 181.11 31.39 134.99 70.06 103.92 120.87 62.81 182.93 39.02 245.4 22.36 287 11.55 329.48 4.37 372.3 0.75 380.29 0.41 381.11 11.73 373.36 12.7L373.36 12.7Z" class="MsftOfcThm_Text1_Fill_v2" stroke="none" stroke-width="1" stroke-linecap="butt" stroke-linejoin="miter" stroke-miterlimit="4" fill="currentColor" fill-opacity="1"></path></g></svg>
