<svg viewBox="0 0 441.36 420.3" xmlns="http://www.w3.org/2000/svg" xmlns:xlink="http://www.w3.org/1999/xlink" id="Layer_2" overflow="hidden">
<defs></defs><g id="Layer_2-2"><path d="M0.34 146.66C20.49 92.94 62.37 48.66 113.29 22.65 164.71-3.67 226.21-5.72 281.13 9.65 336.88 24.01 389.75 57.85 417.04 109.84 442.95 157.94 447.56 216 433.73 268.47 418.04 329.04 376.44 381.7 317.44 404.75 270.02 423.85 217.79 423.65 168.59 413.35 96.61 399.2 34.94 346.68 13.36 275.99-1.54 227.69 2.25 172.2 29.88 129.07 35.49 121.77 46.21 129.26 41.42 137 38.01 142.17 35.17 148.38 32.78 154.27-6.51 251.12 54.42 361.67 153.25 389.46 245.41 415.97 346.73 398.72 396.35 309.29 441.73 227.66 428.01 115.48 348.7 60.03 305.42 29.6 249.88 14.49 197.06 16.76 129.51 19.65 67.05 59.23 30.2 115.22 22.78 126.45 16.24 138.36 11.62 150.75 8.68 158-2.02 154.21 0.34 146.67L0.34 146.67Z" class="MsftOfcThm_Text1_Fill_v2" stroke="none" stroke-width="1" stroke-linecap="butt" stroke-linejoin="miter" stroke-miterlimit="4" fill="currentColor" fill-opacity="1"></path></g></svg>
