<svg viewBox="0 0 719.1 413.53" xmlns="http://www.w3.org/2000/svg" xmlns:xlink="http://www.w3.org/1999/xlink" id="Layer_2" overflow="hidden">
<defs></defs><g id="Layer_2-2"><path d="M77.53 211.65C103.89 112.75 187.68 32.11 287.4 8.95 309.42 3.61 332.06 1.23 354.67 0.55 377.01-0.29 399.38-0.19 421.72 1 489.04 4.8 557.2 18.34 616.57 51.6 656.54 74.23 692.9 107.37 709.87 151.21 723.27 184.49 721.3 222.06 708.93 255.38 692.85 299.6 655.57 333.19 614.93 354.54 544.66 391.13 465.22 403.7 387.24 410.62 308.91 418.05 228.67 411.9 154.45 384.17 88.87 359.67 9.28 309.76 0.33 233.84-7.09 117.04 112.27 39.53 216.59 27.39 261.78 21.86 309.47 26.65 350.15 48.63 353.79 50.61 355.14 55.16 353.16 58.8 351.2 62.41 346.7 63.77 343.07 61.85 324.44 52.01 303.74 46.06 282.64 43.3 183.53 30.55 53.77 84.62 23.6 186.24 19.52 201.06 17.63 216.64 18.94 231.98 21.66 257.56 35.77 280.47 53.26 299.03 82.63 329.83 121.41 351.05 161.26 365.85 227.27 390.13 299.16 397.4 369.21 391.96 385.58 390.78 401.96 389.34 418.25 387.43 528.33 374.2 692.38 338.65 699.45 203.06 701.06 155.58 670.86 113.32 633.82 85.67 572.75 40.38 495.4 23.72 420.69 18.67 396.19 17.17 371.59 16.99 347.06 17.99 317.53 18.84 288.1 23.97 260.27 33.94 199.3 55.46 147.14 99.77 114.63 155.56 103.75 174.18 94.93 194.08 89.12 214.79 86.84 222.2 75.82 219.46 77.54 211.66L77.54 211.66Z" class="MsftOfcThm_Text1_Fill_v2" stroke="none" stroke-width="1" stroke-linecap="butt" stroke-linejoin="miter" stroke-miterlimit="4" fill="currentColor" fill-opacity="1"></path></g></svg>
