<svg viewBox="0 0 353.5 225.5" xmlns="http://www.w3.org/2000/svg" xmlns:xlink="http://www.w3.org/1999/xlink" id="圖層_1" xml:space="preserve" overflow="hidden">
<g><path d="M302.4 166C302.4 166 264.8 221.5 138.6 209.4 12.4 197.3-6.6 135 10 82.4 30.5 17.2 127.3-6.8 219.7 10.1 312.1 27 370 100.1 341.1 153.2 312.2 206.2 199.9 220.7 199.9 220.7" class="MsftOfcThm_Accent2_Stroke_v2" stroke="#CB65FF" stroke-width="9.72263" stroke-linecap="round" stroke-linejoin="round" stroke-miterlimit="10" stroke-opacity="1" fill="none"></path><path d="M302.4 166C302.4 166 264.8 221.5 138.6 209.4 12.4 197.3-6.6 135 10 82.4 30.5 17.2 127.3-6.8 219.7 10.1 312.1 27 370 100.1 341.1 153.2 312.2 206.2 199.9 220.7 199.9 220.7" class="MsftOfcThm_Accent2_Stroke_v2" stroke="#CB65FF" stroke-width="9.72263" stroke-linecap="round" stroke-linejoin="round" stroke-miterlimit="10" stroke-opacity="1" fill="none"></path></g></svg>
