<svg viewBox="0 0 1017.11 416.86" xmlns="http://www.w3.org/2000/svg" xmlns:xlink="http://www.w3.org/1999/xlink" id="Layer_2" overflow="hidden">
<defs></defs><g id="Layer_2-2"><path d="M221.14 401.72C136.16 375.2 0.15 326.56 0 219.92 1.26 138.46 75.47 83.94 144.41 55.73 327.79-20.58 700.19-18.96 881.61 63.32 927.93 84.3 974.83 112.7 1001.61 157.71 1015.41 180.99 1021.47 210.54 1013.69 237.04 1002.5 276.06 970.94 304.3 938.45 325.92 843.56 385.97 724.59 408.07 614.03 415.35 465.14 422.07 308.26 408.45 177.05 332.05 169.88 327.5 175.85 316.82 183.55 320.79 290.93 382.19 416.99 399.82 539.17 400.13 661.01 400.13 786.48 382.63 896.13 327.32 927.36 310.76 958.14 290.23 978.97 261.41 1009.68 219.32 997.02 175.87 962.81 140.51 937.77 114.73 906.34 96.33 873.53 81.38 719.06 15.06 531.22 11.58 365.4 23.56 264.05 33.09 134.6 55.07 58.55 127.04 14.3 169.21-3.37 233.24 36.16 284.91 65.93 323.57 110.89 346.61 155.13 365.41 177.82 374.81 201.13 382.84 224.7 390.26 232.22 392.92 228.74 403.78 221.14 401.72L221.14 401.72Z" class="MsftOfcThm_Accent4_Fill_v2" fill="currentColor"></path></g></svg>
