<svg viewBox="0 0 620.93 431.44" xmlns="http://www.w3.org/2000/svg" xmlns:xlink="http://www.w3.org/1999/xlink" id="Layer_2" overflow="hidden">
<defs></defs><g id="Layer_2-2"><path d="M132.04 98.26C197.6 42.75 284.74 33.15 367.4 40.66 455.82 48.51 584.02 86.62 615.24 179.93 622.11 200.67 622.05 222.95 618.77 244.36 588.97 424.43 331.27 459.46 186.4 412.6 98.02 385.61 5.57 318.19 0.3 218.47-3.14 164.04 23.03 111.89 63.34 76.42 158.41-6.26 300.68-15.04 417.84 17.81 427.77 20.64 437.6 23.9 447.29 27.74 457.37 31.88 466.81 35.82 475.88 42.57 481.97 47.55 475.24 56.58 468.75 52.21 461.21 46.87 451.6 43 442.72 39.69 395.74 23.07 345.4 15.84 295.66 15.86 226.69 16.07 155.82 32.14 98.69 71.93 59.36 99.33 27.14 140.54 20.71 188.88 11.94 248.21 42.56 303.21 88.29 339.38 182.49 413.89 313.71 426.17 427.64 398.54 507.36 379.17 587.34 328.24 600.84 241.55 602.99 227.49 604.01 213.01 601.62 198.92 593.45 150.1 551.44 116.25 509.21 95.16 421.88 51.86 280.37 35.83 190.12 76.68 172.04 84.75 155.12 95.27 139.62 107.59 133.44 112.3 126.06 103.62 132.06 98.27L132.06 98.27Z" class="MsftOfcThm_Text2_Fill_v2" stroke="none" stroke-width="1" stroke-linecap="butt" stroke-linejoin="miter" stroke-miterlimit="4" fill="currentColor" fill-opacity="1"></path></g></svg>
