<svg viewBox="0 0 815.89 416.77" xmlns="http://www.w3.org/2000/svg" xmlns:xlink="http://www.w3.org/1999/xlink" id="Layer_2" overflow="hidden">
<defs></defs><g id="Layer_2-2"><path d="M42.42 239.67C30.59 253.32 23.85 271.88 26.98 289.7 28.56 297.84 33.9 305.94 39.35 312.56 54.91 330.72 76.32 343.61 97.99 353.58 138.58 371.97 182.69 381.54 226.72 387.99 245.63 390.74 267.25 392.89 286.27 394.42 375.9 400.2 466.87 399.08 555.82 386.22 622.42 375.87 697.66 357.49 750.21 313.6 752.48 311.44 755.84 308.62 758.12 306.38 758.12 306.38 763.08 301.29 763.08 301.29L764.32 300.02C766.35 297.77 768.15 295.5 770.08 293.32 773.69 288.9 777.17 283.8 780.19 279 790.93 261.17 796.87 240.44 795.99 219.6 795.36 200.74 791 182 783.11 164.83 723.37 40.57 526.9 15.72 403.31 17.96 258.65 19.56 113.91 76.84 27.3 196.46 21.57 204.53 16.15 212.82 11.2 221.36 9.55 224.25 5.86 225.24 2.98 223.58 0.14 221.94-0.84 218.32 0.75 215.47 5.77 206.46 11.26 197.76 17.07 189.28 34.55 163.92 55.38 140.98 78.25 120.41 206.54 6.13 375.52-14.56 540.26 8.2 651.96 24.36 795.31 75.59 814.4 202.88 821.13 248.42 804.68 289.04 772.05 320.72 666.17 421.77 424.75 422.56 284.81 412.82 207.19 405.63 114.8 391.72 50.66 344.44 35.32 332.56 20.41 317.71 13.78 298.84 9.66 285.84 10.99 271.39 15.19 258.79 18.77 248.21 24.65 238.62 31.89 230.44 34.45 227.55 38.88 227.28 41.77 229.84 44.65 232.38 44.93 236.77 42.42 239.66L42.42 239.66Z" class="MsftOfcThm_Text1_Fill_v2" stroke="none" stroke-width="1" stroke-linecap="butt" stroke-linejoin="miter" stroke-miterlimit="4" fill="currentColor" fill-opacity="1"></path></g></svg>
