<svg viewBox="0 0 488.95 82.5" xmlns="http://www.w3.org/2000/svg" xmlns:xlink="http://www.w3.org/1999/xlink" id="Layer_2" overflow="hidden">
<defs></defs><g id="_ÎÓÈ_1"><path d="M162 82.5C159.37 82.5 157.13 80.48 156.9 77.81 156.66 74.99 158.75 72.51 161.57 72.27 238.85 65.72 317.02 62.34 394.91 62.17 284.23 52.1 172.06 56.39 62.83 60.57 60.15 60.66 57.79 58.63 57.53 55.93 57.28 53.22 59.18 50.79 61.87 50.39 68.62 49.38 75.38 48.44 82.16 47.56 56.45 49.25 30.5 49.96 4.74 48.03 2.15 47.83 0.11 45.72 0 43.12-0.11 40.52 1.75 38.26 4.32 37.85 50.75 30.49 102.31 22.32 156.29 15.7 111.98 18.13 67.77 21.36 23.79 25.4 20.96 25.66 18.48 23.58 18.22 20.77 17.96 17.96 20.04 15.46 22.85 15.2 158.55 2.73 296.44-2.1 432.68 0.83 435.36 0.89 437.55 3.01 437.69 5.68 437.83 8.36 435.88 10.69 433.22 11.03 412.53 13.65 391.48 13.31 371.12 12.98 367.13 12.92 363.13 12.85 359.15 12.81 260.58 11.75 159.02 24.53 69.78 38.01 89.85 36.96 109.85 35.14 129.53 33.36 141.75 32.25 154.39 31.1 166.83 30.16 242.51 24.41 322.27 24.84 419.37 31.76 441.14 32.64 462.87 34.32 484.48 37.12 487.25 37.48 489.22 39.99 488.91 42.77 488.6 45.55 486.12 47.56 483.35 47.31 460.98 45.25 439.52 43.48 418.87 42.01 368.53 39.97 317.9 42.19 268.45 44.36 258.18 44.81 247.86 45.26 237.51 45.74 320.04 45.54 403.02 49.47 484.71 63.45 487.36 63.9 489.21 66.33 488.94 69.01 488.67 71.69 486.36 73.69 483.69 73.62 376.95 70.48 268.87 73.47 162.46 82.48 162.31 82.49 162.17 82.5 162.02 82.5Z" class="MsftOfcThm_Text2_Fill_v2" stroke="none" stroke-width="1" stroke-linecap="butt" stroke-linejoin="miter" stroke-miterlimit="4" fill="currentColor" fill-opacity="1"></path></g></svg>
