<svg viewBox="0 0 1099.82 45.16" xmlns="http://www.w3.org/2000/svg" xmlns:xlink="http://www.w3.org/1999/xlink" id="Layer_2" overflow="hidden">
<defs></defs><g id="_ÎÓÈ_1"><g><path d="M5.12 32.22C2.58 32.22 0.38 30.33 0.04 27.75-0.32 24.94 1.66 22.37 4.47 22.01 143.04 4.15 285.16 5.49 422.6 6.79 441.41 6.97 460.86 7.15 479.98 7.28 684.85 8.69 893.15 4.27 1094.59 0 1094.63 0 1094.66 0 1094.7 0 1097.48 0 1099.76 2.22 1099.82 5.02 1099.88 7.85 1097.63 10.19 1094.81 10.25 893.3 14.52 684.93 18.94 479.92 17.53 460.79 17.4 441.33 17.22 422.52 17.04 285.43 15.75 143.66 14.41 5.79 32.18 5.57 32.21 5.35 32.22 5.13 32.22Z" class="MsftOfcThm_Text2_Fill_v2" stroke="none" stroke-width="1" stroke-linecap="butt" stroke-linejoin="miter" stroke-miterlimit="4" fill="currentColor" fill-opacity="1"></path><path d="M7.89 45.16C5.17 45.16 2.9 43.02 2.78 40.27 2.65 37.44 4.83 35.05 7.66 34.91L194.81 26.24C317.35 20.57 444.07 14.7 568.86 13.55 678.33 12.55 789.54 15.14 897.09 17.65L1092.3 22.21C1095.13 22.28 1097.37 24.62 1097.3 27.45 1097.24 30.28 1094.88 32.53 1092.06 32.45L896.85 27.89C789.38 25.38 678.25 22.79 568.95 23.79 444.35 24.93 317.73 30.8 195.28 36.47L8.13 45.16C8.05 45.16 7.97 45.16 7.89 45.16Z" class="MsftOfcThm_Text2_Fill_v2" stroke="none" stroke-width="1" stroke-linecap="butt" stroke-linejoin="miter" stroke-miterlimit="4" fill="currentColor" fill-opacity="1"></path></g></g></svg>
