<svg viewBox="0 0 1065.52 54.55" xmlns="http://www.w3.org/2000/svg" xmlns:xlink="http://www.w3.org/1999/xlink" id="Layer_2" overflow="hidden">
<defs></defs><g id="_ÎÓÈ_1"><g><path d="M1060.4 54.55C1060.4 54.55 1060.35 54.55 1060.32 54.55 709.73 49.01 354.59 34.1 4.78 10.24 1.95 10.04-0.18 7.6 0.01 4.78 0.2 1.96 2.67-0.18 5.47 0.01 355.11 23.86 710.06 38.76 1060.47 44.3 1063.3 44.34 1065.56 46.67 1065.51 49.5 1065.47 52.3 1063.18 54.54 1060.39 54.54Z" class="MsftOfcThm_Text2_Fill_v2" stroke="none" stroke-width="1" stroke-linecap="butt" stroke-linejoin="miter" stroke-miterlimit="4" fill="currentColor" fill-opacity="1"></path><path d="M24.25 45.13C21.5 45.13 19.22 42.94 19.13 40.17 19.04 37.34 21.26 34.98 24.09 34.89 366.1 24.02 712.99 16.22 1055.14 11.72 1055.16 11.72 1055.19 11.72 1055.21 11.72 1058.01 11.72 1060.29 13.97 1060.33 16.78 1060.37 19.61 1058.1 21.93 1055.27 21.97 713.19 26.47 366.36 34.26 24.42 45.13 24.36 45.13 24.31 45.13 24.25 45.13Z" class="MsftOfcThm_Text2_Fill_v2" stroke="none" stroke-width="1" stroke-linecap="butt" stroke-linejoin="miter" stroke-miterlimit="4" fill="currentColor" fill-opacity="1"></path></g></g></svg>
