<svg viewBox="0 0 2202.21 108.07" xmlns="http://www.w3.org/2000/svg" xmlns:xlink="http://www.w3.org/1999/xlink" id="Layer_2" overflow="hidden">
<g id="_ÎÓÈ_1"><path d="M16.94 100.48 20.3 100.48C20.3 100.48 23.66 100.45 23.66 100.45L27.02 100.45C27.02 100.45 30.43 100.42 30.43 100.42L33.84 100.38 37.2 100.35 40.56 100.32 43.97 100.29 47.37 100.23 50.73 100.18 54.09 100.13 57.49 100.08 60.89 100.01 64.25 99.94 67.6 99.87 71 99.8 74.4 99.71 77.75 99.62 81.1 99.53 84.5 99.44 87.9 99.33 91.25 99.22 94.6 99.11 97.99 99 101.38 98.88 104.73 98.76 108.08 98.64 111.47 98.52 114.86 98.38 118.21 98.24 121.56 98.1 124.95 97.96 128.34 97.8 131.69 97.65 135.04 97.5 138.42 97.34 141.8 97.17 145.15 97 148.5 96.83 151.88 96.66 155.26 96.48 158.61 96.3 161.96 96.12 165.34 95.94 168.72 95.74 172.07 95.55 175.42 95.35 178.81 95.15 182.2 94.94 185.55 94.73 188.9 94.52 192.25 94.31 195.6 94.1 198.95 93.89 202.3 93.68 205.7 93.46 209.1 93.22 212.44 92.99 215.79 92.75 219.14 92.51 222.48 92.28 225.83 92.04 229.17 91.81 232.57 91.57 235.96 91.31 239.3 91.05 242.64 90.8 245.98 90.54 249.32 90.29 252.67 90.03 256.01 89.77 259.4 89.51 262.78 89.24 266.12 88.97 269.46 88.7 272.8 88.43 276.14 88.16 279.48 87.89 282.82 87.62 286.2 87.34 289.58 87.05 292.92 86.76 296.26 86.47 299.6 86.18 302.94 85.89 306.28 85.6 309.62 85.31 312.99 85.02 316.36 84.72 319.7 84.42 323.04 84.12 326.38 83.82 329.72 83.52 333.06 83.22 336.4 82.92 339.76 82.62 343.12 82.31 346.46 82 349.8 81.69 353.14 81.38 356.48 81.07 359.82 80.76 363.16 80.45 366.52 80.14 369.88 79.82 373.22 79.5 376.56 79.18 379.9 78.86 383.24 78.54 386.58 78.22 389.92 77.9 393.27 77.58 396.62 77.26 399.96 76.94 403.3 76.62 406.64 76.3 409.98 75.98 413.32 75.66 416.66 75.34 420 75.02 423.35 74.7 426.69 74.38 430.03 74.06 433.37 73.74 436.71 73.42 440.05 73.1 443.39 72.78 446.73 72.46 450.07 72.14 453.41 71.82 456.75 71.5 460.09 71.18 463.43 70.86 466.77 70.54 470.11 70.22 473.44 69.9 476.77 69.58 480.11 69.26 483.45 68.94 486.79 68.62 490.13 68.3 493.47 67.98 496.81 67.66 500.13 67.34 503.45 67.03 506.79 66.72 510.13 66.41 513.47 66.1 516.81 65.79 520.15 65.48 523.49 65.17 526.83 64.86 530.17 64.55 533.51 64.24 536.85 63.93 540.19 63.62 543.53 63.31 546.87 63 550.21 62.69 553.5 62.38 556.79 62.1 560.13 61.81 563.47 61.52 566.81 61.23 570.15 60.94 573.49 60.65 576.83 60.36 580.17 60.07 583.51 59.78 586.85 59.49 590.19 59.2 593.53 58.91 596.87 58.62 600.21 58.33 603.55 58.04 606.81 57.76 610.07 57.51 613.41 57.25 616.75 57 620.09 56.75 623.43 56.49 626.77 56.24 630.11 55.99 633.45 55.73 636.79 55.48 640.13 55.23 643.47 54.97 646.81 54.72 650.15 54.47 653.49 54.21 656.83 53.96 660.12 53.71 662.84 53.52 665.61 53.33 668.38 53.14 671.16 52.95 673.93 52.76 676.7 52.57 679.47 52.38 682.22 52.19 684.97 52.01 687.75 51.83 690.52 51.65 693.3 51.47 696.08 51.29 698.85 51.11 701.63 50.93 704.38 50.75 707.13 50.58 709.91 50.4 712.69 50.22 715.47 50.04 718.25 49.87 721.03 49.69 723.81 49.51 726.57 49.34 729.33 49.17 732.11 49 734.89 48.83 737.67 48.66 740.45 48.49 743.23 48.32 746.01 48.15 748.77 47.98 751.53 47.82 754.31 47.66 757.09 47.5 759.87 47.34 762.65 47.18 765.43 47.02 768.21 46.86 770.97 46.7 773.73 46.55 776.51 46.4 779.29 46.25 782.07 46.1 784.85 45.95 787.63 45.8 790.41 45.65 793.17 45.5 795.93 45.36 798.71 45.22 801.49 45.07 804.27 44.93 807.05 44.79 809.83 44.64 812.61 44.5 815.37 44.36 818.13 44.22 820.91 44.08 823.69 43.94 826.47 43.8 829.25 43.66 832.03 43.52 834.81 43.38 837.57 43.24 840.33 43.11 843.11 42.98 845.89 42.85 848.68 42.72 851.46 42.59 854.24 42.46 857.03 42.33 859.8 42.2 862.57 42.08 865.36 41.96 868.15 41.84 870.93 41.72 873.72 41.6 876.51 41.48 879.3 41.36 882.07 41.24 884.84 41.12 887.63 41 890.42 40.88 893.21 40.76 896 40.64 898.79 40.53 901.58 40.41 904.35 40.29 907.12 40.18 909.91 40.07 912.7 39.96 915.49 39.85 918.28 39.74 921.07 39.63 923.86 39.52 926.62 39.41 929.38 39.31 932.17 39.21 934.96 39.11 937.75 39.01 940.54 38.91 943.33 38.81 946.12 38.71 948.91 38.61 951.7 38.51 954.49 38.41 957.28 38.31 960.07 38.21 962.86 38.11 965.65 38.01 968.44 37.91 971.19 37.81 973.95 37.72 976.74 37.63 979.53 37.54 982.32 37.45 985.11 37.36 987.9 37.27 990.69 37.18 993.48 37.09 996.27 37 999.06 36.91 1001.85 36.82 1004.64 36.73 1007.43 36.64 1010.22 36.55 1013.01 36.46 1015.77 36.37 1018.53 36.29 1021.32 36.21 1024.11 36.13 1026.9 36.05 1029.69 35.97 1032.48 35.89 1035.27 35.81 1038.06 35.73 1040.85 35.65 1043.64 35.57 1046.43 35.49 1049.22 35.41 1052.01 35.33 1054.8 35.25 1057.59 35.17 1060.35 35.09 1063.12 35.02 1065.91 34.95 1068.7 34.88 1071.49 34.81 1074.28 34.74 1077.07 34.67 1079.86 34.6 1082.65 34.53 1085.44 34.46 1088.23 34.39 1091.02 34.32 1093.81 34.25 1096.6 34.18 1099.39 34.11 1102.18 34.04 1104.95 33.97 1107.72 33.91 1110.51 33.85 1113.3 33.79 1116.09 33.73 1118.88 33.67 1121.67 33.61 1124.46 33.55 1127.25 33.49 1130.04 33.43 1132.83 33.37 1135.62 33.31 1138.41 33.25 1141.2 33.19 1143.99 33.13 1146.78 33.07 1149.55 33.01 1152.32 32.96 1155.11 32.91 1157.9 32.86 1160.69 32.81 1163.48 32.76 1166.27 32.71 1169.06 32.66 1171.85 32.61 1174.64 32.56 1177.43 32.51 1180.22 32.46 1183.01 32.41 1185.8 32.36 1188.59 32.31 1191.38 32.26 1194.15 32.21 1196.92 32.17 1199.71 32.13 1202.5 32.09 1205.29 32.05 1208.08 32.01 1210.87 31.97 1213.66 31.93 1216.45 31.89 1219.24 31.85 1222.03 31.81 1224.82 31.77 1227.61 31.73 1230.4 31.69 1233.19 31.65 1235.98 31.61 1238.75 31.57 1241.52 31.54 1244.31 31.51 1247.1 31.48 1249.89 31.44 1252.68 31.41 1255.47 31.38 1258.26 31.35 1261.05 31.32 1263.84 31.29 1266.63 31.25 1269.42 31.22 1272.21 31.19 1275 31.16 1277.79 31.13 1280.58 31.1 1283.35 31.06 1286.12 31.03 1288.91 31 1291.7 30.97 1294.49 30.94 1297.28 30.91 1300.07 30.88 1302.86 30.85 1305.65 30.82 1308.44 30.79 1311.23 30.76 1314.02 30.73 1316.81 30.7 1319.6 30.67 1322.39 30.64 1325.18 30.61 1327.96 30.58 1330.74 30.56 1333.53 30.54 1336.32 30.52 1339.11 30.5 1341.9 30.48 1344.69 30.46 1347.48 30.44 1350.27 30.42 1353.06 30.4 1355.85 30.38 1358.64 30.36 1361.43 30.34 1364.22 30.32 1367.01 30.3 1369.8 30.28 1372.58 30.26 1375.36 30.24 1378.15 30.22 1380.94 30.2 1383.73 30.18 1386.52 30.16 1389.31 30.14 1392.1 30.12 1394.89 30.1 1397.68 30.08 1400.47 30.06 1403.26 30.04 1406.05 30.02 1408.84 30 1411.63 29.98 1414.42 29.96 1417.2 29.94 1419.98 29.94C1419.98 29.94 1422.77 29.92 1422.77 29.92L1425.56 29.92C1425.56 29.92 1428.35 29.9 1428.35 29.9L1431.14 29.9C1431.14 29.9 1433.93 29.87 1433.93 29.87L1436.72 29.87C1436.72 29.87 1439.51 29.85 1439.51 29.85L1442.3 29.85C1442.3 29.85 1445.09 29.83 1445.09 29.83L1447.88 29.83C1447.88 29.83 1450.67 29.81 1450.67 29.81L1453.46 29.81C1453.46 29.81 1456.25 29.78 1456.25 29.78L1459.04 29.78C1459.04 29.78 1461.82 29.76 1461.82 29.76L1464.6 29.76C1464.6 29.76 1467.39 29.74 1467.39 29.74L1470.18 29.74C1470.18 29.74 1472.97 29.72 1472.97 29.72L1475.76 29.72C1475.76 29.72 1478.55 29.7 1478.55 29.7L1481.34 29.7C1481.34 29.7 1484.13 29.68 1484.13 29.68L1486.92 29.68C1486.92 29.68 1489.71 29.66 1489.71 29.66L1492.5 29.66C1492.5 29.66 1495.29 29.64 1495.29 29.64L1498.08 29.64C1498.08 29.64 1500.87 29.62 1500.87 29.62L1503.66 29.62C1503.66 29.62 1506.44 29.6 1506.44 29.6L1509.22 29.6C1509.22 29.6 1512.01 29.59 1512.01 29.59L1514.8 29.59C1514.8 29.59 1517.59 29.58 1517.59 29.58L1520.38 29.58C1520.38 29.58 1523.17 29.57 1523.17 29.57L1525.96 29.57C1525.96 29.57 1528.75 29.56 1528.75 29.56L1531.54 29.56C1531.54 29.56 1534.33 29.55 1534.33 29.55L1537.12 29.55C1537.12 29.55 1539.91 29.54 1539.91 29.54L1542.7 29.54C1542.7 29.54 1545.49 29.53 1545.49 29.53L1548.28 29.53C1548.28 29.53 1551.06 29.52 1551.06 29.52L1553.84 29.52C1553.84 29.52 1556.63 29.52 1556.63 29.52L1559.42 29.52C1559.42 29.52 1562.21 29.52 1562.21 29.52L1565 29.52C1565 29.52 1567.79 29.52 1567.79 29.52L1570.58 29.52C1570.58 29.52 1573.37 29.51 1573.37 29.51L1576.16 29.51C1576.16 29.51 1578.95 29.51 1578.95 29.51L1581.74 29.51C1581.74 29.51 1584.53 29.51 1584.53 29.51L1587.32 29.51C1587.32 29.51 1590.11 29.51 1590.11 29.51L1592.9 29.51C1592.9 29.51 1595.68 29.51 1595.68 29.51L1598.46 29.51C1598.46 29.51 1601.25 29.51 1601.25 29.51L1604.04 29.51C1604.04 29.51 1606.83 29.51 1606.83 29.51L1609.62 29.51C1609.62 29.51 1612.4 29.51 1612.4 29.51L1615.19 29.51C1615.19 29.51 1617.98 29.51 1617.98 29.51L1620.77 29.51C1620.77 29.51 1623.55 29.51 1623.55 29.51L1626.34 29.51C1626.34 29.51 1629.13 29.51 1629.13 29.51L1631.92 29.51C1631.92 29.51 1634.7 29.51 1634.7 29.51L1637.49 29.51C1637.49 29.51 1640.27 29.51 1640.27 29.51L1643.05 29.51C1643.05 29.51 1645.83 29.51 1645.83 29.51L1648.61 29.51C1648.61 29.51 1651.39 29.51 1651.39 29.51L1654.17 29.51C1654.17 29.51 1656.95 29.51 1656.95 29.51L1659.73 29.51C1659.73 29.51 1662.51 29.51 1662.51 29.51L1665.29 29.51C1665.29 29.51 1668.07 29.51 1668.07 29.51L1670.85 29.51C1670.85 29.51 1673.63 29.51 1673.63 29.51L1676.41 29.51C1676.41 29.51 1679.19 29.51 1679.19 29.51L1681.97 29.51C1681.97 29.51 1684.75 29.51 1684.75 29.51L1687.53 29.51C1687.53 29.51 1690.31 29.51 1690.31 29.51L1693.09 29.51C1693.09 29.51 1695.87 29.51 1695.87 29.51L1698.65 29.51C1698.65 29.51 1701.43 29.51 1701.43 29.51L1704.21 29.51C1704.21 29.51 1706.99 29.51 1706.99 29.51L1709.77 29.51C1709.77 29.51 1712.55 29.51 1712.55 29.51L1715.33 29.51C1715.33 29.51 1718.11 29.51 1718.11 29.51L1720.89 29.51C1720.89 29.51 1723.67 29.51 1723.67 29.51L1726.45 29.51C1726.45 29.51 1729.21 29.51 1729.21 29.51L1732.94 29.51C1732.94 29.51 1736.69 29.51 1736.69 29.51L1740.43 29.51C1740.43 29.51 1744.18 29.51 1744.18 29.51L1747.93 29.51C1747.93 29.51 1751.67 29.51 1751.67 29.51L1755.42 29.51C1755.42 29.51 1759.13 29.51 1759.13 29.51L1762.84 29.53 1766.58 29.55 1770.33 29.57 1774.08 29.59 1777.82 29.61 1781.57 29.63 1785.32 29.65 1789.04 29.67 1792.76 29.71 1796.5 29.74 1800.24 29.77 1803.98 29.8 1807.72 29.84 1811.47 29.87 1815.21 29.9 1818.94 29.94 1822.67 29.98 1826.41 30.02 1830.15 30.07 1833.9 30.11 1837.64 30.16 1841.39 30.2 1845.13 30.24 1848.86 30.29 1852.59 30.34 1856.33 30.39 1860.08 30.44 1863.82 30.49 1867.56 30.54 1871.3 30.59 1875.04 30.64 1878.78 30.69 1882.52 30.74 1886.27 30.79 1890.01 30.84 1893.75 30.89 1897.49 30.94 1901.23 30.99 1904.97 31.04 1908.71 31.09 1912.46 31.14 1916.2 31.19 1919.94 31.24 1923.68 31.29 1927.42 31.34 1931.16 31.39 1934.9 31.44 1938.64 31.49 1942.38 31.54 1946.12 31.59 1949.86 31.64 1953.6 31.69 1957.34 31.74 1961.08 31.79 1964.82 31.84 1968.59 31.89 1972.36 31.93 1976.1 31.97 1979.84 32.01 1983.58 32.05 1987.32 32.09 1991.06 32.13 1994.8 32.17 1998.54 32.21 2002.28 32.25 2006.02 32.29 2009.76 32.33 2013.5 32.37 2017.24 32.41 2020.98 32.45 2024.72 32.49 2028.51 32.53 2032.3 32.53C2032.3 32.53 2036.04 32.55 2036.04 32.55L2039.79 32.55C2039.79 32.55 2043.53 32.57 2043.53 32.57L2047.27 32.57C2047.27 32.57 2051.01 32.59 2051.01 32.59L2054.75 32.59C2054.75 32.59 2058.49 32.61 2058.49 32.61L2062.23 32.61C2062.23 32.61 2065.97 32.63 2065.97 32.63L2069.71 32.63C2069.71 32.63 2073.45 32.65 2073.45 32.65L2077.19 32.65C2077.19 32.65 2080.93 32.67 2080.93 32.67L2084.67 32.67C2084.67 32.67 2088.45 32.69 2088.45 32.69L2091.74 32.69C2091.74 32.69 2094.99 32.68 2094.99 32.68L2098.21 32.68C2098.21 32.68 2101.42 32.66 2101.42 32.66L2104.59 32.66C2104.59 32.66 2107.76 32.64 2107.76 32.64L2110.88 32.64C2110.88 32.64 2113.99 32.62 2113.99 32.62L2117.04 32.62C2117.04 32.62 2120.08 32.6 2120.08 32.6L2123.05 32.6C2123.05 32.6 2126.02 32.59 2126.02 32.59L2128.91 32.59C2128.91 32.59 2131.8 32.59 2131.8 32.59L2134.59 32.59C2134.59 32.59 2137.38 32.59 2137.38 32.59L2140.07 32.59C2140.07 32.59 2142.76 32.61 2142.76 32.61L2145.36 32.61C2145.36 32.61 2147.91 32.64 2147.91 32.64L2150.39 32.66 2152.81 32.69 2155.16 32.72 2157.44 32.76 2159.65 32.8 2161.78 32.85 2163.83 32.91 2165.81 32.98 2167.69 33.05 2169.49 33.13 2171.2 33.22 2172.8 33.31 2174.3 33.41 2175.7 33.52 2176.98 33.63 2178.14 33.75 2179.18 33.87 2180.05 33.99 2180.77 34.1 2181.32 34.2 2181.63 34.27 2181.69 34.29 2181.43 34.2 2180.67 33.86 2179.38 33.09 2177.43 31.38 2175.07 27.74 2174.01 23.07 2174.96 17.58 2176.95 14.21 2178.61 12.53 2179.77 11.68 2180.53 11.24 2180.9 11.06 2181.01 11.01 2180.94 11.03 2180.68 11.11 2180.29 11.22 2179.78 11.35 2179.15 11.5 2178.43 11.66 2177.63 11.83 2176.73 12.01 2175.76 12.19 2174.72 12.37 2173.61 12.56 2172.44 12.75 2171.21 12.94 2169.91 13.14 2168.56 13.34 2167.16 13.54 2165.73 13.74 2162.66 14.14 2159.44 14.54 2156.05 14.94 2152.52 15.34 2148.86 15.73 2145.08 16.12 2141.2 16.51 2137.23 16.9 2133.18 17.28 2129.08 17.65 2124.93 18.02 2120.75 18.38 2116.54 18.74 2112.33 19.09 2108.14 19.43 2103.95 19.77 2099.84 20.09 2095.72 20.41 2091.69 20.72 2087.73 21.02 2083.86 21.31 2080.09 21.59 2076.43 21.86 2072.91 22.12 2069.52 22.37 2066.29 22.61 2063.23 22.83 2060.34 23.04 2057.64 23.24 2055.16 23.42 2053.99 23.51 2052.88 23.59 2051.83 23.67 2050.83 23.75 2049.89 23.82 2049.02 23.89 2048.2 23.96 2047.44 24.02 2046.74 24.08 2046.1 24.14 2045.51 24.2 2044.96 24.26 2042.56 24.52 2040.17 24.78 2037.77 25.04 2035.38 25.3 2032.98 25.56 2030.59 25.82 2028.19 26.08 2025.8 26.34 2023.41 26.6 2021.01 26.86 2018.62 27.12 2016.22 27.38 2013.83 27.64 2011.43 27.9 2009.04 28.16 2006.63 28.42 2004.22 28.69 2001.83 28.96 1999.44 29.23 1997.05 29.5 1994.66 29.77 1992.27 30.04 1989.88 30.31 1987.49 30.58 1985.1 30.85 1982.71 31.12 1980.32 31.39 1977.93 31.66 1975.54 31.93 1973.15 32.2 1970.76 32.47 1968.35 32.74 1965.94 33.02 1963.55 33.29 1961.16 33.56 1958.77 33.83 1956.38 34.1 1953.99 34.37 1951.6 34.64 1949.21 34.91 1946.82 35.18 1944.43 35.45 1942.04 35.72 1939.65 35.99 1937.26 36.26 1934.87 36.53 1932.48 36.8 1930.07 37.08 1927.66 37.36 1925.27 37.64 1922.88 37.92 1920.49 38.2 1918.1 38.48 1915.71 38.76 1913.32 39.04 1910.93 39.32 1908.54 39.6 1906.15 39.88 1903.76 40.16 1901.37 40.44 1898.98 40.72 1896.59 41 1894.2 41.28 1891.79 41.56 1889.38 41.85 1886.99 42.14 1884.6 42.43 1882.21 42.72 1879.82 43.01 1877.43 43.3 1875.04 43.59 1872.65 43.88 1870.26 44.17 1867.87 44.46 1865.48 44.75 1863.09 45.04 1860.7 45.33 1858.31 45.62 1855.92 45.91 1853.51 46.2 1851.1 46.5 1848.71 46.8 1846.32 47.1 1843.93 47.4 1841.54 47.7 1839.15 48 1836.76 48.3 1834.37 48.6 1831.98 48.9 1829.59 49.2 1827.2 49.5 1824.81 49.8 1822.42 50.1 1820.03 50.4 1817.64 50.7 1815.23 51 1812.82 51.31 1810.43 51.61 1808.04 51.91 1805.65 52.22 1803.26 52.52 1800.87 52.82 1798.48 53.12 1796.09 53.42 1793.7 53.72 1791.31 54.02 1788.92 54.32 1786.53 54.62 1784.14 54.92 1781.75 55.22 1779.36 55.52 1776.95 55.83 1774.54 56.15 1772.15 56.46 1769.76 56.77 1767.37 57.08 1764.98 57.39 1762.59 57.7 1760.2 58.01 1757.81 58.32 1755.42 58.63 1753.03 58.94 1750.64 59.25 1748.25 59.56 1745.86 59.87 1743.47 60.18 1741.08 60.49 1738.67 60.81 1736.26 61.13 1733.87 61.45 1731.48 61.77 1729.09 62.09 1726.7 62.41 1724.31 62.73 1721.93 63.05 1719.54 63.37 1717.15 63.69 1714.76 64.01 1712.38 64.33 1709.99 64.65 1707.6 64.97 1705.22 65.29 1702.83 65.61 1700.42 65.93 1698.01 66.26 1695.62 66.59 1693.23 66.92 1690.85 67.25 1688.46 67.58 1686.07 67.91 1683.68 68.24 1681.3 68.57 1678.91 68.9 1676.52 69.23 1674.13 69.56 1671.74 69.89 1669.35 70.22 1666.97 70.55 1664.58 70.88 1662.17 71.21 1659.76 71.55 1657.38 71.89 1654.99 72.23 1652.61 72.57 1650.22 72.91 1647.83 73.25 1645.45 73.59 1643.06 73.93 1640.67 74.27 1638.29 74.61 1635.9 74.95 1633.51 75.29 1631.13 75.63 1628.74 75.97 1626.35 76.31 1623.94 76.65 1621.53 77 1619.15 77.35 1616.77 77.7 1614.38 78.05 1612 78.4 1609.61 78.75 1607.23 79.1 1604.85 79.45 1602.47 79.8 1600.08 80.15 1597.7 80.5 1595.31 80.85 1592.93 81.2 1590.54 81.55 1588.16 81.9 1585.78 82.25C1578.67 83.28 1573.74 89.87 1574.77 96.98 1575.8 104.09 1582.39 109.02 1589.5 107.99L1591.89 107.65 1594.28 107.31 1596.66 106.97 1599.05 106.63 1601.44 106.29 1603.82 105.95 1606.21 105.61 1608.59 105.27 1610.97 104.93 1613.36 104.59 1615.75 104.25 1618.13 103.91 1620.52 103.57 1622.91 103.23 1625.29 102.89 1627.65 102.55 1630.01 102.22 1632.4 101.89 1634.79 101.56 1637.17 101.23 1639.56 100.9 1641.95 100.57 1644.34 100.24 1646.72 99.91 1649.11 99.58 1651.5 99.25 1653.89 98.92 1656.28 98.59 1658.67 98.26 1661.05 97.93 1663.44 97.6 1665.8 97.27 1668.16 96.95 1670.55 96.63 1672.94 96.31 1675.33 95.99 1677.71 95.67 1680.1 95.35 1682.49 95.03 1684.88 94.71 1687.27 94.39 1689.66 94.07 1692.05 93.75 1694.44 93.43 1696.83 93.11 1699.22 92.79 1701.61 92.47 1703.97 92.15 1706.34 91.84 1708.73 91.52 1711.12 91.21 1713.51 90.89 1715.9 90.58 1718.29 90.26 1720.68 89.94 1723.07 89.63 1725.46 89.31 1727.85 89 1730.24 88.68 1732.63 88.36 1735.02 88.05 1737.41 87.73 1739.8 87.41 1742.16 87.1 1744.52 86.8 1746.91 86.49 1749.3 86.18 1751.69 85.88 1754.08 85.57 1756.47 85.26 1758.86 84.95 1761.25 84.64 1763.64 84.34 1766.03 84.03 1768.42 83.72 1770.81 83.41 1773.2 83.11 1775.59 82.8 1777.98 82.49 1780.34 82.19 1782.71 81.9 1785.1 81.6 1787.49 81.3 1789.88 81 1792.27 80.7 1794.66 80.4 1797.05 80.1 1799.44 79.8 1801.83 79.5 1804.22 79.2 1806.61 78.9 1809 78.6 1811.39 78.3 1813.78 78 1816.17 77.7 1818.54 77.4 1820.91 77.11 1823.3 76.82 1825.69 76.53 1828.08 76.24 1830.47 75.95 1832.86 75.66 1835.25 75.37 1837.64 75.08 1840.03 74.79 1842.42 74.5 1844.81 74.21 1847.2 73.92 1849.59 73.63 1851.98 73.34 1854.37 73.05 1856.74 72.76 1859.11 72.48 1861.5 72.2 1863.89 71.92 1866.28 71.64 1868.67 71.36 1871.06 71.08 1873.45 70.8 1875.84 70.52 1878.23 70.24 1880.62 69.96 1883.01 69.68 1885.4 69.4 1887.79 69.12 1890.18 68.84 1892.57 68.56 1894.94 68.28 1897.31 68.01 1899.7 67.74 1902.09 67.47 1904.48 67.2 1906.87 66.93 1909.26 66.66 1911.65 66.39 1914.04 66.12 1916.43 65.85 1918.82 65.58 1921.21 65.31 1923.6 65.04 1925.99 64.77 1928.38 64.5 1930.77 64.23 1933.14 63.96 1935.51 63.69 1937.9 63.42 1940.29 63.15 1942.68 62.88 1945.07 62.61 1947.46 62.34 1949.85 62.07 1952.24 61.8 1954.63 61.53 1957.02 61.26 1959.41 60.99 1961.8 60.72 1964.19 60.45 1966.58 60.18 1968.97 59.91 1971.34 59.64 1973.71 59.38 1976.1 59.12 1978.5 58.86 1980.89 58.6 1983.28 58.34 1985.67 58.08 1988.07 57.82 1990.46 57.56 1992.85 57.3 1995.24 57.04 1997.64 56.78 2000.03 56.52 2002.42 56.26 2004.81 56 2007.21 55.74 2009.58 55.48 2011.96 55.23 2014.36 54.98 2016.76 54.73 2019.16 54.48 2021.55 54.23 2023.95 53.98 2026.35 53.73 2028.75 53.48 2031.15 53.23 2033.54 52.98 2035.94 52.73 2038.34 52.48 2040.74 52.23 2043.13 51.98 2045.53 51.73 2047.92 51.48 2048.24 51.45 2048.67 51.41 2049.2 51.36 2049.81 51.31 2050.49 51.25 2051.25 51.19 2052.08 51.13 2052.98 51.06 2053.95 50.99 2054.98 50.92 2056.07 50.84 2057.22 50.76 2059.68 50.58 2062.36 50.39 2065.25 50.19 2068.31 49.98 2071.55 49.75 2074.95 49.51 2078.49 49.26 2082.16 49 2085.95 48.73 2089.84 48.45 2093.83 48.16 2097.9 47.86 2102.04 47.55 2106.19 47.24 2110.42 46.91 2114.65 46.58 2118.9 46.24 2123.15 45.89 2127.4 45.53 2131.61 45.17 2135.78 44.8 2139.9 44.43 2143.96 44.05 2147.93 43.66 2151.82 43.27 2155.6 42.88 2159.26 42.48 2162.8 42.07 2166.21 41.66 2169.43 41.25 2171.03 41.04 2172.56 40.83 2174.05 40.62 2175.5 40.41 2176.91 40.19 2178.27 39.97 2179.59 39.75 2180.87 39.52 2182.1 39.29 2183.29 39.06 2184.45 38.82 2185.56 38.57 2186.64 38.31 2187.71 38.03 2188.75 37.73 2189.8 37.4 2190.89 37.01 2192.02 36.55 2193.27 35.97 2194.75 35.12 2196.47 33.86 2198.54 31.77 2200.78 27.99 2201.81 22.09 2200.63 16.85 2197.91 12.67 2195.35 10.44 2193.23 9.18 2191.41 8.38 2189.86 7.85 2188.43 7.45 2187.02 7.13 2185.63 6.87 2184.23 6.64 2182.77 6.44 2181.27 6.26 2179.72 6.1 2178.09 5.95 2176.4 5.82 2174.65 5.7 2172.82 5.59 2170.92 5.49 2168.96 5.4 2166.92 5.32 2164.81 5.25 2162.64 5.18 2160.4 5.12 2158.09 5.07 2155.73 5.02 2153.3 4.98 2150.81 4.94 2148.26 4.91 2145.66 4.88 2143 4.86 2140.28 4.84 2137.56 4.82 2134.73 4.82C2134.73 4.82 2131.91 4.8 2131.91 4.8L2129 4.8C2129 4.8 2126.09 4.8 2126.09 4.8L2123.1 4.8C2123.1 4.8 2120.12 4.8 2120.12 4.8L2117.06 4.8C2117.06 4.8 2114.01 4.8 2114.01 4.8L2110.89 4.8C2110.89 4.8 2107.78 4.8 2107.78 4.8L2104.61 4.8C2104.61 4.8 2101.45 4.8 2101.45 4.8L2091.8 4.8C2091.8 4.8 2088.59 4.8 2088.59 4.8L2084.88 4.78 2081.14 4.76 2077.4 4.74 2073.66 4.72 2069.92 4.7 2066.18 4.68 2062.44 4.66 2058.7 4.64 2054.96 4.62 2051.22 4.6 2047.48 4.58 2043.74 4.56 2040 4.54 2036.26 4.52 2032.51 4.5 2028.82 4.48 2025.13 4.43 2021.39 4.38 2017.65 4.33 2013.91 4.28 2010.17 4.23 2006.43 4.18 2002.69 4.13 1998.95 4.08 1995.21 4.03 1991.47 3.98 1987.73 3.93 1983.99 3.88 1980.25 3.83 1976.51 3.78 1972.77 3.73 1969.05 3.68 1965.33 3.62 1961.59 3.56 1957.85 3.5 1954.11 3.44 1950.37 3.38 1946.63 3.32 1942.89 3.26 1939.15 3.2 1935.41 3.14 1931.67 3.08 1927.93 3.02 1924.19 2.96 1920.45 2.9 1916.71 2.84 1912.97 2.78 1909.23 2.72 1905.49 2.66 1901.75 2.59 1898.01 2.52 1894.27 2.46 1890.53 2.39 1886.79 2.32 1883.05 2.26 1879.3 2.19 1875.55 2.13 1871.81 2.07 1868.07 2.01 1864.33 1.95 1860.59 1.89 1856.85 1.83 1853.11 1.77 1849.35 1.71 1845.59 1.66 1841.85 1.61 1838.11 1.56 1834.37 1.51 1830.62 1.46 1826.88 1.41 1823.14 1.36 1819.38 1.31 1815.62 1.26 1811.88 1.21 1808.14 1.16 1804.39 1.11 1800.65 1.07 1796.9 1.02 1793.16 0.98 1789.39 0.93 1785.62 0.9 1781.88 0.87 1778.13 0.84 1774.38 0.81 1770.64 0.78 1766.89 0.75 1763.14 0.72 1759.36 0.69 1755.58 0.69C1755.58 0.69 1751.83 0.66 1751.83 0.66L1748.09 0.64 1744.34 0.64C1744.34 0.64 1740.59 0.61 1740.59 0.61L1736.84 0.61C1736.84 0.61 1733.09 0.58 1733.09 0.58L1729.33 0.58C1729.33 0.58 1726.53 0.56 1726.53 0.56L1723.75 0.56C1723.75 0.56 1720.97 0.56 1720.97 0.56L1718.19 0.56C1718.19 0.56 1715.41 0.56 1715.41 0.56L1712.63 0.56C1712.63 0.56 1709.85 0.56 1709.85 0.56L1707.07 0.56C1707.07 0.56 1704.29 0.56 1704.29 0.56L1701.51 0.56C1701.51 0.56 1698.73 0.56 1698.73 0.56L1695.95 0.56C1695.95 0.56 1693.17 0.56 1693.17 0.56L1690.39 0.56C1690.39 0.56 1687.61 0.56 1687.61 0.56L1684.83 0.56C1684.83 0.56 1682.05 0.56 1682.05 0.56L1679.27 0.56C1679.27 0.56 1676.49 0.56 1676.49 0.56L1673.71 0.56C1673.71 0.56 1670.93 0.56 1670.93 0.56L1668.15 0.56C1668.15 0.56 1665.37 0.56 1665.37 0.56L1662.59 0.56C1662.59 0.56 1659.81 0.56 1659.81 0.56L1657.03 0.56C1657.03 0.56 1654.25 0.55 1654.25 0.55L1651.47 0.55C1651.47 0.55 1648.69 0.55 1648.69 0.55L1645.91 0.55C1645.91 0.55 1643.13 0.55 1643.13 0.55L1640.34 0.55C1640.34 0.55 1637.55 0.55 1637.55 0.55L1634.76 0.55C1634.76 0.55 1631.97 0.55 1631.97 0.55L1629.19 0.55C1629.19 0.55 1626.4 0.55 1626.4 0.55L1623.61 0.55C1623.61 0.55 1620.82 0.55 1620.82 0.55L1618.03 0.55C1618.03 0.55 1615.25 0.55 1615.25 0.55L1612.46 0.55C1612.46 0.55 1609.67 0.55 1609.67 0.55L1606.88 0.55C1606.88 0.55 1604.1 0.55 1604.1 0.55L1601.31 0.55C1601.31 0.55 1598.52 0.55 1598.52 0.55L1595.73 0.55C1595.73 0.55 1592.94 0.55 1592.94 0.55L1590.15 0.55C1590.15 0.55 1587.36 0.55 1587.36 0.55L1584.57 0.55C1584.57 0.55 1581.78 0.55 1581.78 0.55L1578.99 0.55C1578.99 0.55 1576.2 0.55 1576.2 0.55L1573.41 0.55C1573.41 0.55 1570.62 0.55 1570.62 0.55L1567.83 0.55C1567.83 0.55 1565.04 0.55 1565.04 0.55L1562.25 0.55C1562.25 0.55 1559.46 0.55 1559.46 0.55L1556.67 0.55C1556.67 0.55 1553.88 0.55 1553.88 0.55L1551.09 0.55C1551.09 0.55 1548.3 0.55 1548.3 0.55L1545.51 0.55C1545.51 0.55 1542.72 0.55 1542.72 0.55L1539.93 0.55C1539.93 0.55 1537.14 0.55 1537.14 0.55L1534.35 0.55C1534.35 0.55 1531.56 0.55 1531.56 0.55L1525.98 0.55C1525.98 0.55 1523.19 0.55 1523.19 0.55L1520.4 0.55C1520.4 0.55 1517.61 0.55 1517.61 0.55L1514.82 0.55C1514.82 0.55 1512.03 0.55 1512.03 0.55L1509.24 0.55C1509.24 0.55 1506.44 0.55 1506.44 0.55L1500.85 0.55C1500.85 0.55 1498.06 0.55 1498.06 0.55L1492.48 0.55C1492.48 0.55 1489.69 0.55 1489.69 0.55L1486.9 0.55C1486.9 0.55 1484.11 0.55 1484.11 0.55L1481.32 0.55C1481.32 0.55 1478.53 0.55 1478.53 0.55L1472.95 0.55C1472.95 0.55 1470.16 0.55 1470.16 0.55L1467.37 0.55C1467.37 0.55 1464.58 0.55 1464.58 0.55L1461.78 0.55C1461.78 0.55 1458.98 0.55 1458.98 0.55L1456.19 0.55C1456.19 0.55 1453.4 0.55 1453.4 0.55L1450.61 0.55C1450.61 0.55 1447.82 0.56 1447.82 0.56L1445.03 0.56C1445.03 0.56 1442.24 0.56 1442.24 0.56L1439.45 0.56C1439.45 0.56 1436.66 0.56 1436.66 0.56L1433.87 0.56C1433.87 0.56 1431.08 0.57 1431.08 0.57L1428.29 0.57C1428.29 0.57 1425.5 0.57 1425.5 0.57L1422.71 0.57C1422.71 0.57 1419.92 0.57 1419.92 0.57L1417.12 0.57C1417.12 0.57 1414.32 0.58 1414.32 0.58L1411.53 0.58C1411.53 0.58 1408.74 0.6 1408.74 0.6L1405.95 0.6C1405.95 0.6 1403.16 0.62 1403.16 0.62L1400.37 0.62C1400.37 0.62 1397.58 0.64 1397.58 0.64L1394.79 0.64C1394.79 0.64 1392 0.66 1392 0.66L1389.21 0.66C1389.21 0.66 1386.42 0.68 1386.42 0.68L1383.63 0.68C1383.63 0.68 1380.84 0.7 1380.84 0.7L1378.05 0.7C1378.05 0.7 1375.26 0.72 1375.26 0.72L1372.45 0.72C1372.45 0.72 1369.64 0.74 1369.64 0.74L1366.85 0.74C1366.85 0.74 1364.06 0.77 1364.06 0.77L1361.27 0.79 1358.48 0.79C1358.48 0.79 1355.69 0.82 1355.69 0.82L1352.9 0.84 1350.11 0.84C1350.11 0.84 1347.32 0.87 1347.32 0.87L1344.53 0.89 1341.74 0.89C1341.74 0.89 1338.95 0.92 1338.95 0.92L1336.16 0.92C1336.16 0.92 1333.37 0.95 1333.37 0.95L1330.58 0.97 1327.77 0.97C1327.77 0.97 1324.96 1 1324.96 1L1322.17 1.02 1319.38 1.04 1316.59 1.06 1313.8 1.08 1311.01 1.1 1308.22 1.12 1305.43 1.14 1302.63 1.16 1299.84 1.18 1297.05 1.2 1294.26 1.22 1291.47 1.24 1288.68 1.26 1285.89 1.28 1283.08 1.3 1280.27 1.33 1277.48 1.35 1274.69 1.38 1271.9 1.41 1269.11 1.44 1266.32 1.46 1263.53 1.49 1260.74 1.52 1257.95 1.54 1255.16 1.57 1252.37 1.6 1249.58 1.62 1246.79 1.65 1244 1.68 1241.21 1.71 1238.4 1.73 1235.59 1.77 1232.8 1.8 1230.01 1.83 1227.22 1.86 1224.43 1.89 1221.64 1.92 1218.85 1.95 1216.06 1.98 1213.27 2.01 1210.48 2.04 1207.69 2.07 1204.9 2.1 1202.11 2.13 1199.32 2.16 1196.53 2.19 1193.72 2.22 1190.91 2.26 1188.12 2.3 1185.33 2.34 1182.54 2.38 1179.75 2.42 1176.96 2.46 1174.17 2.5 1171.38 2.54 1168.58 2.58 1165.79 2.62 1163 2.66 1160.21 2.7 1157.42 2.74 1154.63 2.78 1151.84 2.82 1149.02 2.86 1146.2 2.91 1143.41 2.96 1140.62 3.01 1137.83 3.06 1135.04 3.11 1132.25 3.16 1129.46 3.21 1126.67 3.26 1123.88 3.31 1121.09 3.36 1118.3 3.41 1115.51 3.46 1112.72 3.51 1109.93 3.56 1107.14 3.61 1104.32 3.66 1101.5 3.72 1098.71 3.78 1095.92 3.84 1093.13 3.9 1090.34 3.96 1087.55 4.02 1084.76 4.08 1081.97 4.14 1079.18 4.2 1076.39 4.26 1073.6 4.32 1070.81 4.38 1068.02 4.44 1065.23 4.5 1062.44 4.56 1059.62 4.62 1056.8 4.69 1054.01 4.76 1051.22 4.83 1048.43 4.9 1045.64 4.97 1042.85 5.04 1040.06 5.11 1037.27 5.18 1034.48 5.25 1031.69 5.32 1028.9 5.39 1026.11 5.46 1023.32 5.53 1020.53 5.6 1017.74 5.67 1014.92 5.74 1012.1 5.82 1009.31 5.9 1006.52 5.98 1003.73 6.06 1000.94 6.14 998.15 6.22 995.36 6.3 992.57 6.38 989.78 6.46 986.99 6.54 984.2 6.62 981.41 6.7 978.62 6.78 975.83 6.86 973.04 6.94 970.22 7.02 967.4 7.11 964.61 7.2 961.82 7.29 959.03 7.38 956.24 7.47 953.45 7.56 950.66 7.65 947.87 7.74 945.08 7.83 942.29 7.92 939.5 8.01 936.71 8.1 933.92 8.19 931.13 8.28 928.34 8.37 925.53 8.46 922.72 8.56 919.93 8.66 917.14 8.76 914.35 8.86 911.56 8.96 908.77 9.06 905.98 9.16 903.17 9.26 900.37 9.37 897.58 9.48 894.79 9.59 892 9.7 889.21 9.81 886.42 9.92 883.63 10.03 880.82 10.14 878.02 10.26 875.23 10.37 872.44 10.49 869.65 10.6 866.86 10.72 864.07 10.83 861.29 10.95 858.49 11.06 855.69 11.18 852.91 11.3 850.12 11.42 847.34 11.54 844.55 11.66 841.77 11.78 838.98 11.9 836.18 12.02 833.38 12.15 830.6 12.28 827.81 12.41 825.03 12.54 822.24 12.67 819.46 12.8 816.68 12.93 813.87 13.06 811.07 13.2 808.29 13.34 805.51 13.48 802.73 13.62 799.95 13.76 797.17 13.9 794.39 14.04 791.59 14.18 788.79 14.33 786.01 14.47 783.23 14.61 780.45 14.75 777.67 14.89 774.89 15.03 772.11 15.17 769.3 15.31 766.5 15.46 763.72 15.61 760.94 15.76 758.16 15.91 755.38 16.06 752.6 16.21 749.82 16.36 747.02 16.51 744.22 16.67 741.44 16.83 738.66 16.99 735.88 17.15 733.1 17.31 730.32 17.47 727.54 17.63 724.74 17.79 721.94 17.96 719.16 18.13 716.38 18.3 713.6 18.47 710.82 18.64 708.04 18.81 705.26 18.98 702.46 19.15 699.66 19.33 696.88 19.51 694.1 19.69 691.32 19.87 688.54 20.05 685.76 20.23 682.99 20.41 680.19 20.59 677.39 20.78 674.62 20.96 671.85 21.14 669.08 21.32 666.31 21.5 663.54 21.68 660.76 21.86 657.93 22.05 654.54 22.3 651.19 22.55 647.85 22.8 644.51 23.05 641.17 23.3 637.83 23.55 634.49 23.8 631.15 24.05 627.8 24.3 624.46 24.55 621.12 24.8 617.78 25.05 614.44 25.3 611.1 25.55 607.76 25.8 604.33 26.05 600.91 26.34 597.57 26.62 594.23 26.9 590.89 27.18 587.55 27.46 584.21 27.74 580.87 28.02 577.53 28.3 574.19 28.58 570.85 28.86 567.51 29.14 564.17 29.42 560.83 29.7 557.49 29.98 554.15 30.26 550.75 30.54 547.36 30.84 544.02 31.14 540.68 31.44 537.34 31.74 534 32.04 530.66 32.34 527.32 32.64 523.98 32.94 520.64 33.24 517.3 33.54 513.96 33.84 510.62 34.14 507.28 34.44 503.94 34.74 500.6 35.04 497.24 35.34 493.88 35.65 490.54 35.96 487.2 36.27 483.86 36.58 480.52 36.89 477.18 37.2 473.84 37.51 470.49 37.82 467.14 38.13 463.8 38.45 460.46 38.76 457.12 39.07 453.78 39.38 450.44 39.69 447.1 40 443.76 40.31 440.42 40.63 437.08 40.94 433.74 41.25 430.4 41.57 427.06 41.88 423.72 42.19 420.38 42.51 417.04 42.82 413.7 43.13 410.36 43.44 407.02 43.75 403.68 44.06 400.34 44.37 397 44.68 393.66 44.99 390.33 45.3 387 45.61 383.66 45.92 380.32 46.23 376.98 46.54 373.64 46.85 370.3 47.16 366.96 47.47 363.64 47.78 360.32 48.08 356.98 48.38 353.64 48.68 350.3 48.98 346.96 49.28 343.62 49.58 340.28 49.88 336.96 50.18 333.64 50.47 330.3 50.76 326.96 51.05 323.62 51.34 320.28 51.63 316.94 51.92 313.6 52.21 310.29 52.5 306.98 52.77 303.64 53.05 300.3 53.33 296.96 53.61 293.62 53.89 290.28 54.17 286.94 54.45 283.64 54.72 280.33 54.98 276.99 55.24 273.65 55.5 270.31 55.76 266.97 56.02 263.63 56.28 260.28 56.54 256.98 56.8 253.68 57.04 250.33 57.29 246.99 57.54 243.65 57.79 240.3 58.04 236.96 58.29 233.62 58.54 230.33 58.78 227.03 59 223.69 59.23 220.34 59.46 216.99 59.69 213.64 59.92 210.29 60.15 206.95 60.38 203.66 60.6 200.37 60.8 197.02 61 193.67 61.2 190.32 61.4 186.97 61.6 183.62 61.8 180.27 62 176.97 62.2 173.66 62.38 170.31 62.56 166.96 62.74 163.64 62.92 160.33 63.09 156.98 63.26 153.63 63.43 150.31 63.6 147 63.76 143.65 63.92 140.3 64.08 136.99 64.24 133.67 64.38 130.32 64.52 126.97 64.66 123.66 64.8 120.35 64.93 117 65.06 113.65 65.19 110.34 65.32 107.03 65.43 103.68 65.54 100.33 65.65 97.02 65.76 93.71 65.86 90.36 65.96 87.01 66.06 83.7 66.16 80.39 66.24 77.03 66.32 73.68 66.4 70.37 66.48 67.06 66.54 63.71 66.6 60.35 66.66 57.04 66.72 53.73 66.76 50.37 66.81 47.01 66.86 43.7 66.9 40.39 66.92 37.03 66.94 33.67 66.96 30.36 66.98 27.05 66.98C27.05 66.98 23.69 66.98 23.69 66.98L20.33 66.98C20.33 66.98 16.97 66.98 16.97 66.98 7.51 66.73-0.02 74.31 0 83.64 0.02 92.97 7.61 100.51 16.94 100.48Z" class="MsftOfcThm_Accent6_Fill_v2" stroke="none" stroke-width="1" stroke-linecap="butt" stroke-linejoin="miter" stroke-miterlimit="4" fill="currentColor" fill-opacity="1"></path></g></svg>
