<svg viewBox="0 0 1734.19 133.01" xmlns="http://www.w3.org/2000/svg" xmlns:xlink="http://www.w3.org/1999/xlink" id="Layer_2" overflow="hidden">
<g id="_ÎÓÈ_1"><path d="M21.68 86.18 24.67 85.29 27.59 84.43 30.51 83.59 33.43 82.75 36.36 81.94 39.3 81.13 42.24 80.35 45.18 79.57 48.12 78.81 51.06 78.05 54.01 77.32 56.96 76.59 59.92 75.88 62.87 75.17 65.83 74.49 68.79 73.81 71.75 73.15 74.72 72.49 77.7 71.85 80.67 71.22 83.64 70.61 86.62 70 89.6 69.41 92.56 68.83 95.52 68.28 98.57 67.71 101.62 67.14 104.55 66.6 107.48 66.1 110.54 65.58 113.6 65.06 116.54 64.56 119.49 64.11 122.56 63.63 125.63 63.16 128.59 62.7 131.56 62.28 134.64 61.85 137.72 61.42 140.68 61 143.65 60.62 146.74 60.23 149.82 59.84 152.79 59.46 155.77 59.12 158.86 58.77 161.95 58.42 164.95 58.08 167.95 57.77 171.05 57.45 174.15 57.13 177.15 56.82 180.16 56.55 183.26 56.27 186.37 55.99 189.38 55.72 192.4 55.48 195.51 55.23 198.62 54.98 201.65 54.74 204.68 54.53 207.79 54.31 210.91 54.09 213.94 53.88 216.98 53.7 220.1 53.51 223.22 53.32 226.26 53.14 229.31 52.98 232.44 52.82 235.56 52.66 238.62 52.5 241.68 52.37 244.81 52.24 247.94 52.11 251 51.98 254.07 51.88 257.2 51.77 260.34 51.66 263.41 51.55 266.48 51.47 269.62 51.39 272.76 51.31 275.84 51.23 278.93 51.17 282.07 51.11 285.21 51.05 288.3 50.99 291.39 50.95 294.54 50.91 297.69 50.87 300.78 50.83 303.88 50.81 307.03 50.79 310.18 50.77 313.29 50.75 316.4 50.75C316.4 50.75 319.55 50.74 319.55 50.74L322.7 50.74C322.7 50.74 325.81 50.73 325.81 50.73L328.92 50.73C328.92 50.73 332.07 50.75 332.07 50.75L335.22 50.75C335.22 50.75 338.34 50.77 338.34 50.77L341.46 50.79 344.61 50.81 347.77 50.83 350.9 50.85 354.03 50.89 357.19 50.92 360.35 50.95 363.48 50.99 366.61 51.04 369.77 51.09 372.93 51.14 376.07 51.18 379.21 51.23 382.37 51.28 385.53 51.33 388.67 51.38 391.81 51.44 394.97 51.5 398.13 51.56 401.29 51.62 404.45 51.68 407.61 51.74 410.77 51.81 413.91 51.87 417.05 51.94 420.21 52.01 423.37 52.08 426.53 52.15 429.69 52.22 432.85 52.29 436.01 52.36 439.17 52.43 442.33 52.5 445.49 52.57 448.65 52.64 451.81 52.71 454.97 52.78 458.13 52.85 461.29 52.92 464.47 52.99 467.65 53.06 470.81 53.13 473.97 53.19 477.13 53.26 480.29 53.33 483.45 53.39 486.61 53.46 489.8 53.53 492.99 53.58 496.14 53.63 499.29 53.68 502.44 53.73 505.59 53.78 508.75 53.83 511.9 53.88 515.11 53.93 518.32 53.96 521.47 53.99 524.62 54.02 527.77 54.05 530.92 54.08 534.07 54.11 537.22 54.14 540.42 54.17 543.61 54.17C543.61 54.17 546.75 54.2 546.75 54.2L549.9 54.2C549.9 54.2 553.08 54.22 553.08 54.22L556.26 54.22C556.26 54.22 559.4 54.22 559.4 54.22L562.54 54.22C562.54 54.22 565.73 54.22 565.73 54.22L568.91 54.2 572.05 54.18 575.19 54.16 578.37 54.14 581.55 54.1 584.68 54.06 587.82 54.02 591.01 53.98 594.19 53.92 597.32 53.86 600.45 53.8 603.64 53.74 606.82 53.66 609.95 53.58 613.07 53.5 616.21 53.42 619.27 53.34 622.32 53.26 625.37 53.18 628.42 53.1 631.47 53.02 634.52 52.94 637.57 52.86 640.58 52.78 643.59 52.71 646.64 52.64 649.69 52.57 652.74 52.5 655.79 52.43 658.84 52.36 661.89 52.29 664.91 52.22 667.93 52.17 670.98 52.12 674.03 52.07 677.08 52.02 680.13 51.97 683.18 51.92 686.23 51.87 689.25 51.82 692.28 51.78 695.33 51.74 698.38 51.7 701.43 51.66 704.48 51.62 707.53 51.58 710.58 51.54 713.61 51.5 716.63 51.47 719.68 51.44 722.73 51.41 725.78 51.38 728.83 51.35 731.89 51.32 734.94 51.29 737.97 51.26 741 51.24 744.05 51.22 747.1 51.2 750.15 51.18 753.2 51.16 756.26 51.14 759.31 51.12 762.35 51.1 765.38 51.08 768.43 51.06 771.49 51.06C771.49 51.06 774.54 51.03 774.54 51.03L777.59 51.01 780.64 50.99 783.7 50.97 786.74 50.95 789.78 50.95C789.78 50.95 792.84 50.93 792.84 50.93L795.89 50.93C795.89 50.93 798.94 50.91 798.94 50.91L802 50.91C802 50.91 805.05 50.89 805.05 50.89L808.11 50.89C808.11 50.89 811.15 50.87 811.15 50.87L814.19 50.87C814.19 50.87 817.24 50.87 817.24 50.87L820.3 50.87C820.3 50.87 823.35 50.87 823.35 50.87L826.41 50.87C826.41 50.87 829.47 50.87 829.47 50.87L832.52 50.87C832.52 50.87 835.56 50.87 835.56 50.87L838.6 50.87C838.6 50.87 841.66 50.87 841.66 50.87L847.77 50.87C847.77 50.87 850.83 50.87 850.83 50.87L853.88 50.87C853.88 50.87 856.94 50.87 856.94 50.87L863.03 50.87C863.03 50.87 866.08 50.87 866.08 50.87L869.14 50.87C869.14 50.87 872.2 50.87 872.2 50.87L875.26 50.87C875.26 50.87 878.31 50.87 878.31 50.87L881.37 50.87C881.37 50.87 884.42 50.87 884.42 50.87L887.47 50.87C887.47 50.87 890.52 50.88 890.52 50.88L893.58 50.88C893.58 50.88 896.64 50.89 896.64 50.89L899.69 50.89C899.69 50.89 902.75 50.9 902.75 50.9L905.81 50.9C905.81 50.9 908.87 50.91 908.87 50.91L911.93 50.91C911.93 50.91 914.99 50.91 914.99 50.91L918.05 50.91C918.05 50.91 921.1 50.91 921.1 50.91L924.16 50.91C924.16 50.91 927.22 50.91 927.22 50.91L930.28 50.91C930.28 50.91 933.34 50.91 933.34 50.91L936.4 50.91C936.4 50.91 939.45 50.91 939.45 50.91L942.51 50.91C942.51 50.91 945.57 50.91 945.57 50.91L948.63 50.91C948.63 50.91 951.69 50.91 951.69 50.91L954.74 50.91C954.74 50.91 957.8 50.91 957.8 50.91L960.86 50.91C960.86 50.91 963.92 50.91 963.92 50.91L966.97 50.91C966.97 50.91 970.03 50.91 970.03 50.91L973.09 50.91C973.09 50.91 976.15 50.91 976.15 50.91L979.21 50.91C979.21 50.91 982.27 50.91 982.27 50.91L985.32 50.91C985.32 50.91 988.38 50.91 988.38 50.91L991.44 50.91C991.44 50.91 994.5 50.91 994.5 50.91L997.56 50.91C997.56 50.91 1000.61 50.91 1000.61 50.91L1003.67 50.91C1003.67 50.91 1006.77 50.91 1006.77 50.91L1009.87 50.91C1009.87 50.91 1012.92 50.88 1012.92 50.88L1015.98 50.88C1015.98 50.88 1019.04 50.86 1019.04 50.86L1022.09 50.86C1022.09 50.86 1025.15 50.83 1025.15 50.83L1028.21 50.83C1028.21 50.83 1031.27 50.81 1031.27 50.81L1034.32 50.81C1034.32 50.81 1037.38 50.78 1037.38 50.78L1040.43 50.78C1040.43 50.78 1043.49 50.75 1043.49 50.75L1046.55 50.75C1046.55 50.75 1049.61 50.73 1049.61 50.73L1052.66 50.73C1052.66 50.73 1055.72 50.7 1055.72 50.7L1058.78 50.7C1058.78 50.7 1061.83 50.68 1061.83 50.68L1064.89 50.68C1064.89 50.68 1067.95 50.65 1067.95 50.65L1071 50.65C1071 50.65 1074.06 50.63 1074.06 50.63L1077.12 50.63C1077.12 50.63 1080.18 50.6 1080.18 50.6L1083.23 50.6C1083.23 50.6 1086.29 50.57 1086.29 50.57L1089.34 50.57C1089.34 50.57 1092.4 50.55 1092.4 50.55L1095.46 50.55C1095.46 50.55 1098.52 50.52 1098.52 50.52L1101.57 50.52C1101.57 50.52 1104.73 50.49 1104.73 50.49L1107.89 50.44 1110.94 50.39 1114 50.34 1117.05 50.29 1120.1 50.24 1123.16 50.19 1126.21 50.14 1129.26 50.09 1132.31 50.04 1135.36 49.99 1138.42 49.94 1141.47 49.89 1144.52 49.84 1147.58 49.79 1150.63 49.74 1153.68 49.69 1156.74 49.64 1159.79 49.59 1162.84 49.54 1165.89 49.49 1168.95 49.44 1172 49.39 1175.05 49.34 1178.11 49.29 1181.16 49.24 1184.21 49.19 1187.27 49.14 1190.32 49.09 1193.38 49.04 1196.43 48.99 1199.48 48.94 1202.61 48.89 1205.44 48.82 1208.19 48.75 1210.94 48.68 1213.69 48.61 1216.44 48.54 1219.19 48.47 1221.94 48.4 1224.69 48.33 1227.44 48.26 1230.19 48.19 1232.94 48.12 1235.69 48.05 1238.44 47.98 1241.19 47.91 1243.94 47.84 1246.72 47.77 1249.5 47.69 1252.25 47.61 1255 47.53 1257.75 47.45 1260.5 47.37 1263.25 47.29 1266 47.21 1268.75 47.13 1271.5 47.05 1274.25 46.97 1277 46.89 1279.75 46.81 1282.51 46.73 1285.26 46.65 1288.01 46.57 1290.78 46.49 1293.55 46.4 1296.3 46.31 1299.05 46.22 1301.8 46.13 1304.55 46.04 1307.3 45.95 1310.05 45.86 1312.8 45.77 1315.55 45.68 1318.3 45.59 1321.05 45.5 1323.8 45.41 1326.55 45.32 1329.3 45.23 1332.05 45.14 1334.82 45.05 1337.59 44.96 1340.34 44.87 1343.09 44.78 1345.84 44.69 1348.59 44.6 1351.34 44.51 1354.09 44.42 1356.84 44.33 1359.59 44.24 1362.34 44.15 1365.09 44.06 1367.84 43.97 1370.59 43.88 1373.34 43.79 1376.09 43.7 1378.85 43.61 1381.61 43.51 1384.36 43.42 1387.11 43.33 1389.86 43.23 1392.61 43.14 1395.36 43.05 1398.11 42.95 1400.86 42.86 1403.61 42.77 1406.36 42.67 1409.11 42.58 1411.86 42.49 1414.61 42.4 1417.36 42.3 1420.11 42.21 1422.87 42.12 1425.63 42.02 1428.38 41.92 1431.13 41.82 1433.88 41.72 1436.63 41.62 1439.38 41.52 1442.13 41.43 1444.88 41.33 1447.63 41.23 1450.38 41.13 1453.13 41.03 1455.88 40.93 1458.63 40.83 1461.38 40.73 1464.13 40.64 1466.88 40.54 1470.2 40.43 1473.65 40.31 1477.22 40.19 1480.9 40.07 1484.69 39.95 1488.57 39.83 1492.53 39.71 1496.57 39.59 1500.68 39.47 1504.85 39.35 1509.07 39.23 1513.34 39.11 1517.65 38.99 1521.96 38.87 1526.31 38.75 1530.66 38.63 1535.01 38.52 1539.36 38.4 1543.68 38.29 1548 38.18 1552.25 38.07 1556.5 37.96 1560.64 37.85 1564.79 37.75 1568.84 37.65 1572.82 37.55 1576.71 37.45 1580.51 37.36 1584.2 37.27 1587.78 37.18 1591.24 37.09 1594.58 37.01 1597.77 36.93 1600.83 36.86 1603.73 36.79 1606.46 36.72 1609.03 36.66 1611.42 36.6 1613.62 36.55 1615.63 36.5 1617.43 36.46 1619.01 36.42 1619.73 36.4 1620.39 36.4C1620.39 36.4 1620.99 36.37 1620.99 36.37L1621.53 36.37C1621.53 36.37 1622.01 36.35 1622.01 36.35L1622.43 36.35C1622.43 36.35 1622.79 36.33 1622.79 36.33L1623.08 36.33C1623.08 36.33 1623.31 36.32 1623.31 36.32L1623.48 36.32C1623.48 36.32 1623.58 36.32 1623.58 36.32L1623.58 36.32 1623.7 36.32C1623.7 36.32 1624.03 36.3 1624.03 36.3L1624.72 36.25 1627.04 35.86 1635.07 9.71 1626.52 4.8 1625.26 4.59 1624.78 4.54 1624.52 4.52 1624.36 4.52C1624.36 4.52 1624.25 4.5 1624.25 4.5L1624.17 4.5C1624.17 4.5 1624.11 4.5 1624.11 4.5L1624.06 4.5C1624.06 4.5 1624.02 4.5 1624.02 4.5L1623.98 4.5C1623.98 4.5 1623.96 4.5 1623.96 4.5L1623.64 4.5C1623.64 4.5 1623.19 4.47 1623.19 4.47L1622.58 4.44 1621.8 4.4 1620.86 4.36 1619.77 4.31 1618.53 4.25 1617.15 4.19 1615.64 4.12 1614 4.05 1612.23 3.97 1610.36 3.89 1608.37 3.8 1606.27 3.71 1604.08 3.61 1601.79 3.51 1599.41 3.41 1596.96 3.3 1594.43 3.19 1591.83 3.08 1589.17 2.97 1586.45 2.86 1583.67 2.74 1580.83 2.62 1577.99 2.5 1575.07 2.38 1572.15 2.26 1569.19 2.14 1566.22 2.02 1563.24 1.91 1560.25 1.8 1557.26 1.69 1554.27 1.58 1551.3 1.47 1548.33 1.36 1545.41 1.26 1542.48 1.16 1539.63 1.07 1536.78 0.98 1534.02 0.89 1531.26 0.8 1528.57 0.72 1525.95 0.65 1523.4 0.58 1520.92 0.52 1518.52 0.46 1516.19 0.41 1513.15 0.36 1510.14 0.31 1507.13 0.26 1504.07 0.21 1501.01 0.18 1498 0.15 1494.99 0.12 1491.94 0.09 1488.89 0.07 1485.88 0.05 1482.87 0.03 1479.83 0.01 1476.79 0.01C1476.79 0.01 1473.78 0.01 1473.78 0.01L1470.77 0.01C1470.77 0.01 1467.73 0.01 1467.73 0.01L1464.69 0.01C1464.69 0.01 1461.68 0.02 1461.68 0.02L1458.67 0.02C1458.67 0.02 1455.64 0.03 1455.64 0.03L1452.61 0.05 1449.6 0.05C1449.6 0.05 1446.59 0.08 1446.59 0.08L1443.56 0.08C1443.56 0.08 1440.53 0.12 1440.53 0.12L1437.52 0.14 1434.51 0.16 1431.5 0.18 1428.49 0.2 1425.48 0.22 1422.47 0.24 1419.46 0.26 1416.45 0.28 1413.44 0.3 1410.43 0.32 1407.42 0.34 1404.41 0.36 1401.4 0.38 1398.39 0.4 1395.41 0.42 1392.43 0.42C1392.43 0.42 1389.42 0.44 1389.42 0.44L1386.41 0.44C1386.41 0.44 1383.4 0.46 1383.4 0.46L1380.39 0.46C1380.39 0.46 1377.38 0.48 1377.38 0.48L1374.37 0.48C1374.37 0.48 1371.38 0.5 1371.38 0.5L1369.1 0.5C1369.1 0.5 1366.79 0.5 1366.79 0.5L1364.48 0.5C1364.48 0.5 1362.18 0.5 1362.18 0.5L1359.91 0.5C1359.91 0.5 1357.64 0.5 1357.64 0.5L1348.64 0.5C1348.64 0.5 1344.18 0.5 1344.18 0.5L1331.05 0.5C1331.05 0.5 1326.72 0.5 1326.72 0.5L1318.17 0.5C1318.17 0.5 1313.95 0.5 1313.95 0.5L1309.73 0.5C1309.73 0.5 1305.56 0.5 1305.56 0.5L1293.16 0.5C1293.16 0.5 1289.09 0.5 1289.09 0.5L1280.99 0.5C1280.99 0.5 1276.96 0.5 1276.96 0.5L1272.97 0.5C1272.97 0.5 1268.98 0.5 1268.98 0.5L1265.03 0.5C1265.03 0.5 1261.07 0.5 1261.07 0.5L1257.15 0.5C1257.15 0.5 1253.23 0.5 1253.23 0.5L1249.34 0.5C1249.34 0.5 1245.45 0.51 1245.45 0.51L1241.58 0.51C1241.58 0.51 1237.71 0.52 1237.71 0.52L1233.86 0.52C1233.86 0.52 1230.01 0.54 1230.01 0.54L1226.18 0.54C1226.18 0.54 1222.34 0.56 1222.34 0.56L1218.53 0.56C1218.53 0.56 1214.72 0.59 1214.72 0.59L1210.91 0.59C1210.91 0.59 1207.09 0.62 1207.09 0.62L1203.29 0.64 1199.5 0.66 1195.71 0.68 1191.91 0.7 1188.11 0.72 1184.32 0.74 1180.53 0.77 1176.73 0.79 1172.91 0.82 1169.11 0.85 1165.31 0.88 1161.49 0.91 1157.65 0.95 1153.82 0.99 1149.99 1.03 1146.14 1.07 1142.25 1.12 1138.38 1.17 1134.51 1.22 1130.62 1.27 1126.7 1.32 1122.78 1.37 1118.83 1.43 1114.88 1.49 1110.89 1.55 1106.91 1.61 1102.89 1.68 1098.87 1.75 1094.81 1.82 1090.74 1.89 1086.63 1.97 1082.52 2.05 1078.36 2.13 1074.21 2.21 1070 2.3 1065.79 2.39 1061.52 2.48 1057.26 2.58 1052.94 2.68 1048.62 2.78 1044.23 2.89 1039.85 3 1035.4 3.11 1030.95 3.22 1028.68 3.28 1026.43 3.34 1024.18 3.4 1021.92 3.46 1019.62 3.53 1017.33 3.59 1015.04 3.65 1012.74 3.71 1010.4 3.78 1008.07 3.85 1005.74 3.92 1003.4 3.99 1001.02 4.06 998.65 4.13 996.28 4.2 993.9 4.27 991.48 4.34 989.07 4.41 986.66 4.48 984.24 4.55 981.78 4.63 979.32 4.71 976.87 4.79 974.4 4.87 971.98 4.95 969.57 5.03 967.16 5.11 964.75 5.19 962.35 5.27 959.94 5.35 957.53 5.43 955.13 5.51 952.73 5.59 950.33 5.67 947.92 5.75 945.52 5.83 943.12 5.91 940.71 5.99 938.31 6.07 935.89 6.15 933.47 6.24 931.06 6.33 928.65 6.42 926.24 6.51 923.84 6.6 921.43 6.69 919.03 6.78 916.62 6.87 914.22 6.96 911.81 7.05 909.41 7.14 907 7.23 904.59 7.32 902.18 7.41 899.78 7.5 897.36 7.59 894.94 7.68 892.53 7.77 890.12 7.86 887.71 7.95 885.3 8.04 882.89 8.13 880.49 8.22 878.08 8.31 875.67 8.4 873.26 8.49 870.85 8.58 868.44 8.67 866.04 8.76 863.63 8.85 861.22 8.94 858.8 9.03 856.38 9.12 853.98 9.21 851.57 9.3 849.16 9.39 846.75 9.48 844.34 9.57 841.93 9.66 839.53 9.75 837.12 9.84 834.71 9.93 832.3 10.02 829.89 10.11 827.48 10.2 825.07 10.29 822.66 10.38 820.24 10.47 817.82 10.57 815.41 10.67 813 10.77 810.59 10.87 808.18 10.97 805.77 11.07 803.36 11.17 800.95 11.27 798.54 11.37 796.13 11.47 793.72 11.57 791.31 11.67 788.9 11.77 786.49 11.87 784.08 11.97 781.66 12.07 779.25 12.17 776.84 12.27 774.43 12.37 772.02 12.47 769.61 12.57 767.2 12.67 764.79 12.77 762.38 12.87 759.97 12.97 757.56 13.07 755.15 13.17 752.74 13.27 750.33 13.37 747.92 13.47 745.51 13.57 743.1 13.67 740.68 13.77 738.27 13.87 735.86 13.97 733.45 14.07 731.04 14.17 728.63 14.27 726.22 14.37 723.81 14.47 721.4 14.57 718.99 14.67 716.58 14.77 714.17 14.87 711.76 14.97 709.35 15.07 706.94 15.17 704.53 15.27 702.12 15.37 699.71 15.47 697.3 15.57 694.89 15.67 692.48 15.77 690.07 15.87 687.66 15.97 685.25 16.07 682.84 16.17 680.43 16.27 678.02 16.37 675.61 16.47 673.2 16.57 670.79 16.67 668.38 16.77 665.97 16.87 663.56 16.97 661.15 17.07 658.74 17.17 656.33 17.27 653.92 17.37 651.51 17.47 649.1 17.57 646.69 17.67 644.28 17.77 641.87 17.87 639.46 17.97 637.05 18.07 634.64 18.17 632.23 18.27 629.82 18.37 627.41 18.47 625 18.57 622.59 18.67 620.18 18.77 617.77 18.87 615.36 18.97 612.95 19.07 610.54 19.17 608.13 19.27 605.72 19.37 603.31 19.47 600.9 19.57 598.49 19.67 596.08 19.77 593.67 19.87 591.26 19.97 588.86 20.07 586.46 20.17 584.05 20.27 581.64 20.37 579.23 20.47 576.82 20.57 574.41 20.67 572 20.77 569.59 20.87 567.18 20.97 564.77 21.07 562.36 21.17 559.95 21.27 557.54 21.37 555.13 21.47 552.72 21.57 550.31 21.67 547.9 21.77 545.49 21.87 543.08 21.97 540.67 22.07 538.26 22.17 535.85 22.27 533.44 22.37 531.03 22.47 528.62 22.57 526.21 22.67 523.8 22.77 521.39 22.87 518.98 22.97 516.57 23.07 514.16 23.17 511.77 23.27 509.38 23.36 506.97 23.45 504.56 23.54 502.15 23.63 499.74 23.72 497.33 23.81 494.92 23.9 492.51 23.99 490.1 24.08 487.69 24.17 485.28 24.26 482.87 24.35 480.46 24.44 478.05 24.53 475.64 24.62 473.23 24.71 470.82 24.8 468.41 24.89 466 24.98 463.59 25.07 461.18 25.16 458.77 25.25 456.36 25.34 453.95 25.43 451.54 25.52 449.13 25.61 446.72 25.7 444.31 25.79 441.9 25.88 439.49 25.97 437.08 26.06 434.7 26.15 432.32 26.23 429.91 26.31 427.5 26.39 425.09 26.47 422.68 26.55 420.27 26.63 417.86 26.71 415.45 26.79 413.04 26.87 410.63 26.95 408.22 27.03 405.81 27.11 403.4 27.19 400.99 27.27 398.58 27.35 396.17 27.43 393.76 27.51 391.35 27.59 388.94 27.67 386.53 27.75 384.12 27.83 381.71 27.91 379.3 27.99 376.89 28.07 374.48 28.15 372.07 28.23 369.66 28.31 367.25 28.39 364.84 28.47 362.43 28.55 360.02 28.63 357.65 28.71 355.28 28.78 352.87 28.85 350.46 28.92 348.05 28.99 345.64 29.06 343.23 29.13 340.82 29.2 338.41 29.27 336 29.34 333.59 29.41 331.18 29.48 328.77 29.55 326.36 29.62 323.95 29.69 321.54 29.76 319.13 29.83 316.72 29.9 314.31 29.97 311.9 30.04 309.49 30.11 307.08 30.18 304.67 30.25 302.26 30.32 299.85 30.39 297.44 30.46 295.03 30.53 292.62 30.6 290.21 30.67 287.8 30.74 285.39 30.81 282.98 30.88 280.6 30.95 278.22 31.01 275.81 31.07 273.4 31.13 270.99 31.19 268.58 31.25 266.17 31.31 263.76 31.37 261.35 31.43 258.94 31.49 256.53 31.55 254.12 31.61 251.71 31.67 249.3 31.73 246.89 31.79 244.48 31.85 242.1 31.91 239.72 31.96 237.31 32.01 234.9 32.06 232.49 32.11 230.08 32.16 227.67 32.21 225.26 32.26 222.85 32.31 220.44 32.36 218.03 32.41 215.62 32.46 213.21 32.51 210.8 32.56 208.39 32.61 205.98 32.66 203.6 32.71 201.22 32.75 198.81 32.79 196.4 32.83 193.99 32.87 191.58 32.91 189.17 32.95 186.76 32.99 184.35 33.03 181.94 33.07 179.53 33.11 177.12 33.15 174.71 33.19 172.3 33.23 169.89 33.27 167.48 33.31 165.1 33.35 162.72 33.38 160.31 33.41 157.9 33.44 155.49 33.47 153.08 33.5 150.67 33.53 148.26 33.56 145.85 33.59 143.44 33.62 141.03 33.65 138.62 33.68 136.21 33.71 133.8 33.74 131.39 33.77 128.98 33.8 126.61 33.83 124.24 33.85 121.83 33.87 119.42 33.89 117.01 33.91 114.61 33.93 112.2 33.95 109.79 33.97 107.38 33.99 104.97 34.01 102.56 34.03 100.15 34.05 97.74 34.07 95.33 34.09 92.92 34.11 90.51 34.13 88.14 34.15 85.77 34.15C85.77 34.15 83.36 34.16 83.36 34.16L80.95 34.16C80.95 34.16 78.55 34.17 78.55 34.17L76.14 34.17C76.14 34.17 73.73 34.19 73.73 34.19L71.32 34.19C71.32 34.19 68.92 34.2 68.92 34.2L66.51 34.2C66.51 34.2 64.1 34.21 64.1 34.21L61.69 34.21C61.69 34.21 59.28 34.23 59.28 34.23L56.87 34.23C56.87 34.23 54.47 34.24 54.47 34.24L52.06 34.24C52.06 34.24 49.65 34.26 49.65 34.26L48.25 34.26C48.25 34.26 47.67 34.27 47.67 34.27L47.12 34.27C47.12 34.27 46.44 34.31 46.44 34.31L45.8 34.36 39.92 36.19 39.92 36.19C39.92 36.19 39.92 36.19 39.92 36.19L39.92 36.19C39.92 36.19 39.92 36.19 39.92 36.19L39.92 36.19 39.05 36.71 36.81 38.49 34.03 42.15 32.25 48.51 33.45 55.21 36.11 59.35 38.4 61.41 40.06 62.45 41.24 63.03 42.1 63.37 42.75 63.59 43.25 63.74 43.65 63.84 43.98 63.92 44.25 63.98 44.48 64.03 44.59 64.05 44.6 64.05C44.6 64.05 44.6 64.05 44.6 64.05L44.6 64.05C44.6 64.05 44.6 64.05 44.6 64.05L44.6 64.05C44.6 64.05 44.6 64.05 44.6 64.05L45.95 64.23 46.35 64.26 46.88 64.29 47.39 64.31 47.93 64.33 48.52 64.35 49.17 64.37 49.89 64.39 50.66 64.41 51.5 64.43 52.4 64.45 53.35 64.47 54.35 64.49 55.4 64.51 56.49 64.53 57.62 64.55 58.8 64.57 61.22 64.6 63.75 64.62 66.34 64.62C66.34 64.62 68.97 64.64 68.97 64.64L71.61 64.64C71.61 64.64 74.22 64.62 74.22 64.62L76.79 64.59 79.28 64.54 81.66 64.48 83.92 64.4 86.05 64.29 88.02 64.16 90.62 63.94 93.12 63.72 95.62 63.51 98.21 63.29 100.8 63.04 103.3 62.79 105.8 62.54 108.37 62.29 110.93 62.02 113.43 61.75 115.93 61.48 118.47 61.21 121.01 60.92 123.5 60.63 125.99 60.35 128.52 60.06 131.04 59.76 133.53 59.46 136.02 59.16 138.52 58.86 141.02 58.56 143.51 58.26 146 57.96 148.47 57.66 150.94 57.37 153.43 57.08 155.92 56.79 158.41 56.5 160.9 56.21 163.39 55.92 165.88 55.63 168.28 55.35 170.68 55.1 173.18 54.84 175.68 54.58 178.18 54.32 180.67 54.06 183.17 53.8 185.67 53.54 187.99 53.29 190.31 53.11 192.81 52.91 195.31 52.71 197.81 52.51 200.31 52.31 202.81 52.11 205.31 51.91 207.65 51.72 211.59 51.47 215.63 51.22 219.67 50.97 223.66 50.72 227.65 50.49 231.69 50.26 235.73 50.03 239.73 49.8 243.73 49.6 247.77 49.39 251.81 49.18 255.82 48.98 259.83 48.79 263.88 48.6 267.92 48.41 271.93 48.22 275.95 48.05 279.99 47.88 284.03 47.71 288.05 47.54 292.07 47.38 296.12 47.22 300.16 47.06 304.19 46.9 308.21 46.75 312.26 46.6 316.3 46.45 320.34 46.3 324.39 46.15 328.43 46 332.47 45.85 336.51 45.7 340.55 45.56 344.6 45.42 348.65 45.28 352.69 45.14 356.73 45 360.78 44.86 364.83 44.72 368.89 44.58 372.95 44.43 377 44.28 381.04 44.13 385.09 43.98 389.14 43.83 393.18 43.68 397.22 43.53 401.27 43.38 403.78 43.29 406.28 43.2 408.78 43.11 411.28 43.01 413.78 42.92 416.28 42.83 418.78 42.74 421.26 42.65 423.73 42.57 426.23 42.48 428.73 42.39 431.23 42.3 433.73 42.22 436.23 42.13 438.73 42.04 441.2 41.96 443.68 41.89 446.18 41.81 448.68 41.74 451.18 41.66 453.68 41.59 456.18 41.51 458.68 41.44 461.16 41.37 463.63 41.3 466.13 41.23 468.63 41.16 471.13 41.09 473.63 41.02 476.13 40.95 478.63 40.88 481.11 40.81 483.58 40.75 486.08 40.69 488.58 40.63 491.08 40.57 493.58 40.51 496.08 40.45 498.58 40.39 501.05 40.33 503.53 40.28 506.03 40.23 508.53 40.18 511.03 40.13 513.53 40.08 516.03 40.03 518.53 39.98 521.01 39.93 523.49 39.89 525.99 39.85 528.49 39.81 530.99 39.77 533.49 39.73 535.99 39.69 538.49 39.65 540.96 39.61 543.43 39.58 545.93 39.55 548.43 39.52 550.93 39.49 553.43 39.46 555.92 39.43 558.42 39.4 560.89 39.37 563.37 39.35 565.87 39.33 568.37 39.31 570.87 39.29 573.37 39.27 575.87 39.25 578.37 39.23 580.85 39.2 583.33 39.18 585.83 39.16 588.33 39.14 590.83 39.12 593.33 39.1 595.83 39.08 598.33 39.06 600.81 39.04 603.28 39.04C603.28 39.04 605.78 39.02 605.78 39.02L608.28 39.02C608.28 39.02 610.77 39 610.77 39L613.27 39C613.27 39 615.77 38.98 615.77 38.98L618.27 38.98C618.27 38.98 620.74 38.96 620.74 38.96L623.21 38.96C623.21 38.96 625.71 38.96 625.71 38.96L628.21 38.96C628.21 38.96 630.71 38.96 630.71 38.96L633.21 38.96C633.21 38.96 635.7 38.96 635.7 38.96L638.2 38.96C638.2 38.96 640.68 38.96 640.68 38.96L643.16 38.96C643.16 38.96 645.66 38.96 645.66 38.96L648.15 38.96C648.15 38.96 650.65 38.96 650.65 38.96L653.15 38.96C653.15 38.96 655.65 38.96 655.65 38.96L658.15 38.96C658.15 38.96 660.63 38.96 660.63 38.96L663.1 38.96C663.1 38.96 665.6 38.98 665.6 38.98L668.09 38.98C668.09 38.98 670.59 39 670.59 39L673.08 39C673.08 39 675.58 39.02 675.58 39.02L678.07 39.02C678.07 39.02 680.55 39.04 680.55 39.04L683.03 39.04C683.03 39.04 685.52 39.07 685.52 39.07L688.01 39.09 690.51 39.11 693 39.13 695.5 39.13C695.5 39.13 697.99 39.16 697.99 39.16L700.47 39.18 702.95 39.2 705.45 39.22 707.94 39.24 710.43 39.26 712.92 39.28 715.41 39.3 717.9 39.32 720.38 39.34 722.86 39.37 725.35 39.39 727.84 39.42 730.33 39.45 732.82 39.47 735.31 39.5 737.8 39.53 740.28 39.55 742.76 39.58 745.25 39.61 747.74 39.64 750.23 39.67 752.72 39.7 755.21 39.73 757.7 39.76 760.17 39.79 762.64 39.83 765.13 39.87 767.62 39.91 770.11 39.95 772.6 39.99 775.09 40.03 777.58 40.07 780.07 40.11 782.56 40.15 785.05 40.19 787.54 40.23 790.03 40.27 792.52 40.31 795.01 40.35 797.5 40.39 799.97 40.43 802.44 40.48 804.93 40.53 807.42 40.58 809.91 40.63 812.4 40.68 814.89 40.73 817.38 40.78 819.87 40.83 822.36 40.88 824.85 40.93 827.34 40.98 829.83 41.03 832.32 41.08 834.81 41.13 837.3 41.18 839.77 41.23 842.24 41.29 844.73 41.34 847.22 41.39 849.71 41.45 852.2 41.5 854.69 41.55 857.18 41.61 859.67 41.66 862.16 41.72 864.65 41.77 867.14 41.82 869.63 41.88 872.12 41.93 874.61 41.98 877.1 42.04 879.57 42.09 882.05 42.15 884.54 42.21 887.03 42.27 889.52 42.33 892.01 42.39 894.5 42.45 896.99 42.51 899.48 42.57 901.97 42.63 904.46 42.69 906.95 42.75 909.44 42.81 911.93 42.87 914.42 42.93 916.91 42.99 919.39 43.05 921.87 43.12 924.36 43.19 926.85 43.26 929.34 43.33 931.83 43.4 934.32 43.47 936.81 43.54 939.3 43.61 941.79 43.68 944.28 43.75 946.77 43.82 949.26 43.89 951.75 43.96 954.24 44.03 956.73 44.1 959.21 44.17 961.69 44.24 964.18 44.31 966.67 44.38 969.16 44.45 971.65 44.52 974.14 44.59 976.63 44.66 979.12 44.73 981.61 44.8 984.1 44.87 986.59 44.94 989.08 45.01 991.57 45.08 994.06 45.15 996.55 45.22 999.03 45.29 1001.52 45.36 1004.01 45.43 1006.5 45.5 1008.99 45.57 1011.48 45.64 1013.97 45.71 1016.46 45.78 1018.95 45.85 1021.44 45.92 1023.93 45.99 1026.42 46.06 1028.91 46.13 1031.4 46.2 1033.89 46.27 1036.38 46.34 1038.87 46.41 1041.36 46.48 1043.85 46.56 1046.34 46.63 1048.83 46.7 1051.32 46.78 1053.81 46.85 1056.3 46.92 1058.79 47 1061.28 47.07 1063.77 47.14 1066.26 47.21 1068.75 47.29 1071.24 47.36 1073.73 47.43 1076.22 47.51 1078.71 47.58 1081.2 47.66 1083.7 47.73 1086.19 47.81 1088.68 47.88 1091.17 47.96 1093.66 48.04 1096.15 48.11 1098.65 48.19 1101.14 48.26 1103.63 48.34 1106.13 48.42 1108.62 48.49 1111.11 48.57 1113.6 48.64 1116.09 48.72 1118.59 48.8 1121.09 48.87 1123.59 48.94 1126.09 49.01 1128.58 49.08 1131.08 49.15 1133.58 49.22 1136.08 49.29 1138.58 49.36 1141.07 49.43 1143.57 49.5 1146.07 49.58 1148.57 49.65 1151.07 49.72 1153.56 49.79 1156.06 49.86 1158.56 49.93 1161.06 50 1163.56 50.07 1166.05 50.14 1168.55 50.21 1171.05 50.28 1173.54 50.35 1176.04 50.43 1178.54 50.5 1181.04 50.57 1183.53 50.64 1186.03 50.71 1188.53 50.78 1191.03 50.85 1193.52 50.92 1196.02 50.99 1198.53 51.06 1201.04 51.13 1203.54 51.2 1206.04 51.27 1208.54 51.34 1211.04 51.41 1213.54 51.48 1216.04 51.55 1218.54 51.62 1221.04 51.69 1223.54 51.76 1226.04 51.83 1228.54 51.9 1231.04 51.97 1233.54 52.04 1236.04 52.11 1238.54 52.18 1241.04 52.25 1243.54 52.32 1246.04 52.39 1248.54 52.46 1251.04 52.53 1253.54 52.6 1256.04 52.67 1258.54 52.74 1261.04 52.81 1263.54 52.88 1266.04 52.95 1268.54 53.02 1271.04 53.09 1273.54 53.16 1276.04 53.23 1278.57 53.3 1281.1 53.36 1283.6 53.42 1286.1 53.48 1288.6 53.54 1291.1 53.6 1293.6 53.66 1296.1 53.72 1298.6 53.78 1301.1 53.84 1303.6 53.9 1306.1 53.96 1308.6 54.02 1311.1 54.08 1313.6 54.14 1316.1 54.2 1318.6 54.26 1321.1 54.32 1323.6 54.38 1326.1 54.44 1328.6 54.5 1331.1 54.56 1333.6 54.62 1336.1 54.68 1338.6 54.74 1341.1 54.8 1343.6 54.86 1346.1 54.92 1348.6 54.98 1351.1 55.04 1353.6 55.1 1356.1 55.16 1358.64 55.22 1361.47 55.27 1364.27 55.32 1367.07 55.37 1369.87 55.42 1372.66 55.47 1375.46 55.52 1378.26 55.57 1381.1 55.62 1383.94 55.65 1386.74 55.68 1389.54 55.71 1392.34 55.74 1395.13 55.77 1397.93 55.8 1400.73 55.83 1403.57 55.86 1406.4 55.88 1409.2 55.9 1411.99 55.92 1414.79 55.94 1417.59 55.96 1420.38 55.98 1423.18 56 1426.01 56.02 1428.84 56.02C1428.84 56.02 1431.64 56.02 1431.64 56.02L1434.43 56.02C1434.43 56.02 1437.23 56.02 1437.23 56.02L1440.03 56.02C1440.03 56.02 1442.82 56.02 1442.82 56.02L1445.62 56.02C1445.62 56.02 1448.44 56.02 1448.44 56.02L1451.26 56.02C1451.26 56.02 1454.06 56.01 1454.06 56.01L1456.86 56.01C1456.86 56.01 1459.66 56 1459.66 56L1462.46 56C1462.46 56 1465.26 55.99 1465.26 55.99L1468.06 55.99C1468.06 55.99 1470.88 55.98 1470.88 55.98L1473.7 55.98C1473.7 55.98 1476.5 55.95 1476.5 55.95L1479.29 55.95C1479.29 55.95 1482.09 55.92 1482.09 55.92L1484.89 55.92C1484.89 55.92 1487.69 55.89 1487.69 55.89L1490.49 55.89C1490.49 55.89 1493.3 55.86 1493.3 55.86L1496.11 55.84 1498.91 55.82 1501.71 55.8 1504.51 55.78 1507.31 55.76 1510.11 55.74 1512.91 55.72 1515.71 55.7 1518.5 55.68 1521.3 55.66 1524.09 55.64 1526.89 55.62 1529.69 55.6 1532.49 55.58 1535.29 55.56 1538.09 55.54 1540.89 55.52 1543.69 55.5 1546.49 55.48 1549.29 55.46 1552.09 55.44 1554.88 55.42 1557.68 55.4 1560.47 55.38 1563.27 55.36 1566.07 55.34 1568.87 55.32 1571.67 55.3 1574.47 55.28 1577.26 55.26 1580.06 55.24 1582.83 55.22 1585.6 55.22C1585.6 55.22 1588.39 55.2 1588.39 55.2L1591.19 55.2C1591.19 55.2 1593.99 55.18 1593.99 55.18L1596.79 55.18C1596.79 55.18 1599.59 55.16 1599.59 55.16L1602.39 55.16C1602.39 55.16 1605.19 55.14 1605.19 55.14L1607.99 55.14C1607.99 55.14 1610.79 55.12 1610.79 55.12L1613.59 55.12C1613.59 55.12 1616.39 55.1 1616.39 55.1L1619.19 55.1C1619.19 55.1 1621.99 55.08 1621.99 55.08L1624.79 55.08C1624.79 55.08 1627.58 55.06 1627.58 55.06L1629.47 55.06C1629.47 55.06 1631.53 55.04 1631.53 55.04L1633.72 55.02 1636.02 55 1638.43 54.97 1640.94 54.94 1643.54 54.9 1646.22 54.86 1648.98 54.82 1651.8 54.77 1654.67 54.72 1657.59 54.67 1660.56 54.62 1663.53 54.57 1666.54 54.51 1669.54 54.45 1672.54 54.39 1675.54 54.34 1678.51 54.28 1681.47 54.23 1684.36 54.18 1687.24 54.13 1690.01 54.08 1692.78 54.03 1695.44 53.99 1698.01 53.95 1700.48 53.92 1702.85 53.89 1705.1 53.87 1707.22 53.85 1709.21 53.85C1709.21 53.85 1711.04 53.83 1711.04 53.83L1712.71 53.83C1712.71 53.83 1714.21 53.84 1714.21 53.84L1715.5 53.86 1716.58 53.88 1717.42 53.91 1717.91 53.93 1718.11 53.95 1717.61 53.89 1716.8 53.74 1716.1 53.56 1713.2 52.35 1713.2 52.35C1713.2 52.35 1713.2 52.35 1713.2 52.35L1713.2 52.35C1713.2 52.35 1713.2 52.35 1713.2 52.35L1713.2 52.35C1713.2 52.35 1712.88 52.17 1712.88 52.17L1712.17 51.72 1711.36 51.13 1710.45 50.34 1709.45 49.29 1708.4 47.91 1707.39 46.13 1706.58 43.95 1706.3 42.74 1706.3 42.74C1706.3 42.74 1706.3 42.74 1706.3 42.74L1706.3 42.74C1706.3 42.74 1733.81 37.62 1733.81 37.62L1733.81 37.58C1733.81 37.58 1706.3 42.71 1706.3 42.71L1706.3 42.71C1706.3 42.71 1706.3 42.71 1706.3 42.71L1706.3 42.71C1706.3 42.71 1706.3 42.72 1706.3 42.72L1706.19 42.08 1706.07 40.77 1706.07 39.46C1706.07 39.46 1706.2 38.18 1706.2 38.18L1706.43 36.95 1706.75 35.81 1707.14 34.76 1707.58 33.82 1708.04 32.98 1708.51 32.24 1708.98 31.6 1709.44 31.04 1709.88 30.55 1710.3 30.12 1710.7 29.75 1711.08 29.43 1711.26 29.28 1711.26 29.28C1711.26 29.28 1711.26 29.28 1711.26 29.28L1711.26 29.28C1711.26 29.28 1711.26 29.28 1711.26 29.28L1711.26 29.28C1711.26 29.28 1711.26 29.28 1711.26 29.28L1711.26 29.28C1711.26 29.28 1711.26 29.28 1711.26 29.28L1711.26 29.28C1711.26 29.28 1711.26 29.28 1711.26 29.28L1714.67 27.27 1715.5 26.96 1716.43 26.69 1716.79 26.61 1716.87 26.59 1716.78 26.61 1716.54 26.64 1716.19 26.69 1715.74 26.74 1715.19 26.8 1714.55 26.87 1713.83 26.94 1713.04 27.01 1710.26 27.26 1707.46 27.51 1704.67 27.76 1701.87 28.01 1699.07 28.26 1696.28 28.51 1693.48 28.76 1690.72 29.01 1687.96 29.24 1685.16 29.47 1682.36 29.7 1679.57 29.93 1676.77 30.16 1673.97 30.39 1671.17 30.62 1668.41 30.85 1665.65 31.07 1662.85 31.29 1660.05 31.51 1657.25 31.73 1654.45 31.95 1651.65 32.17 1648.85 32.39 1646.08 32.61 1643.31 32.82 1640.51 33.03 1637.71 33.24 1634.91 33.45 1632.11 33.66 1629.31 33.87 1626.51 34.08 1623.74 34.28 1620.97 34.47 1618.17 34.67 1615.37 34.86 1612.57 35.06 1609.77 35.25 1606.97 35.45 1604.17 35.64 1601.4 35.83 1598.63 36.01 1595.83 36.19 1593.03 36.37 1590.23 36.55 1587.43 36.73 1584.63 36.91 1581.83 37.09 1579.06 37.27 1576.28 37.44 1573.48 37.61 1570.68 37.78 1567.88 37.95 1565.08 38.12 1562.28 38.29 1559.48 38.46 1556.7 38.63 1553.92 38.79 1551.12 38.95 1548.32 39.11 1545.52 39.27 1542.72 39.43 1539.92 39.59 1537.12 39.75 1534.34 39.91 1531.56 40.06 1528.76 40.21 1525.96 40.36 1523.16 40.51 1520.36 40.66 1517.56 40.81 1514.76 40.96 1511.98 41.11 1509.2 41.25 1506.4 41.39 1503.6 41.53 1500.8 41.67 1497.99 41.81 1495.19 41.95 1492.39 42.09 1489.61 42.23 1486.83 42.36 1484.02 42.5 1481.22 42.63 1478.41 42.76 1475.61 42.9 1472.8 43.03 1469.99 43.16 1467.21 43.29 1464.42 43.41 1461.61 43.54 1458.81 43.67 1456 43.79 1453.19 43.92 1450.38 44.05 1447.57 44.17 1444.78 44.3 1441.99 44.42 1439.18 44.54 1436.37 44.66 1433.56 44.78 1430.75 44.9 1427.94 45.02 1425.13 45.14 1422.34 45.26 1419.55 45.37 1416.74 45.48 1413.93 45.59 1411.12 45.7 1408.31 45.81 1405.5 45.92 1402.69 46.03 1399.9 46.14 1397.11 46.25 1394.3 46.36 1391.49 46.46 1388.68 46.57 1385.87 46.68 1383.06 46.79 1380.25 46.9 1377.45 47 1374.66 47.1 1371.85 47.2 1369.04 47.3 1366.23 47.4 1363.42 47.5 1360.61 47.6 1357.8 47.7 1355.01 47.8 1352.21 47.89 1349.4 47.99 1346.59 48.08 1343.78 48.17 1340.97 48.27 1338.16 48.36 1335.35 48.46 1332.55 48.55 1329.75 48.64 1326.94 48.73 1324.13 48.82 1321.32 48.91 1318.51 49 1315.7 49.09 1312.89 49.18 1310.09 49.27 1307.29 49.36 1304.48 49.45 1301.67 49.54 1298.86 49.63 1296.05 49.72 1293.24 49.81 1290.43 49.9 1287.62 49.99 1284.81 50.08 1282 50.17 1279.19 50.26 1276.38 50.35 1273.57 50.44 1270.76 50.53 1267.95 50.62 1265.15 50.71 1262.35 50.79 1259.54 50.87 1256.73 50.95 1253.92 51.03 1251.11 51.11 1248.3 51.19 1245.49 51.27 1242.68 51.35 1239.87 51.43 1237.06 51.51 1234.25 51.59 1231.44 51.67 1228.63 51.75 1225.82 51.83 1223.01 51.91 1220.2 51.99 1217.39 52.07 1214.58 52.15 1211.77 52.23 1208.96 52.31 1206.15 52.39 1203.34 52.47 1200.53 52.55 1197.72 52.63 1194.91 52.71 1192.1 52.79 1189.29 52.87 1186.48 52.95 1183.67 53.03 1180.86 53.11 1178.05 53.19 1175.22 53.27 1172.39 53.36 1169.58 53.45 1166.77 53.54 1163.96 53.63 1161.15 53.72 1158.34 53.81 1155.53 53.9 1152.72 53.99 1149.91 54.08 1147.1 54.17 1144.29 54.26 1141.48 54.35 1138.67 54.44 1135.86 54.53 1133.05 54.62 1130.24 54.71 1127.43 54.8 1124.62 54.89 1121.81 54.98 1119 55.07 1116.19 55.16 1113.38 55.25 1110.57 55.34 1107.76 55.43 1104.95 55.52 1102.14 55.61 1099.33 55.7 1096.52 55.79 1093.71 55.88 1090.9 55.97 1088.09 56.06 1085.28 56.15 1082.47 56.24 1079.66 56.33 1076.85 56.42 1074.04 56.51 1071.23 56.6 1068.42 56.69 1065.61 56.78 1062.8 56.87 1059.99 56.96 1057.18 57.05 1054.37 57.14 1051.56 57.23 1048.75 57.32 1045.94 57.41 1043.13 57.5 1040.32 57.59 1037.51 57.68 1034.7 57.77 1031.89 57.86 1029.08 57.95 1026.27 58.04 1023.46 58.13 1020.65 58.22 1017.84 58.31 1015.03 58.4 1012.22 58.49 1009.41 58.58 1006.6 58.67 1003.79 58.76 1000.98 58.85 998.17 58.94 995.25 59.03 992.34 59.17 989.53 59.3 986.72 59.43 983.91 59.56 981.1 59.69 978.29 59.82 975.48 59.95 972.67 60.08 969.86 60.21 967.05 60.34 964.24 60.47 961.43 60.6 958.62 60.73 955.81 60.86 953 60.99 950.19 61.12 947.38 61.25 944.57 61.38 941.76 61.51 938.95 61.64 936.14 61.77 933.33 61.9 930.52 62.03 927.71 62.16 924.9 62.29 922.09 62.42 919.28 62.55 916.47 62.68 913.66 62.81 910.85 62.94 908.04 63.07 905.23 63.2 902.42 63.33 899.61 63.46 896.8 63.59 893.99 63.72 891.18 63.85 888.37 63.98 885.56 64.11 882.75 64.24 879.94 64.37 877.13 64.5 874.32 64.63 871.51 64.76 868.7 64.89 865.89 65.02 863.08 65.15 860.27 65.28 857.46 65.41 854.65 65.54 851.84 65.67 849.03 65.8 846.22 65.93 843.41 66.06 840.6 66.19 837.79 66.32 834.98 66.45 832.17 66.58 829.36 66.71 826.55 66.84 823.74 66.97 820.93 67.1 818.12 67.23 815.1 67.37 812.08 67.6 809.27 67.82 806.47 68.04 803.66 68.26 800.85 68.48 798.04 68.7 795.24 68.92 792.43 69.14 789.62 69.36 786.82 69.58 784.01 69.8 781.2 70.02 778.4 70.24 775.59 70.46 772.78 70.68 769.98 70.9 767.17 71.12 764.36 71.34 761.55 71.56 758.75 71.78 755.94 72 753.13 72.22 750.33 72.44 747.52 72.66 744.71 72.88 741.91 73.1 739.1 73.32 736.29 73.54 733.48 73.76 730.68 73.98 727.87 74.2 725.06 74.42 722.26 74.64 719.45 74.86 716.64 75.08 713.84 75.3 711.03 75.52 708.22 75.74 705.41 75.96 702.61 76.18 699.8 76.4 696.99 76.62 694.18 76.84 691.38 77.06 688.57 77.28 685.77 77.5 682.96 77.72 680.15 77.94 677.34 78.16 674.54 78.38 671.73 78.6 668.92 78.82 666.11 79.04 663.31 79.26 660.5 79.48 657.7 79.7 654.89 79.92 652.08 80.14 649.27 80.36 646.47 80.58 643.66 80.8 640.85 81.02 638.04 81.24 635.08 81.47 631.42 81.83 627.88 82.18 624.34 82.53 620.78 82.88 617.22 83.24 613.69 83.6 610.16 83.96 606.61 84.33 603.06 84.7 599.53 85.07 596 85.44 592.46 85.82 588.92 86.2 585.39 86.58 581.87 86.96 578.34 87.34 574.81 87.73 571.29 88.11 567.77 88.49 564.25 88.88 560.73 89.26 557.21 89.64 553.69 90.03 550.18 90.41 546.67 90.79 543.15 91.17 539.63 91.55 536.11 91.93 532.59 92.31 529.07 92.69 525.55 93.07 522.06 93.45 518.57 93.81 515.06 94.18 511.55 94.55 508.04 94.92 504.52 95.29 501.01 95.66 497.5 96.03 494.04 96.39 490.57 96.73 487.06 97.07 483.55 97.41 480.04 97.75 476.52 98.09 473.01 98.43 469.5 98.77 466.03 99.11 462.56 99.42 459.04 99.74 455.53 100.06 452.05 100.37 448.57 100.66 445.05 100.96 441.53 101.26 438.06 101.55 434.59 101.82 431.07 102.09 427.55 102.36 424.08 102.63 420.6 102.87 417.08 103.12 413.56 103.37 410.09 103.61 406.62 103.82 403.1 104.04 399.58 104.26 396.11 104.47 392.64 104.65 389.11 104.83 385.58 105.01 382.11 105.19 378.64 105.34 375.1 105.49 371.57 105.64 368.11 105.79 364.64 105.9 361.1 106.01 357.56 106.12 354.1 106.23 350.63 106.3 347.08 106.37 343.54 106.44 340.07 106.51 336.59 106.54 333.04 106.57 329.49 106.61 326.03 106.64 322.56 106.64C322.56 106.64 319 106.62 319 106.62L315.44 106.62C315.44 106.62 311.97 106.6 311.97 106.6L308.5 106.54 304.94 106.48 301.37 106.42 297.78 106.36 295.94 106.34 293.91 106.34C293.91 106.34 291.83 106.39 291.83 106.39L289.7 106.44 287.52 106.5 285.34 106.55 283.1 106.59 280.96 106.63 278.82 106.63C278.82 106.63 276.88 106.61 276.88 106.61L272.87 106.42 271.43 106.29 270.09 106.12 269.03 105.93 268.34 105.77 268.2 105.73 268.16 105.69 269 106.19 269.63 106.69 270.33 107.37 271.08 108.32 271.83 109.6 272.38 110.99 272.71 112.45 272.8 113.92 272.71 115.1 272.52 116.02 272.29 116.72 272.1 117.15 271.77 117.72 271.43 118.19 271.23 118.42 271.15 118.5 271.17 118.48 271.36 118.34 271.68 118.13 272.1 117.87 272.67 117.56 273.34 117.21 274.11 116.85 275 116.46 275.98 116.06 277.04 115.65 278.2 115.23 279.44 114.81 280.75 114.39 282.14 113.96 283.59 113.53 285.11 113.11 286.7 112.69 288.35 112.27 290.05 111.86 291.77 111.46 295.5 110.64 299.37 109.85 303.43 109.08 307.67 108.33 309.82 107.97 312 107.61 314.24 107.26 316.49 106.91 318.79 106.57 321.09 106.23 323.43 105.9 325.78 105.57 328.17 105.25 330.56 104.93 332.98 104.63 335.4 104.32 337.85 104.03 340.3 103.74 342.77 103.46 345.23 103.18 347.7 102.91 350.21 102.64 352.72 102.37 355.18 102.1 357.63 101.86 360.14 101.61 362.65 101.36 365.11 101.12 367.53 100.9 370 100.67 372.47 100.44 374.91 100.22 377.31 100.01 379.72 99.8 382.09 99.6 384.46 99.4 386.78 99.21 389.11 99.02 391.39 98.84 393.66 98.66 398.1 98.31 402.4 97.98 406.57 97.67 410.58 97.38 414.41 97.1 418.07 96.84 421.53 96.59 424.77 96.36 426.32 96.25 427.81 96.14 429.24 96.03 430.61 95.93 431.92 95.83 433.16 95.74 434.35 95.65 435.47 95.56 436.53 95.47 437.53 95.39 438.46 95.3 439.29 95.22C446.44 94.55 451.69 88.2 451.02 81.05 450.35 73.9 444 68.65 436.85 69.32L436.08 69.39 435.26 69.46 434.35 69.54 433.37 69.62 432.3 69.7 431.16 69.79 429.95 69.88 428.67 69.97 427.32 70.07 425.91 70.17 424.44 70.28 422.91 70.39 419.67 70.62 416.21 70.87 412.54 71.13 408.69 71.41 404.65 71.7 400.45 72.01 396.11 72.33 391.63 72.67 389.32 72.85 387.02 73.03 384.67 73.22 382.32 73.41 379.92 73.61 377.52 73.81 375.08 74.02 372.63 74.23 370.13 74.46 367.66 74.68 365.19 74.9 362.68 75.13 360.13 75.38 357.62 75.63 355.12 75.87 352.56 76.12 349.99 76.39 347.48 76.66 344.97 76.93 342.41 77.2 339.87 77.49 337.33 77.78 334.81 78.08 332.29 78.38 329.79 78.69 327.29 79 324.82 79.32 322.34 79.64 319.9 79.98 317.45 80.32 315.05 80.67 312.65 81.02 310.29 81.38 307.93 81.74 305.62 82.12 303.28 82.51 298.8 83.3 294.42 84.12 290.17 84.98 286.13 85.86 284.09 86.33 282.13 86.8 280.22 87.28 278.35 87.77 276.51 88.28 274.72 88.8 272.97 89.33 271.25 89.88 269.59 90.45 267.97 91.04 266.38 91.65 264.84 92.28 263.33 92.94 261.84 93.64 260.4 94.37 258.99 95.15 257.59 96.01 256.23 96.93 254.89 97.93 253.55 99.07 252.27 100.33 251.02 101.76 249.81 103.44 248.78 105.24 247.97 107.05 247.3 109.06 246.85 111.21 246.66 113.56 246.83 116.13 247.39 118.62 248.31 120.98 249.58 123.16 251 124.94 252.5 126.41 254.06 127.63 255.96 128.8 258.36 129.95 261.1 130.89 263.68 131.53 266.19 131.99 268.71 132.31 271.38 132.54 276.09 132.76 278.72 132.78 281.15 132.8 283.58 132.77 285.92 132.73 288.22 132.68 290.39 132.63 292.41 132.59 294.27 132.56 295.91 132.56C295.91 132.56 297.41 132.57 297.41 132.57L300.96 132.64 304.53 132.71 308.1 132.78 311.76 132.85 315.41 132.87 318.97 132.89 322.53 132.91 326.17 132.93 329.8 132.9 333.35 132.87 336.9 132.84 340.52 132.81 344.14 132.74 347.69 132.67 351.23 132.6 354.85 132.53 358.47 132.42 362.01 132.31 365.55 132.2 369.16 132.09 372.77 131.94 376.3 131.79 379.83 131.64 383.42 131.49 387.01 131.31 390.54 131.13 394.07 130.95 397.66 130.77 401.24 130.55 404.77 130.34 408.3 130.13 411.88 129.91 415.46 129.66 418.98 129.42 422.5 129.18 426.07 128.93 429.64 128.66 433.16 128.39 436.68 128.12 440.25 127.85 443.81 127.55 447.33 127.26 450.85 126.97 454.41 126.67 457.97 126.35 461.49 126.04 465.01 125.73 468.57 125.41 472.13 125.07 475.64 124.73 479.15 124.39 482.67 124.05 486.19 123.71 489.7 123.37 493.21 123.03 496.77 122.69 500.33 122.32 503.85 121.96 507.36 121.6 510.87 121.24 514.38 120.88 517.9 120.52 521.41 120.16 524.95 119.79 528.49 119.41 532.01 119.03 535.53 118.65 539.05 118.27 542.57 117.89 546.09 117.51 549.61 117.13 553.13 116.75 556.65 116.37 560.17 115.99 563.69 115.61 567.21 115.23 570.73 114.85 574.25 114.47 577.77 114.09 581.28 113.71 584.8 113.34 588.32 112.97 591.84 112.59 595.35 112.22 598.87 111.85 602.4 111.48 605.93 111.11 609.44 110.74 612.96 110.38 616.49 110.02 620.02 109.66 623.53 109.3 627.04 108.96 630.58 108.61 634.12 108.26 637.54 107.92 640.19 107.72 642.99 107.5 645.8 107.28 648.6 107.06 651.41 106.84 654.22 106.62 657.03 106.4 659.84 106.18 662.64 105.96 665.45 105.74 668.26 105.52 671.07 105.3 673.88 105.08 676.69 104.86 679.49 104.64 682.3 104.42 685.11 104.2 687.92 103.98 690.73 103.76 693.53 103.54 696.34 103.32 699.15 103.1 701.96 102.88 704.77 102.66 707.57 102.44 710.38 102.22 713.19 102 716 101.78 718.81 101.56 721.62 101.34 724.42 101.12 727.23 100.9 730.04 100.68 732.85 100.46 735.66 100.24 738.46 100.02 741.27 99.8 744.08 99.58 746.89 99.36 749.7 99.14 752.5 98.92 755.31 98.7 758.12 98.48 760.93 98.26 763.74 98.04 766.54 97.82 769.35 97.6 772.16 97.38 774.97 97.16 777.78 96.94 780.59 96.72 783.39 96.5 786.2 96.28 789 96.06 791.81 95.84 794.62 95.62 797.43 95.4 800.24 95.18 803.04 94.96 805.85 94.74 808.66 94.52 811.47 94.3 814.28 94.08 816.87 93.88 819.47 93.77 822.28 93.64 825.09 93.51 827.9 93.38 830.71 93.25 833.52 93.12 836.33 92.99 839.14 92.86 841.95 92.73 844.76 92.6 847.57 92.47 850.38 92.34 853.19 92.21 856 92.08 858.81 91.95 861.62 91.82 864.43 91.69 867.24 91.56 870.05 91.43 872.86 91.3 875.67 91.17 878.48 91.04 881.29 90.91 884.1 90.78 886.91 90.65 889.72 90.52 892.53 90.39 895.34 90.26 898.15 90.13 900.96 90 903.77 89.87 906.58 89.74 909.39 89.61 912.2 89.48 915.01 89.35 917.82 89.22 920.63 89.09 923.44 88.96 926.25 88.83 929.06 88.7 931.87 88.57 934.68 88.44 937.49 88.31 940.3 88.18 943.11 88.05 945.92 87.92 948.73 87.79 951.54 87.66 954.35 87.53 957.16 87.4 959.97 87.27 962.78 87.14 965.59 87.01 968.4 86.88 971.21 86.75 974.02 86.62 976.83 86.49 979.64 86.36 982.45 86.23 985.26 86.1 988.07 85.97 990.88 85.84 993.69 85.71 996.4 85.59 999.11 85.51 1001.92 85.43 1004.73 85.35 1007.54 85.26 1010.35 85.18 1013.16 85.1 1015.97 85.02 1018.78 84.94 1021.59 84.85 1024.4 84.77 1027.21 84.69 1030.02 84.61 1032.83 84.52 1035.64 84.44 1038.45 84.36 1041.26 84.28 1044.07 84.2 1046.88 84.11 1049.69 84.03 1052.5 83.95 1055.31 83.87 1058.12 83.78 1060.93 83.7 1063.74 83.62 1066.55 83.54 1069.36 83.46 1072.17 83.37 1074.98 83.29 1077.79 83.21 1080.6 83.13 1083.41 83.04 1086.22 82.96 1089.03 82.88 1091.84 82.8 1094.65 82.72 1097.46 82.63 1100.27 82.55 1103.08 82.47 1105.89 82.39 1108.7 82.3 1111.51 82.22 1114.32 82.14 1117.13 82.06 1119.94 81.98 1122.75 81.89 1125.56 81.81 1128.37 81.73 1131.18 81.65 1133.99 81.56 1136.8 81.48 1139.61 81.4 1142.42 81.32 1145.23 81.24 1148.04 81.15 1150.85 81.07 1153.66 80.99 1156.47 80.91 1159.28 80.82 1162.09 80.74 1164.9 80.66 1167.71 80.58 1170.52 80.5 1173.33 80.41 1176.13 80.33 1178.92 80.25 1181.73 80.17 1184.54 80.09 1187.35 80.01 1190.16 79.93 1192.97 79.85 1195.78 79.77 1198.59 79.69 1201.4 79.61 1204.21 79.53 1207.02 79.45 1209.83 79.37 1212.64 79.29 1215.45 79.21 1218.26 79.13 1221.08 79.05 1223.9 78.97 1226.71 78.89 1229.52 78.81 1232.33 78.73 1235.14 78.65 1237.95 78.57 1240.76 78.49 1243.57 78.41 1246.38 78.33 1249.19 78.25 1252 78.17 1254.81 78.09 1257.62 78.01 1260.43 77.93 1263.24 77.85 1266.06 77.77 1268.88 77.69 1271.69 77.61 1274.5 77.53 1277.31 77.45 1280.12 77.37 1282.93 77.29 1285.74 77.21 1288.55 77.13 1291.36 77.05 1294.17 76.97 1296.98 76.89 1299.79 76.81 1302.6 76.73 1305.41 76.65 1308.22 76.57 1311.04 76.48 1313.86 76.39 1316.67 76.3 1319.48 76.21 1322.29 76.12 1325.1 76.03 1327.91 75.94 1330.72 75.85 1333.54 75.76 1336.36 75.67 1339.17 75.58 1341.98 75.49 1344.79 75.4 1347.6 75.31 1350.41 75.22 1353.22 75.13 1356.04 75.04 1358.86 74.94 1361.67 74.84 1364.48 74.74 1367.29 74.64 1370.1 74.54 1372.91 74.44 1375.72 74.34 1378.54 74.24 1381.36 74.14 1384.17 74.04 1386.98 73.94 1389.79 73.84 1392.6 73.74 1395.41 73.64 1398.22 73.54 1401.04 73.44 1403.86 73.33 1406.67 73.22 1409.48 73.11 1412.29 73 1415.1 72.89 1417.91 72.78 1420.72 72.67 1423.54 72.56 1426.36 72.44 1429.17 72.33 1431.98 72.22 1434.79 72.11 1437.6 72 1440.41 71.89 1443.22 71.77 1446.04 71.66 1448.86 71.54 1451.67 71.42 1454.48 71.3 1457.29 71.18 1460.1 71.06 1462.91 70.94 1465.72 70.82 1468.55 70.7 1471.38 70.57 1474.18 70.44 1476.99 70.31 1479.8 70.18 1482.6 70.05 1485.41 69.92 1488.22 69.79 1491.05 69.66 1493.87 69.52 1496.68 69.38 1499.48 69.24 1502.29 69.1 1505.09 68.96 1507.89 68.82 1510.7 68.68 1513.53 68.54 1516.35 68.39 1519.15 68.24 1521.96 68.09 1524.76 67.94 1527.56 67.79 1530.36 67.64 1533.17 67.49 1536 67.34 1538.83 67.18 1541.63 67.02 1544.43 66.86 1547.23 66.7 1550.03 66.54 1552.83 66.38 1555.63 66.22 1558.46 66.06 1561.29 65.89 1564.09 65.72 1566.89 65.55 1569.69 65.38 1572.49 65.21 1575.29 65.04 1578.09 64.87 1580.92 64.7 1583.75 64.52 1586.55 64.34 1589.35 64.16 1592.15 63.98 1594.95 63.8 1597.75 63.62 1600.55 63.44 1603.38 63.26 1606.21 63.07 1609.01 62.88 1611.81 62.69 1614.61 62.5 1617.41 62.31 1620.21 62.12 1623.01 61.93 1625.84 61.74 1628.67 61.53 1631.47 61.33 1634.27 61.13 1637.07 60.92 1639.87 60.72 1642.67 60.51 1645.47 60.31 1648.3 60.1 1651.13 59.88 1653.93 59.66 1656.73 59.44 1659.53 59.22 1662.33 59 1665.13 58.78 1667.93 58.56 1670.76 58.34 1673.59 58.11 1676.39 57.88 1679.19 57.65 1681.99 57.42 1684.79 57.19 1687.58 56.96 1690.38 56.73 1693.21 56.5 1696.04 56.25 1698.83 56 1701.63 55.75 1704.43 55.5 1707.22 55.25 1710.02 55 1712.81 54.75 1715.62 54.5 1716.56 54.41 1717.42 54.33 1718.21 54.25 1718.95 54.17 1719.65 54.09 1720.3 54.01 1720.93 53.92 1721.58 53.82 1722.27 53.7 1723.11 53.52 1724.39 53.16 1725.45 52.76 1728.85 50.75 1728.85 50.75C1728.85 50.75 1728.85 50.75 1728.85 50.75L1728.85 50.75C1728.85 50.75 1728.85 50.75 1728.85 50.75L1728.85 50.75C1728.85 50.75 1728.85 50.75 1728.85 50.75L1728.85 50.75C1728.85 50.75 1728.85 50.75 1728.85 50.75L1728.85 50.75C1728.85 50.75 1729.03 50.6 1729.03 50.6L1729.41 50.27 1729.81 49.89 1730.24 49.46 1730.69 48.96 1731.16 48.39 1731.64 47.74 1732.12 47 1732.58 46.16 1733.02 45.22 1733.41 44.17 1733.73 43.02 1733.96 41.79 1734.08 40.5 1734.08 39.18C1734.08 39.18 1733.96 37.86 1733.96 37.86L1733.86 37.22 1733.86 37.22C1733.86 37.22 1733.86 37.21 1733.86 37.21L1733.86 37.21C1733.86 37.21 1706.35 42.33 1706.35 42.33L1706.35 42.37C1706.35 42.37 1733.86 37.24 1733.86 37.24L1733.86 37.24C1733.86 37.24 1733.86 37.23 1733.86 37.23L1733.86 37.23C1733.86 37.23 1733.58 36 1733.58 36L1732.76 33.81 1731.75 32.02 1730.69 30.63 1729.68 29.57 1728.75 28.77 1727.93 28.17 1727.21 27.71 1726.88 27.52 1726.88 27.52C1726.88 27.52 1726.88 27.52 1726.88 27.52L1726.88 27.52C1726.88 27.52 1726.88 27.52 1726.88 27.52L1726.88 27.52C1726.88 27.52 1726.88 27.52 1726.88 27.52L1723.98 26.31 1723.04 26.06 1721.87 25.84 1720.9 25.72 1719.85 25.63 1718.67 25.57 1717.42 25.53 1716.07 25.5 1714.56 25.48 1712.91 25.48C1712.91 25.48 1711.12 25.46 1711.12 25.46L1709.19 25.46C1709.19 25.46 1707.13 25.47 1707.13 25.47L1704.95 25.47C1704.95 25.47 1702.65 25.5 1702.65 25.5L1700.24 25.52 1697.73 25.55 1695.13 25.59 1692.44 25.63 1689.66 25.67 1686.88 25.71 1683.98 25.76 1681.08 25.81 1678.11 25.86 1675.14 25.91 1672.14 25.96 1669.14 26.01 1666.14 26.06 1663.14 26.11 1660.18 26.16 1657.22 26.21 1654.31 26.26 1651.45 26.31 1648.65 26.35 1645.91 26.39 1643.25 26.43 1640.68 26.46 1638.2 26.49 1635.83 26.51 1633.59 26.53 1631.46 26.55 1629.48 26.55C1629.48 26.55 1627.61 26.55 1627.61 26.55L1624.81 26.55C1624.81 26.55 1622.01 26.56 1622.01 26.56L1619.21 26.56C1619.21 26.56 1616.41 26.57 1616.41 26.57L1613.61 26.57C1613.61 26.57 1610.81 26.58 1610.81 26.58L1608.02 26.58C1608.02 26.58 1605.22 26.59 1605.22 26.59L1602.42 26.59C1602.42 26.59 1599.62 26.6 1599.62 26.6L1596.82 26.6C1596.82 26.6 1594.03 26.61 1594.03 26.61L1591.23 26.61C1591.23 26.61 1588.43 26.62 1588.43 26.62L1585.63 26.62C1585.63 26.62 1582.81 26.63 1582.81 26.63L1579.99 26.65 1577.19 26.67 1574.39 26.69 1571.59 26.71 1568.79 26.73 1565.99 26.75 1563.19 26.77 1560.39 26.79 1557.6 26.81 1554.8 26.83 1552.01 26.85 1549.21 26.87 1546.41 26.89 1543.61 26.91 1540.81 26.93 1538.02 26.95 1535.22 26.97 1532.42 26.99 1529.62 27.01 1526.82 27.03 1524.02 27.05 1521.22 27.07 1518.42 27.09 1515.63 27.11 1512.83 27.13 1510.03 27.15 1507.23 27.17 1504.43 27.19 1501.63 27.21 1498.83 27.23 1496.03 27.25 1493.25 27.27 1490.47 27.27C1490.47 27.27 1487.67 27.29 1487.67 27.29L1484.88 27.29C1484.88 27.29 1482.08 27.31 1482.08 27.31L1479.28 27.31C1479.28 27.31 1476.48 27.33 1476.48 27.33L1473.68 27.33C1473.68 27.33 1470.9 27.35 1470.9 27.35L1468.12 27.35C1468.12 27.35 1465.32 27.35 1465.32 27.35L1462.52 27.35C1462.52 27.35 1459.72 27.35 1459.72 27.35L1456.92 27.35C1456.92 27.35 1454.12 27.35 1454.12 27.35L1451.32 27.35C1451.32 27.35 1448.55 27.35 1448.55 27.35L1445.78 27.35C1445.78 27.35 1442.98 27.33 1442.98 27.33L1440.19 27.33C1440.19 27.33 1437.39 27.32 1437.39 27.32L1434.59 27.32C1434.59 27.32 1431.79 27.3 1431.79 27.3L1429 27.3C1429 27.3 1426.23 27.28 1426.23 27.28L1423.46 27.26 1420.66 27.24 1417.86 27.22 1415.07 27.2 1412.27 27.18 1409.47 27.16 1406.67 27.14 1403.91 27.12 1401.15 27.08 1398.36 27.05 1395.56 27.02 1392.76 26.98 1389.96 26.95 1387.16 26.92 1384.37 26.88 1381.62 26.85 1378.87 26.8 1376.07 26.75 1373.27 26.7 1370.48 26.65 1367.68 26.6 1364.89 26.55 1362.09 26.5 1359.33 26.45 1356.87 26.39 1354.37 26.33 1351.87 26.27 1349.37 26.21 1346.87 26.15 1344.37 26.09 1341.87 26.03 1339.37 25.97 1336.87 25.91 1334.37 25.85 1331.87 25.79 1329.37 25.73 1326.87 25.67 1324.37 25.61 1321.87 25.55 1319.37 25.49 1316.87 25.43 1314.37 25.37 1311.87 25.31 1309.37 25.25 1306.87 25.19 1304.37 25.13 1301.87 25.07 1299.37 25.01 1296.87 24.95 1294.37 24.89 1291.87 24.83 1289.37 24.77 1286.87 24.71 1284.37 24.65 1281.87 24.59 1279.4 24.53 1276.93 24.46 1274.43 24.39 1271.93 24.32 1269.43 24.25 1266.93 24.18 1264.43 24.11 1261.93 24.04 1259.43 23.97 1256.93 23.9 1254.43 23.83 1251.93 23.76 1249.43 23.69 1246.93 23.62 1244.43 23.55 1241.93 23.48 1239.43 23.41 1236.93 23.34 1234.43 23.27 1231.93 23.2 1229.43 23.13 1226.93 23.06 1224.43 22.99 1221.93 22.92 1219.43 22.85 1216.93 22.78 1214.43 22.71 1211.93 22.64 1209.43 22.57 1206.93 22.5 1204.43 22.43 1201.93 22.36 1199.45 22.29 1196.97 22.21 1194.47 22.13 1191.98 22.05 1189.48 21.97 1186.98 21.89 1184.49 21.81 1181.99 21.73 1179.49 21.65 1176.99 21.57 1174.5 21.49 1172 21.41 1169.5 21.33 1167 21.25 1164.51 21.17 1162.01 21.09 1159.51 21.01 1157.02 20.93 1154.52 20.85 1152.02 20.77 1149.52 20.69 1147.02 20.61 1144.53 20.53 1142.03 20.45 1139.53 20.37 1137.04 20.29 1134.54 20.21 1132.04 20.13 1129.55 20.05 1127.05 19.97 1124.55 19.89 1122.05 19.81 1119.56 19.73 1117.07 19.65 1114.58 19.57 1112.09 19.49 1109.6 19.41 1107.11 19.33 1104.62 19.25 1102.12 19.17 1099.63 19.09 1097.14 19.01 1094.65 18.93 1092.16 18.85 1089.67 18.77 1087.17 18.69 1084.68 18.61 1082.19 18.53 1079.69 18.45 1077.2 18.37 1074.71 18.29 1072.22 18.21 1069.73 18.13 1067.24 18.05 1064.75 17.97 1062.26 17.89 1059.77 17.81 1057.28 17.73 1054.79 17.65 1052.3 17.57 1049.81 17.49 1047.32 17.41 1044.83 17.33 1042.34 17.25 1039.84 17.17 1037.34 17.09 1034.85 17.01 1032.36 16.93 1029.87 16.86 1027.38 16.78 1024.89 16.7 1022.4 16.62 1019.91 16.54 1017.42 16.47 1014.93 16.39 1012.44 16.31 1009.95 16.23 1007.46 16.16 1004.97 16.08 1002.48 16 999.98 15.92 997.48 15.85 994.99 15.78 992.5 15.71 990.01 15.64 987.52 15.57 985.03 15.5 982.54 15.43 980.05 15.36 977.56 15.29 975.07 15.22 972.58 15.15 970.09 15.08 967.6 15.01 965.11 14.94 962.62 14.87 960.12 14.8 957.61 14.73 955.12 14.66 952.63 14.59 950.14 14.52 947.65 14.45 945.16 14.38 942.67 14.31 940.18 14.24 937.69 14.17 935.2 14.1 932.71 14.03 930.22 13.96 927.73 13.89 925.24 13.82 922.75 13.75 920.24 13.68 917.73 13.61 915.24 13.55 912.75 13.48 910.26 13.42 907.77 13.36 905.28 13.29 902.79 13.23 900.3 13.17 897.81 13.1 895.32 13.04 892.83 12.98 890.34 12.92 887.85 12.85 885.36 12.79 882.87 12.72 880.36 12.66 877.85 12.6 875.36 12.54 872.87 12.48 870.38 12.42 867.89 12.36 865.4 12.3 862.91 12.24 860.42 12.18 857.93 12.12 855.44 12.06 852.95 12 850.46 11.94 847.97 11.88 845.48 11.82 842.99 11.76 840.48 11.7 837.97 11.65 835.48 11.6 832.99 11.55 830.5 11.5 828.01 11.45 825.52 11.4 823.03 11.35 820.54 11.3 818.05 11.25 815.56 11.2 813.07 11.15 810.58 11.1 808.09 11.05 805.6 11 803.11 10.95 800.6 10.9 798.08 10.86 795.59 10.82 793.1 10.78 790.61 10.74 788.12 10.7 785.63 10.66 783.14 10.62 780.65 10.58 778.16 10.54 775.67 10.5 773.18 10.46 770.69 10.42 768.2 10.38 765.71 10.34 763.22 10.3 760.71 10.26 758.2 10.22 755.71 10.19 753.22 10.16 750.73 10.12 748.24 10.09 745.75 10.06 743.26 10.02 740.75 9.99 738.24 9.96 735.75 9.93 733.26 9.9 730.77 9.87 728.28 9.84 725.79 9.81 723.3 9.78 720.79 9.75 718.28 9.73 715.78 9.71 713.29 9.69 710.8 9.67 708.31 9.65 705.82 9.63 703.33 9.61 700.82 9.59 698.31 9.57 695.82 9.55 693.33 9.53 690.83 9.51 688.34 9.49 685.84 9.47 683.35 9.45 680.84 9.43 678.33 9.43C678.33 9.43 675.84 9.41 675.84 9.41L673.34 9.41C673.34 9.41 670.85 9.39 670.85 9.39L668.35 9.39C668.35 9.39 665.86 9.37 665.86 9.37L663.36 9.37C663.36 9.37 660.85 9.35 660.85 9.35L658.34 9.35C658.34 9.35 655.84 9.35 655.84 9.35L653.35 9.35C653.35 9.35 650.85 9.34 650.85 9.34L648.35 9.34C648.35 9.34 645.85 9.33 645.85 9.33L643.36 9.33C643.36 9.33 640.85 9.32 640.85 9.32L630.85 9.32C630.85 9.32 628.35 9.32 628.35 9.32L620.84 9.32C620.84 9.32 618.32 9.32 618.32 9.32L615.82 9.32C615.82 9.32 613.32 9.34 613.32 9.34L610.82 9.34C610.82 9.34 608.32 9.36 608.32 9.36L605.82 9.36C605.82 9.36 603.32 9.37 603.32 9.37L600.8 9.37C600.8 9.37 598.28 9.39 598.28 9.39L595.78 9.41 593.28 9.43 590.78 9.43C590.78 9.43 588.28 9.46 588.28 9.46L585.78 9.48 583.28 9.48C583.28 9.48 580.76 9.51 580.76 9.51L578.24 9.53 575.74 9.55 573.24 9.57 570.74 9.59 568.24 9.61 565.74 9.63 563.24 9.65 560.72 9.67 558.2 9.7 555.7 9.73 553.2 9.76 550.7 9.79 548.2 9.82 545.7 9.85 543.2 9.88 540.68 9.91 538.16 9.95 535.66 9.99 533.16 10.03 530.66 10.07 528.16 10.11 525.66 10.15 523.16 10.19 520.64 10.23 518.12 10.28 515.62 10.32 513.12 10.37 510.62 10.42 508.12 10.47 505.62 10.52 503.12 10.57 500.6 10.62 498.07 10.67 495.57 10.73 493.07 10.78 490.57 10.83 488.07 10.89 485.57 10.94 483.07 10.99 480.54 11.05 478.01 11.11 475.51 11.18 473.01 11.24 470.51 11.3 468.01 11.37 465.51 11.43 463.01 11.49 460.48 11.56 457.95 11.63 455.45 11.7 452.95 11.77 450.45 11.84 447.95 11.91 445.45 11.98 442.95 12.05 440.42 12.12 437.89 12.2 435.39 12.28 432.89 12.36 430.39 12.44 427.89 12.52 425.39 12.6 422.89 12.68 420.36 12.76 417.83 12.85 415.33 12.94 412.83 13.03 410.33 13.12 407.83 13.21 405.33 13.3 402.82 13.39 400.32 13.48 396.28 13.63 392.24 13.78 388.19 13.93 384.15 14.08 380.11 14.23 376.06 14.38 372.01 14.53 367.98 14.68 363.95 14.82 359.9 14.96 355.86 15.1 351.82 15.24 347.77 15.38 343.72 15.52 339.68 15.66 335.62 15.8 331.56 15.94 327.51 16.08 323.47 16.22 319.43 16.36 315.38 16.5 311.34 16.64 307.29 16.78 303.22 16.92 299.15 17.08 295.1 17.23 291.06 17.39 286.99 17.54 282.92 17.71 278.88 17.88 274.83 18.05 270.75 18.22 266.68 18.4 262.64 18.58 258.6 18.76 254.52 18.94 250.44 19.14 246.4 19.34 242.36 19.54 238.27 19.74 234.19 19.97 230.15 20.19 226.11 20.41 222.02 20.64 217.93 20.89 213.89 21.14 209.85 21.39 205.71 21.64 203.05 21.85 200.55 22.05 198.05 22.25 195.55 22.45 193.05 22.65 190.55 22.85 188.05 23.05 185.37 23.26 182.7 23.53 180.2 23.79 177.7 24.05 175.2 24.31 172.7 24.57 170.2 24.83 167.7 25.09 165.11 25.36 162.52 25.66 160.03 25.95 157.54 26.24 155.05 26.53 152.56 26.82 150.07 27.11 147.58 27.4 145.07 27.69 142.56 27.99 140.07 28.29 137.58 28.59 135.1 28.89 132.62 29.18 130.13 29.47 127.64 29.76 125.18 30.05 122.72 30.33 120.22 30.61 117.73 30.89 115.28 31.17 112.83 31.43 110.34 31.7 107.85 31.97 105.43 32.23 103 32.47 100.5 32.71 98 32.95 95.59 33.18 93.18 33.39 90.68 33.6 88.18 33.81 85.78 34.01 84.42 34.1 82.76 34.18 80.83 34.25 78.71 34.3 76.43 34.34 74.03 34.36 71.56 34.38 69.05 34.38C69.05 34.38 66.53 34.38 66.53 34.38L64.03 34.36 61.6 34.34 59.25 34.31 58.14 34.29 57.05 34.27 56 34.25 55 34.23 54.05 34.21 53.15 34.19 52.31 34.17 51.54 34.15 50.84 34.13 50.2 34.11 49.65 34.09 49.19 34.07 48.84 34.05 48.63 34.05C48.63 34.05 48.63 34.04 48.63 34.04L48.67 34.04C48.67 34.04 50.02 34.22 50.02 34.22L50.01 34.22C50.01 34.22 50.01 34.22 50.01 34.22L50 34.22C50 34.22 50 34.22 50 34.22L50 34.22C50 34.22 50.09 34.24 50.09 34.24L50.31 34.28 50.58 34.34 50.9 34.42 51.29 34.52 51.79 34.67 52.43 34.89 53.29 35.23 54.46 35.8 56.11 36.84 58.4 38.9 61.06 43.04 62.26 49.74 60.48 56.1 57.7 59.76 55.46 61.54 54.6 62.06 54.6 62.06C54.6 62.06 54.6 62.06 54.6 62.06L54.6 62.06C54.6 62.06 54.6 62.06 54.6 62.06L48.72 63.89 48.32 63.92 48.11 63.92C48.11 63.92 48.26 63.92 48.26 63.92L48.6 63.92C48.6 63.92 49.1 63.92 49.1 63.92L49.79 63.92C49.79 63.92 52.2 63.92 52.2 63.92L54.6 63.92C54.6 63.92 57.01 63.92 57.01 63.92L59.42 63.92C59.42 63.92 61.83 63.92 61.83 63.92L64.24 63.92C64.24 63.92 66.65 63.92 66.65 63.92L69.05 63.92C69.05 63.92 71.46 63.92 71.46 63.92L73.87 63.92C73.87 63.92 76.27 63.92 76.27 63.92L78.68 63.92C78.68 63.92 81.09 63.92 81.09 63.92L83.5 63.92C83.5 63.92 85.91 63.92 85.91 63.92L88.35 63.92C88.35 63.92 90.8 63.9 90.8 63.9L93.21 63.88 95.62 63.86 98.03 63.84 100.44 63.82 102.85 63.8 105.26 63.78 107.67 63.76 110.08 63.74 112.49 63.72 114.9 63.7 117.31 63.68 119.72 63.66 122.13 63.64 124.54 63.62 126.98 63.6 129.42 63.57 131.83 63.54 134.24 63.51 136.65 63.48 139.06 63.45 141.47 63.42 143.88 63.39 146.29 63.36 148.7 63.33 151.11 63.3 153.52 63.27 155.93 63.24 158.34 63.21 160.75 63.18 163.16 63.15 165.6 63.12 168.04 63.08 170.45 63.04 172.86 63 175.27 62.96 177.68 62.92 180.09 62.88 182.5 62.84 184.91 62.8 187.32 62.76 189.73 62.72 192.14 62.68 194.55 62.64 196.96 62.6 199.37 62.56 201.78 62.52 204.22 62.48 206.66 62.43 209.07 62.38 211.48 62.33 213.89 62.28 216.3 62.23 218.71 62.18 221.12 62.13 223.53 62.08 225.94 62.03 228.35 61.98 230.76 61.93 233.17 61.88 235.58 61.83 237.99 61.78 240.4 61.73 242.84 61.68 245.28 61.62 247.69 61.56 250.1 61.5 252.51 61.45 254.92 61.39 257.33 61.33 259.74 61.27 262.15 61.21 264.56 61.16 266.97 61.1 269.38 61.04 271.79 60.98 274.2 60.92 276.61 60.87 279.02 60.81 281.46 60.75 283.9 60.68 286.31 60.61 288.72 60.54 291.13 60.47 293.54 60.4 295.95 60.33 298.36 60.26 300.77 60.19 303.18 60.12 305.59 60.05 308 59.98 310.41 59.91 312.82 59.84 315.23 59.77 317.64 59.7 320.05 59.63 322.46 59.56 324.87 59.49 327.28 59.42 329.69 59.35 332.1 59.28 334.51 59.21 336.92 59.14 339.33 59.07 341.74 59 344.15 58.93 346.56 58.86 348.97 58.79 351.38 58.72 353.79 58.65 356.2 58.58 358.65 58.51 361.1 58.43 363.51 58.35 365.92 58.27 368.33 58.19 370.74 58.11 373.15 58.03 375.56 57.95 377.97 57.87 380.38 57.79 382.79 57.71 385.2 57.63 387.61 57.55 390.02 57.47 392.43 57.39 394.84 57.31 397.25 57.23 399.66 57.15 402.07 57.07 404.48 56.99 406.89 56.91 409.3 56.83 411.71 56.75 414.12 56.67 416.53 56.59 418.94 56.51 421.35 56.43 423.76 56.35 426.17 56.27 428.58 56.19 430.99 56.11 433.4 56.03 435.84 55.95 438.28 55.86 440.69 55.77 443.1 55.68 445.51 55.59 447.92 55.5 450.33 55.41 452.74 55.32 455.15 55.23 457.56 55.14 459.97 55.05 462.38 54.96 464.79 54.87 467.2 54.78 469.61 54.69 472.02 54.6 474.43 54.51 476.84 54.42 479.25 54.33 481.66 54.24 484.07 54.15 486.48 54.06 488.89 53.97 491.3 53.88 493.71 53.79 496.12 53.7 498.53 53.61 500.94 53.52 503.35 53.43 505.76 53.34 508.17 53.25 510.58 53.16 513.01 53.07 515.44 52.98 517.85 52.89 520.26 52.79 522.67 52.7 525.08 52.61 527.49 52.52 529.9 52.42 532.31 52.33 534.72 52.24 537.13 52.15 539.54 52.06 541.95 51.96 544.36 51.87 546.77 51.78 549.18 51.69 551.59 51.59 554 51.5 556.41 51.41 558.82 51.32 561.23 51.23 563.64 51.13 566.05 51.04 568.46 50.95 570.87 50.86 573.28 50.77 575.69 50.67 578.1 50.58 580.51 50.49 582.92 50.4 585.33 50.3 587.74 50.21 590.16 50.12 592.58 50.02 594.99 49.92 597.4 49.82 599.81 49.72 602.22 49.62 604.63 49.52 607.04 49.42 609.45 49.32 611.86 49.22 614.27 49.12 616.68 49.02 619.09 48.92 621.5 48.82 623.91 48.72 626.32 48.62 628.73 48.52 631.14 48.42 633.55 48.32 635.96 48.22 638.37 48.12 640.78 48.02 643.19 47.92 645.6 47.82 648.01 47.72 650.42 47.62 652.83 47.52 655.24 47.42 657.65 47.32 660.06 47.22 662.47 47.12 664.88 47.02 667.29 46.92 669.7 46.82 672.11 46.72 674.52 46.62 676.93 46.52 679.34 46.42 681.75 46.32 684.16 46.22 686.57 46.12 688.98 46.02 691.39 45.92 693.8 45.82 696.21 45.72 698.62 45.62 701.03 45.52 703.44 45.42 705.85 45.32 708.26 45.22 710.67 45.12 713.08 45.02 715.49 44.92 717.9 44.82 720.31 44.72 722.72 44.62 725.13 44.52 727.54 44.42 729.95 44.32 732.36 44.22 734.77 44.12 737.18 44.02 739.59 43.92 742 43.82 744.41 43.72 746.81 43.62 749.22 43.52 751.63 43.42 754.04 43.32 756.45 43.22 758.86 43.12 761.27 43.03 763.68 42.93 766.09 42.83 768.5 42.73 770.91 42.63 773.32 42.53 775.73 42.43 778.14 42.33 780.55 42.23 782.95 42.13 785.35 42.04 787.76 41.95 790.17 41.86 792.58 41.77 794.99 41.68 797.4 41.59 799.81 41.5 802.22 41.41 804.63 41.32 807.04 41.23 809.45 41.14 811.86 41.05 814.27 40.96 816.68 40.87 819.09 40.78 821.49 40.69 823.89 40.6 826.3 40.51 828.71 40.42 831.12 40.33 833.53 40.24 835.94 40.15 838.35 40.06 840.76 39.97 843.17 39.88 845.58 39.79 847.99 39.7 850.4 39.61 852.81 39.52 855.22 39.43 857.63 39.34 860.03 39.25 862.43 39.16 864.84 39.07 867.25 38.98 869.66 38.89 872.07 38.8 874.47 38.71 876.88 38.62 879.29 38.53 881.69 38.44 884.1 38.35 886.51 38.26 888.92 38.17 891.33 38.08 893.74 37.99 896.15 37.9 898.54 37.81 900.93 37.73 903.33 37.65 905.74 37.57 908.15 37.49 910.56 37.41 912.96 37.33 915.37 37.25 917.78 37.17 920.18 37.09 922.59 37.01 924.99 36.93 927.4 36.85 929.8 36.77 932.21 36.69 934.62 36.61 937.01 36.53 939.4 36.45 941.8 36.37 944.2 36.29 946.61 36.21 949.01 36.13 951.41 36.05 953.81 35.97 956.22 35.89 958.63 35.81 961.03 35.73 963.44 35.65 965.85 35.57 968.25 35.49 970.65 35.41 973.06 35.33 975.45 35.25 977.89 35.18 980.35 35.11 982.81 35.04 985.26 34.97 987.66 34.9 990.07 34.83 992.48 34.76 994.88 34.69 997.24 34.62 999.61 34.55 1001.98 34.48 1004.34 34.41 1006.66 34.35 1008.99 34.29 1011.32 34.22 1013.64 34.16 1015.92 34.1 1018.21 34.04 1020.5 33.98 1022.79 33.92 1025.04 33.86 1027.29 33.8 1029.54 33.74 1031.78 33.68 1036.22 33.57 1040.66 33.46 1045.03 33.36 1049.4 33.26 1053.7 33.17 1058 33.08 1062.25 32.99 1066.5 32.9 1070.69 32.82 1074.88 32.74 1079.02 32.66 1083.16 32.58 1087.25 32.51 1091.34 32.44 1095.38 32.37 1099.42 32.3 1103.42 32.24 1107.42 32.18 1111.39 32.12 1115.36 32.06 1119.29 32.01 1123.22 31.96 1127.12 31.91 1131.02 31.86 1134.88 31.82 1138.75 31.78 1142.62 31.74 1146.48 31.7 1150.29 31.67 1154.12 31.64 1157.95 31.61 1161.77 31.58 1165.55 31.56 1169.35 31.53 1173.15 31.5 1176.94 31.47 1180.72 31.45 1184.51 31.43 1188.3 31.41 1192.08 31.39 1195.86 31.39C1195.86 31.39 1199.65 31.36 1199.65 31.36L1203.44 31.34 1207.22 31.34C1207.22 31.34 1211.02 31.32 1211.02 31.32L1214.83 31.32C1214.83 31.32 1218.64 31.3 1218.64 31.3L1222.44 31.3C1222.44 31.3 1226.26 31.28 1226.26 31.28L1230.08 31.28C1230.08 31.28 1233.92 31.28 1233.92 31.28L1237.76 31.28C1237.76 31.28 1241.63 31.28 1241.63 31.28L1245.49 31.28C1245.49 31.28 1249.38 31.28 1249.38 31.28L1265.05 31.28C1265.05 31.28 1269 31.28 1269 31.28L1272.98 31.28C1272.98 31.28 1276.97 31.28 1276.97 31.28L1281 31.28C1281 31.28 1285.02 31.28 1285.02 31.28L1289.09 31.28C1289.09 31.28 1293.16 31.28 1293.16 31.28L1297.27 31.28C1297.27 31.28 1301.38 31.29 1301.38 31.29L1305.54 31.29C1305.54 31.29 1309.7 31.3 1309.7 31.3L1313.92 31.3C1313.92 31.3 1318.14 31.31 1318.14 31.31L1322.41 31.31C1322.41 31.31 1326.68 31.32 1326.68 31.32L1331.02 31.32C1331.02 31.32 1335.35 31.33 1335.35 31.33L1339.75 31.33C1339.75 31.33 1344.15 31.34 1344.15 31.34L1348.61 31.34C1348.61 31.34 1353.07 31.34 1353.07 31.34L1355.34 31.34C1355.34 31.34 1357.61 31.34 1357.61 31.34L1359.88 31.34C1359.88 31.34 1362.15 31.34 1362.15 31.34L1366.77 31.34C1366.77 31.34 1369.08 31.34 1369.08 31.34L1371.41 31.34C1371.41 31.34 1374.44 31.34 1374.44 31.34L1377.45 31.34C1377.45 31.34 1380.46 31.33 1380.46 31.33L1383.47 31.33C1383.47 31.33 1386.48 31.32 1386.48 31.32L1389.49 31.32C1389.49 31.32 1392.5 31.31 1392.5 31.31L1395.54 31.31C1395.54 31.31 1398.58 31.28 1398.58 31.28L1401.59 31.26 1404.6 31.24 1407.61 31.22 1410.62 31.2 1413.63 31.18 1416.64 31.16 1419.65 31.14 1422.66 31.12 1425.67 31.1 1428.68 31.08 1431.69 31.06 1434.7 31.04 1437.71 31.02 1440.72 31 1443.71 30.98 1446.71 30.98C1446.71 30.98 1449.72 30.96 1449.72 30.96L1452.73 30.96C1452.73 30.96 1455.72 30.94 1455.72 30.94L1458.71 30.94C1458.71 30.94 1461.72 30.94 1461.72 30.94L1464.73 30.94C1464.73 30.94 1467.71 30.94 1467.71 30.94L1470.69 30.94C1470.69 30.94 1473.7 30.95 1473.7 30.95L1476.71 30.95C1476.71 30.95 1479.69 30.97 1479.69 30.97L1482.67 30.99 1485.68 31.01 1488.69 31.03 1491.66 31.05 1494.63 31.09 1497.64 31.13 1500.65 31.17 1503.61 31.2 1506.57 31.25 1509.58 31.31 1512.59 31.36 1515.57 31.42 1517.8 31.47 1520.14 31.53 1522.57 31.6 1525.07 31.67 1527.65 31.75 1530.29 31.83 1533.02 31.92 1535.75 32.01 1538.58 32.11 1541.41 32.21 1544.31 32.31 1547.21 32.41 1550.15 32.52 1553.09 32.63 1556.06 32.74 1559.03 32.85 1562 32.97 1564.97 33.09 1567.92 33.21 1570.87 33.33 1573.77 33.45 1576.68 33.57 1579.51 33.69 1582.34 33.81 1585.11 33.93 1587.82 34.05 1590.47 34.16 1593.06 34.27 1595.58 34.38 1598.03 34.49 1600.4 34.6 1602.68 34.7 1604.86 34.8 1606.95 34.89 1608.93 34.98 1610.8 35.07 1612.56 35.15 1614.19 35.22 1615.69 35.29 1617.06 35.36 1618.29 35.42 1619.37 35.47 1620.31 35.51 1621.09 35.55 1621.7 35.58 1622.15 35.6 1622.42 35.6C1622.42 35.6 1622.42 35.61 1622.42 35.61L1622.46 35.61C1622.46 35.61 1622.46 35.61 1622.46 35.61L1622.4 35.61C1622.4 35.61 1622.36 35.61 1622.36 35.61L1622.31 35.61C1622.31 35.61 1622.24 35.61 1622.24 35.61L1622.14 35.61C1622.14 35.61 1621.98 35.59 1621.98 35.59L1621.73 35.57 1621.25 35.52 1619.99 35.31 1611.44 30.4 1619.47 4.25 1621.79 3.86 1622.48 3.81 1622.8 3.81C1622.8 3.81 1622.9 3.79 1622.9 3.79L1622.9 3.79C1622.9 3.79 1622.9 3.79 1622.9 3.79L1622.79 3.79C1622.79 3.79 1622.62 3.79 1622.62 3.79L1622.39 3.79C1622.39 3.79 1622.1 3.8 1622.1 3.8L1621.74 3.8C1621.74 3.8 1621.32 3.82 1621.32 3.82L1620.84 3.82C1620.84 3.82 1620.3 3.84 1620.3 3.84L1619.7 3.84C1619.7 3.84 1619.04 3.87 1619.04 3.87L1618.32 3.89 1616.74 3.93 1614.93 3.97 1612.91 4.02 1610.71 4.07 1608.32 4.12 1605.74 4.18 1603 4.24 1600.1 4.31 1597.04 4.38 1593.84 4.45 1590.5 4.53 1587.03 4.61 1583.45 4.69 1579.75 4.78 1575.95 4.87 1572.06 4.96 1568.08 5.06 1564.02 5.16 1559.87 5.26 1555.72 5.36 1551.47 5.47 1547.21 5.57 1542.89 5.68 1538.56 5.79 1534.2 5.9 1529.84 6.01 1525.48 6.12 1521.12 6.23 1516.8 6.34 1512.48 6.45 1508.2 6.56 1503.96 6.68 1499.78 6.79 1495.65 6.91 1491.59 7.03 1487.61 7.14 1483.71 7.26 1479.9 7.37 1476.2 7.48 1472.6 7.59 1469.12 7.7 1465.78 7.81 1463.02 7.9 1460.27 7.99 1457.52 8.08 1454.77 8.17 1452.02 8.26 1449.27 8.35 1446.52 8.44 1443.77 8.53 1441.02 8.62 1438.27 8.71 1435.52 8.8 1432.77 8.89 1430.02 8.98 1427.27 9.07 1424.52 9.16 1421.77 9.25 1419.02 9.34 1416.27 9.43 1413.52 9.52 1410.77 9.61 1408.02 9.7 1405.27 9.79 1402.52 9.88 1399.77 9.97 1397.02 10.06 1394.27 10.15 1391.52 10.24 1388.77 10.33 1386.02 10.42 1383.27 10.51 1380.52 10.6 1377.77 10.69 1375.03 10.78 1372.28 10.87 1369.53 10.96 1366.78 11.05 1364.03 11.14 1361.28 11.23 1358.53 11.32 1355.78 11.41 1353.03 11.5 1350.28 11.59 1347.53 11.68 1344.78 11.77 1342.03 11.86 1339.28 11.95 1336.53 12.04 1333.79 12.13 1331.05 12.21 1328.3 12.29 1325.55 12.38 1322.8 12.46 1320.05 12.55 1317.3 12.63 1314.55 12.72 1311.8 12.81 1309.05 12.89 1306.3 12.98 1303.55 13.06 1300.8 13.15 1298.05 13.23 1295.3 13.32 1292.55 13.4 1289.82 13.48 1287.08 13.56 1284.33 13.64 1281.58 13.72 1278.83 13.8 1276.08 13.88 1273.33 13.96 1270.57 14.04 1267.82 14.12 1265.07 14.2 1262.32 14.28 1259.57 14.36 1256.82 14.44 1254.07 14.52 1251.32 14.6 1248.57 14.68 1245.84 14.76 1243.11 14.83 1240.36 14.9 1237.61 14.97 1234.86 15.04 1232.11 15.11 1229.36 15.18 1226.61 15.25 1223.86 15.32 1221.11 15.39 1218.36 15.46 1215.61 15.53 1212.86 15.6 1210.11 15.67 1207.36 15.74 1204.61 15.81 1201.94 15.88 1198.96 15.93 1195.9 15.98 1192.85 16.03 1189.8 16.08 1186.74 16.13 1183.69 16.18 1180.64 16.23 1177.58 16.28 1174.53 16.33 1171.48 16.38 1168.43 16.43 1165.37 16.48 1162.32 16.53 1159.27 16.58 1156.21 16.63 1153.16 16.68 1150.11 16.73 1147.05 16.78 1144 16.83 1140.95 16.88 1137.9 16.93 1134.84 16.98 1131.79 17.03 1128.74 17.08 1125.68 17.13 1122.63 17.18 1119.57 17.23 1116.52 17.28 1113.47 17.33 1110.42 17.38 1107.37 17.43 1104.42 17.48 1101.47 17.48C1101.47 17.48 1098.42 17.5 1098.42 17.5L1095.36 17.5C1095.36 17.5 1092.3 17.52 1092.3 17.52L1089.25 17.52C1089.25 17.52 1086.19 17.54 1086.19 17.54L1083.13 17.54C1083.13 17.54 1080.07 17.56 1080.07 17.56L1077.02 17.56C1077.02 17.56 1073.96 17.58 1073.96 17.58L1070.91 17.58C1070.91 17.58 1067.85 17.6 1067.85 17.6L1064.79 17.6C1064.79 17.6 1061.73 17.62 1061.73 17.62L1058.67 17.62C1058.67 17.62 1055.62 17.64 1055.62 17.64L1052.56 17.64C1052.56 17.64 1049.5 17.66 1049.5 17.66L1046.45 17.66C1046.45 17.66 1043.39 17.68 1043.39 17.68L1040.33 17.68C1040.33 17.68 1037.28 17.7 1037.28 17.7L1034.22 17.7C1034.22 17.7 1031.16 17.72 1031.16 17.72L1028.1 17.72C1028.1 17.72 1025.05 17.74 1025.05 17.74L1021.99 17.74C1021.99 17.74 1018.94 17.76 1018.94 17.76L1015.88 17.76C1015.88 17.76 1012.82 17.78 1012.82 17.78L1009.76 17.78C1009.76 17.78 1006.75 17.8 1006.75 17.8L1003.74 17.8C1003.74 17.8 1000.68 17.78 1000.68 17.78L997.62 17.78C997.62 17.78 994.57 17.76 994.57 17.76L991.51 17.76C991.51 17.76 988.45 17.74 988.45 17.74L985.39 17.74C985.39 17.74 982.33 17.72 982.33 17.72L979.27 17.72C979.27 17.72 976.21 17.7 976.21 17.7L973.16 17.7C973.16 17.7 970.1 17.68 970.1 17.68L967.04 17.68C967.04 17.68 963.98 17.66 963.98 17.66L960.93 17.66C960.93 17.66 957.87 17.64 957.87 17.64L954.81 17.64C954.81 17.64 951.75 17.62 951.75 17.62L948.7 17.62C948.7 17.62 945.64 17.6 945.64 17.6L942.58 17.6C942.58 17.6 939.52 17.58 939.52 17.58L936.46 17.58C936.46 17.58 933.4 17.56 933.4 17.56L930.34 17.56C930.34 17.56 927.29 17.54 927.29 17.54L924.23 17.54C924.23 17.54 921.17 17.52 921.17 17.52L918.12 17.52C918.12 17.52 915.06 17.5 915.06 17.5L912 17.5C912 17.5 908.95 17.48 908.95 17.48L905.9 17.48C905.9 17.48 902.84 17.46 902.84 17.46L899.78 17.46C899.78 17.46 896.73 17.44 896.73 17.44L893.67 17.44C893.67 17.44 890.61 17.42 890.61 17.42L887.55 17.42C887.55 17.42 884.49 17.4 884.49 17.4L881.43 17.4C881.43 17.4 878.38 17.38 878.38 17.38L875.32 17.38C875.32 17.38 872.27 17.37 872.27 17.37L869.21 17.37C869.21 17.37 866.15 17.35 866.15 17.35L863.09 17.35C863.09 17.35 860.03 17.33 860.03 17.33L856.97 17.33C856.97 17.33 853.91 17.33 853.91 17.33L850.86 17.33C850.86 17.33 847.8 17.33 847.8 17.33L844.74 17.33C844.74 17.33 841.68 17.33 841.68 17.33L838.63 17.33C838.63 17.33 835.57 17.33 835.57 17.33L829.45 17.33C829.45 17.33 826.39 17.33 826.39 17.33L817.23 17.33C817.23 17.33 814.17 17.33 814.17 17.33L808.03 17.33C808.03 17.33 804.98 17.33 804.98 17.33L801.92 17.33C801.92 17.33 798.87 17.33 798.87 17.33L795.81 17.33C795.81 17.33 792.76 17.34 792.76 17.34L789.7 17.34C789.7 17.34 786.63 17.34 786.63 17.34L783.56 17.34C783.56 17.34 780.5 17.36 780.5 17.36L777.45 17.36C777.45 17.36 774.4 17.38 774.4 17.38L771.35 17.38C771.35 17.38 768.29 17.4 768.29 17.4L765.24 17.4C765.24 17.4 762.17 17.42 762.17 17.42L759.1 17.44 756.04 17.46 752.99 17.48 749.94 17.5 746.89 17.52 743.84 17.54 740.79 17.56 737.71 17.58 734.63 17.61 731.58 17.64 728.53 17.67 725.48 17.7 722.42 17.73 719.37 17.76 716.32 17.79 713.24 17.82 710.16 17.86 707.11 17.9 704.06 17.94 701.01 17.98 697.96 18.02 694.91 18.06 691.86 18.1 688.78 18.14 685.7 18.19 682.65 18.24 679.6 18.29 676.55 18.34 673.5 18.39 670.45 18.44 667.4 18.49 664.31 18.54 661.22 18.6 658.17 18.66 655.12 18.72 652.07 18.78 649.02 18.84 645.97 18.9 642.92 18.96 639.83 19.02 636.74 19.1 633.69 19.18 630.64 19.26 627.59 19.34 624.54 19.42 621.49 19.5 618.44 19.58 615.4 19.66 612.28 19.73 609.15 19.81 606.03 19.89 602.96 19.96 599.89 20.01 596.76 20.06 593.63 20.11 590.55 20.16 587.47 20.19 584.33 20.22 581.2 20.25 578.11 20.28 575.02 20.3 571.88 20.32 568.74 20.34 565.65 20.36 559.41 20.36C559.41 20.36 556.27 20.36 556.27 20.36L553.17 20.36C553.17 20.36 550.07 20.34 550.07 20.34L546.92 20.32 543.78 20.3 540.68 20.28 537.58 20.24 534.43 20.21 531.28 20.18 528.13 20.15 524.98 20.11 521.83 20.08 518.68 20.05 515.59 20.02 512.49 19.96 509.34 19.91 506.18 19.85 503.03 19.8 499.88 19.74 496.73 19.69 493.57 19.63 490.45 19.58 487.32 19.51 484.16 19.44 481 19.37 477.84 19.3 474.68 19.23 471.52 19.16 468.36 19.09 465.22 19.02 462.08 18.95 458.92 18.88 455.76 18.81 452.6 18.74 449.44 18.67 446.28 18.6 443.12 18.53 439.96 18.46 436.8 18.39 433.64 18.32 430.48 18.25 427.32 18.18 424.16 18.11 421 18.04 417.84 17.97 414.66 17.9 411.48 17.83 408.32 17.76 405.16 17.69 402 17.62 398.84 17.55 395.68 17.48 392.52 17.41 389.34 17.34 386.16 17.28 383 17.22 379.84 17.16 376.66 17.1 373.48 17.05 370.32 17 367.16 16.95 363.97 16.9 360.79 16.86 357.63 16.82 354.47 16.78 351.28 16.74 348.1 16.71 344.94 16.68 341.79 16.65 338.6 16.62 335.41 16.6 332.26 16.6C332.26 16.6 329.1 16.57 329.1 16.57L325.9 16.57C325.9 16.57 322.71 16.56 322.71 16.56L319.56 16.56C319.56 16.56 316.41 16.56 316.41 16.56L313.22 16.56C313.22 16.56 310.03 16.58 310.03 16.58L306.88 16.6 303.73 16.62 300.53 16.64 297.33 16.68 294.18 16.72 291.03 16.76 287.83 16.8 284.63 16.86 281.49 16.92 278.35 16.98 275.15 17.04 271.95 17.12 268.81 17.2 265.67 17.28 262.47 17.36 259.27 17.46 256.14 17.56 253 17.66 249.79 17.77 246.59 17.9 243.46 18.03 240.33 18.16 237.13 18.29 233.94 18.45 230.81 18.6 227.68 18.76 224.47 18.92 221.27 19.11 218.15 19.29 215.03 19.47 211.82 19.66 208.62 19.88 205.51 20.09 202.4 20.3 199.2 20.52 196.01 20.77 192.9 21.02 189.79 21.26 186.59 21.51 183.39 21.8 180.28 22.08 177.18 22.36 173.98 22.65 170.78 22.97 167.68 23.29 164.58 23.61 161.39 23.94 158.2 24.3 155.11 24.65 152.02 25 148.82 25.36 145.63 25.76 142.54 26.15 139.45 26.54 136.25 26.94 133.06 27.39 129.98 27.82 126.9 28.25 123.72 28.7 120.54 29.19 117.47 29.66 114.4 30.13 111.21 30.62 108.03 31.16 104.97 31.68 101.91 32.2 98.72 32.74 95.54 33.33 92.49 33.89 89.44 34.45 86.3 35.03 83.16 35.64 80.05 36.25 76.94 36.88 73.83 37.51 70.72 38.17 67.62 38.83 64.52 39.51 61.42 40.19 58.32 40.9 55.22 41.61 52.12 42.35 49.03 43.08 45.94 43.84 42.85 44.6 39.76 45.39 36.67 46.18 33.59 47 30.51 47.82 27.44 48.66 24.36 49.51 21.29 50.39 18.21 51.26 15.14 52.17 12.14 53.05C3.19 55.69-1.92 65.09 0.72 74.03 3.36 82.98 12.76 88.09 21.7 85.45Z" class="MsftOfcThm_Text2_Fill_v2" stroke="none" stroke-width="1" stroke-linecap="butt" stroke-linejoin="miter" stroke-miterlimit="4" fill="currentColor" fill-opacity="1"></path></g></svg>
