<svg viewBox="0 0 1159.66 141.62" xmlns="http://www.w3.org/2000/svg" xmlns:xlink="http://www.w3.org/1999/xlink" id="Layer_2" overflow="hidden">
<g id="_ëÎÓÈ_1"><path d="M1146.62 52.52C1094.12 43.19 1033.76 19.54 992.37 1.34 984.38-2.17 975.06 1.46 971.55 9.44 968.04 17.43 971.67 26.75 979.65 30.26 994.31 36.7 1011.29 43.81 1029.5 50.77 892.51 49.02 778.24 52.91 667.1 56.69 577.27 59.75 492.42 62.64 398 62.64 290.9 62.64 202.8 62.5 134.1 62.38 86.11 62.3 73.99 61.94 38.82 60.78 33.47 60.6 27.12 60.46 20.52 60.61 6.39 60.94-0.01 69.26-0.01 77.98-0.01 86.7 7.61 96.93 20.52 96.93 76.29 96.93 89.83 97.02 145.1 97.12 213.82 97.24 290.88 95.8 398 95.8 492.95 95.8 578.07 92.9 668.17 89.83 779.96 86.02 891.96 84.2 1031.45 85.03 1014.13 92.4 995.76 101.33 977.09 112.14 969.54 116.51 966.96 126.17 971.34 133.72 974.27 138.78 979.57 141.6 985.02 141.6 987.71 141.6 990.43 140.91 992.92 139.47 1070.86 94.35 1145.23 83.8 1145.96 83.7 1153.67 82.66 1159.48 76.16 1159.64 68.38 1159.8 60.6 1154.27 53.86 1146.61 52.5Z" class="MsftOfcThm_Text1_Fill_v2" stroke="none" stroke-width="1" stroke-linecap="butt" stroke-linejoin="miter" stroke-miterlimit="4" fill="currentColor" fill-opacity="1"></path></g></svg>
