<svg viewBox="0 0 2278.93 142.77" xmlns="http://www.w3.org/2000/svg" xmlns:xlink="http://www.w3.org/1999/xlink" id="Layer_2" overflow="hidden">
<g id="_ÎÓÈ_1"><path d="M18.38 115.2 22.72 114.81 27.06 114.42 31.4 114.03 35.83 113.64 40.25 113.2 44.58 112.77 48.92 112.34 53.33 111.9 57.74 111.42 62.07 110.95 66.4 110.48 70.79 110 75.18 109.49 79.51 108.98 83.84 108.47 88.23 107.96 92.62 107.41 96.94 106.87 101.26 106.33 105.64 105.78 110.01 105.21 114.33 104.64 118.65 104.07 123.01 103.5 127.37 102.9 131.69 102.31 136 101.72 140.35 101.12 144.7 100.51 149.01 99.9 153.32 99.29 157.66 98.68 162 98.05 166.31 97.42 170.62 96.79 174.95 96.16 179.28 95.52 183.59 94.88 187.9 94.24 192.22 93.6 196.54 92.95 200.85 92.3 205.16 91.66 209.47 91.01 213.78 90.36 218.09 89.71 222.4 89.06 226.69 88.41 230.98 87.77 235.29 87.13 239.6 86.49 243.91 85.85 248.22 85.21 252.53 84.57 256.84 83.93 261.15 83.29 265.46 82.65 269.77 82.01 274.08 81.37 278.39 80.73 282.7 80.09 287.01 79.45 291.32 78.81 295.5 78.19 299.69 77.63 304 77.06 308.31 76.49 312.62 75.92 316.93 75.35 321.24 74.78 325.55 74.21 329.86 73.64 334.17 73.07 338.48 72.5 342.79 71.93 347.1 71.36 351.41 70.79 355.72 70.22 360.03 69.65 364.08 69.11 368.14 68.7 372.46 68.26 376.78 67.82 381.1 67.39 385.42 66.95 389.74 66.51 394.06 66.07 398.38 65.64 402.7 65.2 407.02 64.76 411.34 64.32 415.66 63.89 419.98 63.45 424.3 63.01 428.62 62.57 432.78 62.15 435.98 61.9 439.38 61.63 442.78 61.36 446.18 61.09 449.58 60.82 452.98 60.55 456.38 60.28 459.73 60.01 463.08 59.76 466.48 59.51 469.88 59.26 473.28 59.01 476.68 58.76 480.08 58.51 483.48 58.26 486.84 58.01 490.19 57.78 493.59 57.55 496.99 57.32 500.39 57.09 503.79 56.86 507.19 56.63 510.59 56.4 513.95 56.17 517.31 55.96 520.71 55.75 524.11 55.53 527.51 55.32 530.91 55.1 534.31 54.89 537.71 54.67 541.07 54.46 544.43 54.26 547.83 54.06 551.23 53.86 554.63 53.66 558.03 53.46 561.43 53.26 564.83 53.06 568.19 52.86 571.55 52.68 574.95 52.5 578.35 52.32 581.75 52.14 585.15 51.96 588.55 51.78 591.95 51.6 595.32 51.42 598.69 51.25 602.09 51.09 605.49 50.92 608.89 50.75 612.29 50.58 615.69 50.41 619.09 50.24 622.45 50.08 625.81 49.93 629.21 49.78 632.61 49.63 636.01 49.48 639.41 49.33 642.81 49.18 646.21 49.03 649.58 48.88 652.95 48.74 656.36 48.61 659.76 48.47 663.16 48.33 666.57 48.2 669.97 48.06 673.37 47.92 676.74 47.79 680.11 47.67 683.51 47.55 686.91 47.43 690.31 47.31 693.71 47.19 697.11 47.07 700.52 46.95 703.89 46.83 707.26 46.72 710.66 46.61 714.07 46.5 717.47 46.39 720.87 46.28 724.28 46.17 727.68 46.06 731.05 45.95 734.42 45.86 737.82 45.76 741.23 45.67 744.63 45.58 748.04 45.48 751.44 45.39 754.85 45.3 758.23 45.21 761.61 45.13 765.01 45.05 768.41 44.96 771.82 44.88 775.23 44.8 778.64 44.72 782.04 44.64 785.42 44.56 788.8 44.49 792.21 44.42 795.61 44.35 799.02 44.28 802.43 44.21 805.83 44.14 809.24 44.07 812.62 44 816 43.94 819.41 43.88 822.82 43.82 826.23 43.76 829.64 43.7 833.05 43.64 836.46 43.58 839.84 43.52 843.22 43.47 846.63 43.42 850.04 43.37 853.44 43.32 856.85 43.27 860.26 43.22 863.67 43.17 867.05 43.12 870.43 43.08 873.84 43.04 877.25 43 880.66 42.96 884.07 42.92 887.48 42.88 890.89 42.84 894.28 42.8 897.66 42.77 901.07 42.74 904.48 42.71 907.89 42.68 911.3 42.65 914.71 42.62 918.12 42.59 921.51 42.56 924.9 42.54 928.31 42.52 931.72 42.5 935.13 42.48 938.54 42.46 941.95 42.44 945.36 42.42 948.74 42.4 952.13 42.4C952.13 42.4 955.54 42.38 955.54 42.38L958.95 42.38C958.95 42.38 962.36 42.36 962.36 42.36L965.77 42.36C965.77 42.36 969.18 42.34 969.18 42.34L972.59 42.34C972.59 42.34 975.98 42.32 975.98 42.32L979.37 42.32C979.37 42.32 982.78 42.32 982.78 42.32L986.19 42.32C986.19 42.32 989.6 42.32 989.6 42.32L993.01 42.32C993.01 42.32 996.42 42.32 996.42 42.32L999.83 42.32C999.83 42.32 1003.22 42.32 1003.22 42.32L1006.61 42.32C1006.61 42.32 1010.02 42.32 1010.02 42.32L1013.43 42.32C1013.43 42.32 1016.84 42.32 1016.84 42.32L1020.25 42.32C1020.25 42.32 1023.66 42.32 1023.66 42.32L1027.07 42.32C1027.07 42.32 1030.46 42.32 1030.46 42.32L1033.85 42.32C1033.85 42.32 1037.26 42.34 1037.26 42.34L1040.67 42.34C1040.67 42.34 1044.08 42.36 1044.08 42.36L1047.49 42.36C1047.49 42.36 1050.9 42.38 1050.9 42.38L1054.31 42.38C1054.31 42.38 1057.7 42.4 1057.7 42.4L1061.09 42.42 1064.5 42.44 1067.91 42.46 1071.32 42.48 1074.73 42.5 1078.14 42.52 1081.55 42.54 1084.94 42.56 1088.33 42.58 1091.74 42.6 1095.15 42.62 1098.56 42.64 1101.97 42.66 1105.38 42.68 1108.79 42.7 1112.2 42.72 1115.61 42.74 1119.02 42.76 1122.43 42.78 1125.84 42.8 1129.25 42.82 1132.66 42.84 1136.07 42.86 1139.46 42.88 1142.84 42.91 1146.25 42.94 1149.66 42.97 1153.07 43 1156.48 43.03 1159.89 43.06 1163.3 43.09 1166.71 43.12 1170.12 43.15 1173.53 43.18 1176.94 43.21 1180.35 43.24 1183.76 43.28 1187.17 43.31 1190.58 43.34 1193.97 43.37 1197.36 43.41 1200.77 43.45 1204.18 43.49 1207.59 43.53 1211 43.57 1214.41 43.61 1217.82 43.65 1221.23 43.69 1224.64 43.73 1228.05 43.77 1231.46 43.81 1234.87 43.85 1238.28 43.89 1241.69 43.93 1245.1 43.97 1248.5 44.01 1251.9 44.06 1255.31 44.1 1258.72 44.15 1262.13 44.2 1265.54 44.25 1268.95 44.3 1272.36 44.35 1275.77 44.4 1279.18 44.45 1282.59 44.49 1286 44.54 1289.41 44.59 1292.82 44.64 1296.23 44.69 1299.64 44.74 1303.04 44.79 1306.44 44.84 1309.85 44.89 1313.26 44.94 1316.67 44.99 1320.08 45.04 1323.49 45.09 1326.9 45.14 1330.31 45.19 1333.72 45.24 1337.13 45.29 1340.54 45.34 1343.95 45.39 1347.36 45.44 1350.77 45.49 1354.18 45.54 1357.59 45.59 1361 45.64 1364.41 45.69 1367.82 45.74 1371.23 45.79 1374.64 45.84 1378.05 45.89 1381.46 45.94 1384.87 45.99 1388.28 46.04 1391.69 46.09 1395.1 46.14 1398.51 46.19 1401.92 46.24 1405.33 46.29 1408.74 46.34 1412.16 46.39 1415.58 46.43 1418.99 46.48 1422.4 46.53 1425.81 46.58 1429.22 46.63 1432.63 46.68 1436.04 46.73 1439.45 46.77 1442.86 46.82 1446.27 46.87 1449.68 46.92 1453.09 46.97 1456.5 47.02 1459.91 47.07 1463.32 47.12 1466.73 47.16 1470.14 47.21 1473.55 47.26 1476.96 47.31 1480.37 47.36 1483.78 47.41 1487.19 47.46 1490.6 47.51 1494.01 47.56 1497.42 47.6 1500.83 47.65 1504.24 47.7 1507.65 47.75 1511.06 47.8 1514.47 47.85 1517.88 47.9 1521.32 47.94 1524.76 47.97 1528.17 48 1531.58 48.03 1534.99 48.06 1538.4 48.09 1541.81 48.12 1545.22 48.15 1548.63 48.18 1552.04 48.21 1555.45 48.24 1558.86 48.27 1562.27 48.3 1565.68 48.33 1569.09 48.36 1572.5 48.39 1575.91 48.42 1579.32 48.45 1582.72 48.48 1586.13 48.51 1589.54 48.54 1592.95 48.57 1596.36 48.6 1599.77 48.63 1603.18 48.66 1606.59 48.69 1610 48.72 1613.41 48.75 1616.82 48.78 1620.23 48.81 1623.64 48.84 1627.05 48.87 1630.51 48.9 1633.97 48.9C1633.97 48.9 1637.38 48.92 1637.38 48.92L1640.79 48.92C1640.79 48.92 1644.19 48.94 1644.19 48.94L1647.6 48.94C1647.6 48.94 1651 48.96 1651 48.96L1654.4 48.96C1654.4 48.96 1657.81 48.98 1657.81 48.98L1661.22 48.98C1661.22 48.98 1664.63 49 1664.63 49L1668.04 49C1668.04 49 1671.45 49.02 1671.45 49.02L1674.85 49.02C1674.85 49.02 1678.26 49.04 1678.26 49.04L1681.66 49.04C1681.66 49.04 1685.07 49.06 1685.07 49.06L1688.47 49.06C1688.47 49.06 1691.88 49.08 1691.88 49.08L1695.29 49.08C1695.29 49.08 1698.7 49.1 1698.7 49.1L1702.1 49.1C1702.1 49.1 1705.51 49.12 1705.51 49.12L1708.92 49.12C1708.92 49.12 1712.32 49.14 1712.32 49.14L1715.73 49.14C1715.73 49.14 1719.14 49.16 1719.14 49.16L1722.55 49.16C1722.55 49.16 1725.96 49.18 1725.96 49.18L1729.37 49.18C1729.37 49.18 1732.77 49.2 1732.77 49.2L1736.18 49.2C1736.18 49.2 1739.6 49.22 1739.6 49.22L1744.1 49.22C1744.1 49.22 1748.59 49.23 1748.59 49.23L1753.08 49.23C1753.08 49.23 1757.57 49.24 1757.57 49.24L1762.06 49.24C1762.06 49.24 1766.55 49.25 1766.55 49.25L1771.04 49.25C1771.04 49.25 1775.49 49.26 1775.49 49.26L1779.94 49.28 1784.43 49.31 1788.92 49.33 1793.41 49.36 1797.9 49.38 1802.39 49.41 1806.88 49.43 1811.33 49.45 1815.78 49.5 1820.27 49.55 1824.76 49.6 1829.25 49.65 1833.74 49.7 1838.23 49.75 1842.72 49.8 1847.17 49.85 1851.62 49.92 1856.11 49.99 1860.6 50.06 1865.09 50.13 1869.58 50.2 1874.07 50.27 1878.56 50.34 1883 50.41 1887.44 50.51 1891.93 50.61 1896.42 50.71 1900.91 50.81 1905.4 50.91 1909.89 51.01 1914.38 51.11 1918.81 51.21 1923.24 51.34 1927.73 51.47 1932.22 51.61 1936.71 51.74 1941.2 51.88 1945.69 52.02 1950.18 52.15 1954.63 52.28 1959.08 52.44 1963.57 52.6 1968.06 52.76 1972.52 52.92 1976.98 53.1 1981.47 53.28 1985.96 53.46 1990.41 53.63 1994.86 53.82 1999.35 54.01 2003.84 54.21 2008.29 54.4 2012.74 54.61 2017.23 54.82 2021.72 55.03 2026.17 55.24 2030.62 55.47 2035.1 55.7 2039.58 55.93 2044.03 56.16 2048.48 56.41 2052.96 56.66 2057.44 56.91 2061.89 57.16 2066.34 57.43 2070.82 57.7 2075.3 57.97 2079.74 58.24 2084.18 58.53 2088.66 58.83 2093.14 59.13 2097.58 59.42 2102.01 59.74 2106.49 60.06 2110.97 60.38 2115.41 60.7 2119.84 61.04 2124.32 61.38 2128.8 61.72 2133.23 62.06 2137.66 62.42 2142.13 62.79 2146.6 63.16 2151.03 63.52 2155.46 63.91 2159.93 64.3 2164.4 64.69 2168.88 65.08 2169.54 65.13 2169.72 65.13C2169.72 65.13 2169.9 65.15 2169.9 65.15L2170.11 65.15C2170.11 65.15 2170.37 65.17 2170.37 65.17L2170.68 65.17C2170.68 65.17 2171.44 65.21 2171.44 65.21L2172.39 65.25 2173.52 65.3 2174.81 65.36 2176.27 65.43 2177.89 65.51 2179.64 65.6 2181.53 65.7 2183.55 65.81 2185.67 65.94 2187.9 66.08 2190.23 66.23 2192.64 66.39 2195.13 66.57 2197.69 66.76 2200.3 66.97 2202.96 67.19 2205.66 67.43 2208.39 67.68 2211.13 67.95 2213.86 68.23 2216.64 68.54 2219.38 68.84 2222.09 69.18 2224.78 69.52 2227.4 69.89 2230.04 70.27 2232.53 70.66 2234.97 71.07 2237.32 71.5 2239.57 71.94 2241.69 72.39 2243.69 72.85 2245.55 73.31 2247.22 73.77 2248.72 74.22 2250.01 74.66 2251.03 75.05 2251.79 75.39 2252.24 75.62 2252.27 75.62C2252.27 75.62 2251.93 75.37 2251.93 75.37L2251.19 74.64 2250.04 73.08 2249.06 71.04 2248.48 68.62 2248.48 65.3C2248.48 65.3 2249.49 61.67 2249.49 61.67L2251.43 58.52 2253.74 56.34 2255.51 55.27 2256.69 54.79 2257.36 54.61 2257.47 54.59 2257.2 54.62 2256.65 54.64 2255.8 54.64 2254.74 54.6 2253.5 54.52 2252.07 54.39 2250.5 54.22 2248.8 54.01 2246.96 53.75 2245.02 53.45 2242.98 53.11 2240.85 52.74 2238.64 52.34 2236.36 51.91 2234 51.44 2231.58 50.95 2229.11 50.44 2226.59 49.9 2224.03 49.35 2221.44 48.78 2218.82 48.2 2216.16 47.61 2213.5 47.02 2210.83 46.42 2208.14 45.81 2205.47 45.21 2202.78 44.6 2200.12 44 2197.45 43.4 2194.84 42.82 2192.21 42.24 2189.66 41.69 2187.11 41.15 2184.59 40.63 2182.12 40.13 2179.71 39.66 2177.34 39.21 2175.02 38.79 2172.75 38.4 2168.99 37.79 2165.21 37.18 2161.43 36.6 2157.66 36.02 2153.88 35.47 2150.12 34.92 2146.35 34.4 2142.59 33.88 2138.82 33.38 2135.07 32.88 2131.31 32.39 2127.56 31.9 2123.81 31.42 2120.08 30.95 2116.35 30.48 2112.61 30.01 2108.87 29.54 2105.14 29.07 2101.41 28.6 2097.71 28.13 2094.02 27.65 2090.29 27.16 2086.56 26.67 2082.83 26.18 2078.53 25.62 2074.23 25.06 2069.93 24.5 2065.57 23.93 2061.23 23.4 2056.95 22.88 2052.67 22.36 2048.33 21.83 2044.01 21.34 2039.75 20.86 2035.49 20.38 2031.17 19.89 2026.87 19.43 2022.62 18.98 2018.37 18.53 2014.06 18.08 2009.77 17.66 2005.54 17.25 2001.31 16.83 1997.02 16.41 1992.74 16.02 1988.52 15.63 1984.3 15.25 1980.03 14.86 1975.77 14.5 1971.56 14.14 1967.35 13.78 1963.09 13.42 1958.83 13.09 1954.63 12.76 1950.43 12.44 1946.18 12.11 1941.93 11.81 1937.73 11.51 1933.53 11.21 1929.29 10.91 1925.05 10.63 1920.86 10.36 1916.67 10.09 1912.43 9.82 1908.2 9.57 1904.01 9.32 1899.82 9.07 1895.59 8.82 1891.36 8.59 1887.17 8.36 1882.98 8.13 1878.76 7.9 1874.53 7.69 1870.34 7.49 1866.15 7.28 1861.92 7.07 1857.69 6.88 1853.5 6.7 1849.31 6.52 1845.09 6.33 1840.86 6.16 1836.66 5.99 1832.46 5.82 1828.24 5.65 1824.01 5.5 1819.81 5.35 1815.61 5.2 1811.38 5.05 1807.14 4.92 1802.93 4.78 1798.72 4.65 1794.48 4.51 1790.23 4.39 1786.01 4.27 1781.79 4.15 1777.55 4.03 1773.3 3.92 1769.07 3.81 1764.84 3.7 1760.59 3.59 1756.33 3.49 1752.09 3.39 1747.84 3.29 1743.58 3.19 1739.3 3.1 1735.04 3.01 1730.78 2.92 1726.51 2.83 1722.22 2.75 1717.94 2.67 1713.66 2.59 1709.37 2.51 1705.06 2.43 1700.77 2.35 1696.47 2.27 1692.17 2.19 1687.85 2.12 1683.53 2.05 1679.21 1.98 1674.89 1.91 1672.29 1.87 1669.7 1.83 1667.11 1.79 1664.52 1.75 1661.93 1.71 1659.34 1.67 1656.75 1.63 1654.16 1.59 1651.57 1.55 1648.98 1.51 1646.39 1.47 1643.8 1.43 1641.21 1.39 1638.62 1.35 1636.03 1.31 1633.42 1.27 1630.82 1.24 1628.24 1.21 1625.66 1.18 1623.08 1.15 1620.5 1.12 1617.92 1.09 1615.34 1.06 1612.76 1.03 1610.18 1 1607.6 0.97 1605.02 0.94 1602.44 0.91 1599.86 0.88 1597.28 0.85 1594.7 0.82 1592.1 0.79 1589.5 0.77 1586.93 0.75 1584.36 0.73 1581.79 0.7 1579.21 0.68 1576.64 0.66 1574.07 0.64 1571.49 0.62 1568.92 0.6 1566.35 0.58 1563.77 0.56 1561.2 0.54 1558.63 0.52 1556.06 0.49 1553.48 0.47 1550.89 0.45 1548.3 0.43 1545.73 0.41 1543.16 0.39 1540.59 0.37 1538.02 0.35 1535.45 0.33 1532.88 0.31 1530.31 0.29 1527.74 0.27 1525.17 0.25 1522.6 0.23 1520.03 0.21 1517.46 0.19 1514.89 0.17 1512.32 0.15 1509.73 0.13 1507.14 0.13C1507.14 0.13 1504.57 0.11 1504.57 0.11L1502.01 0.11C1502.01 0.11 1499.45 0.09 1499.45 0.09L1496.88 0.09C1496.88 0.09 1494.32 0.07 1494.32 0.07L1491.76 0.07C1491.76 0.07 1489.19 0.05 1489.19 0.05L1486.63 0.05C1486.63 0.05 1484.06 0.03 1484.06 0.03L1481.49 0.03C1481.49 0.03 1478.93 0.01 1478.93 0.01L1476.37 0.01C1476.37 0.01 1473.8-0.01 1473.8-0.01L1471.24-0.01C1471.24-0.01 1468.65-0.03 1468.65-0.03L1466.06-0.03C1466.06-0.03 1463.5-0.03 1463.5-0.03L1460.94-0.03C1460.94-0.03 1458.38-0.03 1458.38-0.03L1455.82-0.03C1455.82-0.03 1453.26-0.03 1453.26-0.03L1450.7-0.03C1450.7-0.03 1448.14-0.03 1448.14-0.03L1445.58-0.03C1445.58-0.03 1443.02-0.03 1443.02-0.03L1440.46-0.03C1440.46-0.03 1437.9-0.03 1437.9-0.03L1435.34-0.03C1435.34-0.03 1432.78-0.03 1432.78-0.03L1430.22-0.03C1430.22-0.03 1427.64-0.03 1427.64-0.03L1425.06-0.03C1425.06-0.03 1422.5-0.02 1422.5-0.02L1419.94-0.02C1419.94-0.02 1417.38-0.01 1417.38-0.01L1414.82-0.01C1414.82-0.01 1412.26-4.78888e-14 1412.26-4.78888e-14L1409.7-4.78888e-14C1409.7-4.78888e-14 1407.14 0.01 1407.14 0.01L1404.58 0.01C1404.58 0.01 1402.02 0.02 1402.02 0.02L1399.46 0.02C1399.46 0.02 1396.9 0.03 1396.9 0.03L1394.34 0.03C1394.34 0.03 1391.78 0.04 1391.78 0.04L1389.22 0.04C1389.22 0.04 1386.63 0.05 1386.63 0.05L1384.05 0.05C1384.05 0.05 1381.5 0.08 1381.5 0.08L1378.94 0.1 1376.39 0.12 1373.83 0.14 1371.28 0.16 1368.72 0.18 1366.17 0.2 1363.61 0.22 1361.06 0.24 1358.51 0.26 1355.95 0.28 1353.4 0.3 1350.84 0.32 1348.29 0.34 1345.71 0.36 1343.13 0.38 1340.58 0.4 1338.03 0.42 1335.48 0.44 1332.93 0.46 1330.38 0.48 1327.83 0.5 1325.28 0.52 1322.73 0.54 1320.18 0.56 1317.63 0.58 1315.08 0.6 1312.53 0.62 1309.98 0.64 1307.43 0.66 1304.85 0.68 1302.27 0.71 1299.72 0.74 1297.17 0.77 1294.62 0.8 1292.07 0.83 1289.52 0.86 1286.97 0.89 1284.42 0.92 1281.87 0.95 1279.32 0.98 1276.77 1.01 1274.22 1.04 1271.67 1.07 1269.12 1.1 1266.57 1.13 1263.99 1.16 1261.41 1.2 1258.86 1.24 1256.31 1.29 1253.76 1.33 1251.21 1.37 1248.66 1.41 1246.11 1.46 1243.56 1.5 1241.01 1.54 1238.46 1.58 1235.91 1.63 1233.36 1.67 1230.81 1.71 1228.26 1.75 1225.71 1.79 1223.13 1.84 1220.55 1.89 1218 1.94 1215.45 1.99 1212.9 2.04 1210.35 2.09 1207.8 2.14 1205.25 2.19 1202.7 2.24 1200.15 2.29 1197.6 2.34 1195.05 2.39 1192.5 2.44 1189.95 2.49 1187.4 2.54 1184.85 2.59 1182.27 2.64 1179.7 2.7 1177.15 2.76 1174.6 2.82 1172.05 2.88 1169.5 2.94 1166.95 3 1164.4 3.06 1161.85 3.12 1159.3 3.18 1156.75 3.24 1154.2 3.3 1151.65 3.36 1149.1 3.42 1146.55 3.48 1144 3.54 1141.42 3.61 1138.84 3.68 1136.29 3.75 1133.74 3.82 1131.19 3.89 1128.64 3.96 1126.09 4.03 1123.54 4.1 1120.99 4.17 1118.44 4.24 1115.89 4.31 1113.34 4.38 1110.79 4.45 1108.24 4.52 1105.69 4.59 1103.14 4.66 1100.56 4.74 1097.98 4.83 1095.43 4.91 1092.88 5 1090.33 5.08 1087.78 5.17 1085.23 5.25 1082.68 5.34 1080.13 5.43 1077.58 5.51 1075.03 5.6 1072.48 5.68 1069.93 5.77 1067.38 5.85 1064.83 5.94 1062.28 6.03 1059.7 6.12 1057.12 6.21 1054.57 6.3 1052.02 6.4 1049.47 6.49 1046.92 6.58 1044.37 6.67 1041.82 6.76 1039.27 6.85 1036.72 6.94 1034.17 7.03 1031.62 7.13 1029.07 7.22 1026.52 7.31 1023.97 7.4 1021.42 7.49 1018.84 7.59 1016.25 7.7 1013.7 7.81 1011.15 7.92 1008.6 8.03 1006.05 8.14 1003.5 8.25 1000.95 8.36 998.4 8.47 995.85 8.58 993.3 8.69 990.75 8.8 988.2 8.91 985.65 9.02 983.1 9.13 980.55 9.24 977.96 9.35 975.37 9.47 972.82 9.59 970.27 9.71 967.72 9.83 965.17 9.95 962.62 10.07 960.07 10.19 957.52 10.31 954.97 10.43 952.42 10.55 949.87 10.67 947.32 10.79 944.77 10.91 942.22 11.03 939.67 11.15 937.09 11.27 934.5 11.4 931.94 11.53 929.38 11.66 926.82 11.79 924.26 11.92 921.7 12.05 919.15 12.18 916.59 12.31 914.03 12.44 911.47 12.57 908.91 12.7 906.35 12.83 903.79 12.96 901.23 13.09 898.68 13.22 896.09 13.35 893.5 13.49 890.94 13.63 888.38 13.77 885.82 13.91 883.26 14.05 880.7 14.19 878.14 14.33 875.58 14.47 873.02 14.61 870.46 14.75 867.9 14.89 865.34 15.03 862.78 15.17 860.22 15.31 857.66 15.45 855.07 15.59 852.47 15.75 849.91 15.91 847.35 16.07 844.79 16.23 842.23 16.38 839.67 16.54 837.11 16.7 834.55 16.85 831.99 17.01 829.43 17.17 826.87 17.33 824.31 17.48 821.75 17.64 819.19 17.8 816.63 17.95 814.04 18.11 811.45 18.27 808.88 18.43 806.32 18.59 803.75 18.75 801.18 18.91 798.62 19.07 796.05 19.23 793.47 19.39 790.88 19.56 788.31 19.73 785.74 19.9 783.17 20.07 780.6 20.24 778.03 20.41 775.46 20.58 772.87 20.75 770.28 20.93 767.71 21.11 765.14 21.29 762.57 21.47 760 21.65 757.43 21.83 754.86 22.01 752.27 22.19 749.68 22.37 747.11 22.55 744.54 22.73 741.97 22.91 739.4 23.09 736.83 23.27 734.26 23.45 731.67 23.63 729.08 23.82 726.51 24.01 723.93 24.2 721.36 24.39 718.78 24.58 716.21 24.77 713.63 24.96 711.04 25.15 708.44 25.35 705.86 25.55 703.28 25.75 700.7 25.95 698.12 26.15 695.54 26.35 692.96 26.55 690.36 26.75 686.86 27.03 683.38 27.31 679.9 27.59 676.38 27.87 672.88 28.17 669.41 28.46 665.94 28.75 662.44 29.05 658.95 29.36 655.5 29.67 652.05 29.98 648.57 30.29 645.1 30.62 641.66 30.94 638.23 31.26 634.75 31.59 631.29 31.93 627.87 32.27 624.45 32.61 620.99 32.95 617.54 33.31 614.13 33.67 610.72 34.03 607.27 34.39 603.83 34.77 600.43 35.15 597.03 35.53 593.59 35.91 590.16 36.31 586.77 36.71 583.38 37.1 579.95 37.5 576.52 37.92 573.14 38.33 569.76 38.75 566.34 39.17 562.93 39.61 559.56 40.05 556.19 40.48 552.77 40.92 549.36 41.38 545.99 41.84 542.62 42.3 539.21 42.76 535.8 43.25 532.44 43.73 529.08 44.21 525.67 44.7 522.27 45.21 518.91 45.71 515.55 46.21 512.14 46.72 508.73 47.26 505.38 47.79 502.03 48.32 498.62 48.85 495.22 49.41 491.87 49.96 488.52 50.51 485.12 51.07 481.72 51.66 478.37 52.24 475.02 52.81 471.62 53.4 468.22 54.01 464.87 54.61 461.52 55.21 458.12 55.82 454.71 56.46 451.36 57.09 448.01 57.72 444.61 58.36 441.21 59.02 437.86 59.68 434.51 60.34 431.1 61.01 427.69 61.71 424.33 62.4 420.97 63.08 417.55 63.78 414.13 64.51 410.77 65.22 407.41 65.94 403.99 66.67 400.57 67.43 397.2 68.17 393.83 68.91 390.4 69.67 386.97 70.46 383.6 71.23 380.23 72.01 376.8 72.8 373.36 73.62 369.98 74.43 366.6 75.24 363.24 76.04 360.51 76.68 357.75 77.33 354.99 77.98 352.34 78.6 349.68 79.18 346.91 79.79 344.14 80.4 341.46 80.99 338.77 81.54 335.99 82.11 333.21 82.68 330.51 83.23 327.8 83.75 325.01 84.29 322.22 84.83 319.5 85.35 316.78 85.85 313.99 86.36 311.2 86.87 308.46 87.37 305.72 87.85 302.92 88.34 300.12 88.83 297.36 89.31 294.6 89.78 291.8 90.25 289 90.72 286.23 91.19 283.46 91.64 280.66 92.1 277.86 92.56 275.07 93.02 272.28 93.47 269.48 93.92 266.68 94.37 263.88 94.82 261.08 95.27 258.27 95.72 255.47 96.17 252.66 96.62 249.85 97.08 247.05 97.53 244.25 97.98 241.43 98.44 238.61 98.91 235.81 99.37 233.01 99.83 230.21 100.29 229.48 100.41 228.7 100.53 227.85 100.66 226.94 100.79 225.97 100.93 224.96 101.07 222.77 101.37 220.44 101.69 218 102.02 215.48 102.36 212.91 102.71 210.33 103.07 207.76 103.44 205.23 103.82 202.78 104.21 200.41 104.61 198.14 105.02 196.08 105.43 194.97 105.67 193.94 105.91 192.94 106.16 191.93 106.44 190.87 106.77 189.76 107.16 188.49 107.68 186.88 108.5 184.81 109.92 182.03 112.85 179.41 119.35 180.54 127.32 183.96 132.1 186.91 134.25 188.94 135.22 190.52 135.78 191.92 136.16 193.26 136.45 196.15 137 199.12 137.56 202.14 138.06 205.15 138.55 208.2 138.98 211.23 139.41 214.3 139.78 217.38 140.16 220.49 140.48 223.6 140.8 226.74 141.06 229.87 141.32 233.03 141.54 236.19 141.75 239.39 141.91 242.58 142.07 245.8 142.19 249 142.3 252.23 142.37 255.46 142.44 258.72 142.47 261.97 142.5 265.25 142.5C265.25 142.5 268.52 142.48 268.52 142.48L271.81 142.43 275.1 142.38 278.41 142.29 281.72 142.2 285.04 142.08 288.35 141.96 291.68 141.81 295.01 141.66 298.35 141.47 301.69 141.29 305.04 141.08 308.38 140.87 311.73 140.63 315.09 140.39 318.45 140.12 321.81 139.86 325.17 139.57 328.53 139.28 331.89 138.97 335.25 138.66 338.61 138.33 341.97 138 345.33 137.66 348.7 137.31 352.06 136.94 355.38 136.58 358.7 136.22 362.07 135.85 365.43 135.46 368.74 135.07 372.05 134.68 375.4 134.29 378.73 133.88 382.02 133.48 385.31 133.07 388.62 132.66 391.91 132.25 395.17 131.84 398.43 131.43 401.71 131.02 404.95 130.61 408.18 130.2 411.41 129.79 414.63 129.38 417.81 128.97 420.99 128.56 424.17 128.15 427.34 127.74 430.48 127.34 433.62 126.94 436.73 126.56 439.83 126.17 442.9 125.79 445.97 125.42 449.01 125.05 452.04 124.69 455.04 124.34 458.04 123.99 461 123.66 463.96 123.33 466.88 123.02 469.79 122.71 472.66 122.41 475.53 122.12 478.35 121.85 481.17 121.58 483.95 121.33 486.72 121.08 489.45 120.86 492.17 120.64 494.84 120.45 497.52 120.26 501.58 119.99 505.67 119.72 509.76 119.45 513.85 119.18 517.94 118.91 522.03 118.64 526.13 118.37 530.19 118.1 534.25 117.85 538.35 117.6 542.45 117.35 546.55 117.1 550.65 116.85 554.75 116.6 558.85 116.35 562.92 116.1 566.99 115.87 571.09 115.64 575.19 115.41 579.29 115.18 583.39 114.95 587.49 114.72 591.59 114.49 595.66 114.26 599.73 114.05 603.84 113.84 607.95 113.62 612.06 113.41 616.16 113.2 620.27 112.98 624.38 112.77 628.45 112.56 632.53 112.36 636.64 112.16 640.75 111.96 644.86 111.76 648.97 111.56 653.08 111.36 657.19 111.16 661.27 110.96 665.35 110.78 669.46 110.6 673.57 110.42 677.68 110.24 681.79 110.06 685.9 109.88 690.01 109.7 694.09 109.52 698.17 109.36 702.28 109.2 706.39 109.04 710.5 108.88 714.61 108.72 718.72 108.56 722.83 108.4 726.91 108.24 730.99 108.1 735.1 107.96 739.21 107.82 743.32 107.68 747.43 107.54 751.54 107.39 755.65 107.25 759.73 107.11 763.81 106.98 767.92 106.85 772.03 106.72 776.14 106.59 780.25 106.46 784.36 106.33 788.47 106.2 792.55 106.07 796.63 105.96 800.74 105.85 804.85 105.74 808.96 105.63 813.07 105.52 817.18 105.41 821.29 105.3 825.37 105.19 829.45 105.1 833.55 105.01 837.66 104.91 841.76 104.82 845.87 104.73 849.97 104.63 854.08 104.54 858.16 104.45 862.23 104.37 866.33 104.29 870.43 104.21 874.53 104.13 878.63 104.05 882.73 103.97 886.83 103.89 890.91 103.81 894.27 103.76 897.65 103.71 901.04 103.66 904.42 103.61 907.8 103.56 911.19 103.51 914.57 103.46 917.92 103.41 921.27 103.38 924.65 103.34 928.03 103.31 931.42 103.27 934.8 103.23 938.18 103.2 941.56 103.16 944.91 103.13 948.26 103.11 951.64 103.09 955.03 103.07 958.41 103.05 961.79 103.03 965.18 103.01 968.56 102.99 971.92 102.97 975.28 102.97C975.28 102.97 978.66 102.96 978.66 102.96L982.05 102.96C982.05 102.96 985.43 102.96 985.43 102.96L988.81 102.96C988.81 102.96 992.19 102.95 992.19 102.95L995.58 102.95C995.58 102.95 998.94 102.94 998.94 102.94L1002.3 102.94C1002.3 102.94 1005.68 102.96 1005.68 102.96L1009.06 102.96C1009.06 102.96 1012.45 102.98 1012.45 102.98L1015.83 102.98C1015.83 102.98 1019.21 103 1019.21 103L1022.59 103C1022.59 103 1025.95 103.02 1025.95 103.02L1029.31 103.04 1032.69 103.06 1036.07 103.08 1039.45 103.1 1042.84 103.12 1046.22 103.14 1049.6 103.16 1052.96 103.18 1056.32 103.22 1059.7 103.25 1063.08 103.29 1066.46 103.32 1069.84 103.36 1073.22 103.39 1076.6 103.43 1079.96 103.46 1083.32 103.51 1086.7 103.56 1090.08 103.61 1093.46 103.66 1096.85 103.71 1100.23 103.76 1103.61 103.81 1106.97 103.86 1110.33 103.92 1113.71 103.98 1117.09 104.04 1120.47 104.1 1123.86 104.16 1127.24 104.22 1130.62 104.28 1133.98 104.34 1137.34 104.41 1140.72 104.48 1144.1 104.55 1147.49 104.62 1150.87 104.69 1154.25 104.76 1157.64 104.83 1161 104.9 1164.36 104.98 1167.74 105.06 1171.12 105.14 1174.5 105.22 1177.88 105.3 1181.26 105.38 1184.65 105.46 1188.01 105.54 1191.37 105.63 1194.76 105.72 1198.14 105.81 1201.52 105.9 1204.91 105.99 1208.29 106.08 1211.67 106.17 1215.04 106.26 1218.41 106.36 1221.79 106.46 1225.18 106.56 1228.56 106.66 1231.94 106.76 1235.32 106.86 1238.71 106.96 1242.08 107.06 1245.45 107.17 1248.83 107.28 1252.21 107.39 1255.59 107.5 1258.97 107.61 1262.35 107.72 1265.73 107.83 1269.1 107.94 1272.47 108.05 1275.85 108.16 1279.24 108.27 1282.62 108.38 1286 108.49 1289.39 108.6 1292.77 108.71 1296.14 108.82 1299.51 108.94 1302.89 109.06 1306.28 109.18 1309.66 109.3 1313.04 109.42 1316.42 109.54 1319.8 109.66 1323.17 109.78 1326.54 109.91 1329.92 110.04 1333.3 110.17 1336.69 110.3 1340.07 110.43 1343.45 110.56 1346.83 110.69 1350.2 110.82 1353.57 110.96 1356.95 111.09 1360.33 111.22 1363.72 111.36 1367.1 111.49 1370.48 111.63 1373.86 111.76 1377.23 111.89 1380.6 112.03 1383.98 112.17 1387.36 112.31 1390.75 112.45 1394.13 112.59 1397.51 112.73 1400.89 112.87 1404.28 113.01 1407.66 113.15 1411.04 113.29 1414.42 113.43 1417.81 113.57 1421.19 113.71 1424.57 113.85 1427.95 113.99 1431.32 114.13 1434.69 114.28 1438.07 114.43 1441.45 114.58 1444.83 114.73 1448.21 114.88 1451.6 115.03 1454.98 115.18 1458.36 115.33 1461.75 115.48 1465.13 115.63 1468.51 115.78 1471.89 115.93 1475.28 116.08 1478.66 116.23 1482.04 116.38 1485.41 116.53 1488.79 116.68 1492.17 116.83 1495.55 116.98 1498.94 117.13 1502.32 117.28 1505.7 117.44 1509.08 117.59 1512.47 117.74 1515.85 117.89 1519.23 118.04 1522.61 118.2 1526 118.35 1529.38 118.5 1532.76 118.65 1536.14 118.8 1539.52 118.96 1542.9 119.12 1546.28 119.28 1549.66 119.44 1553.04 119.6 1556.43 119.76 1559.81 119.92 1563.19 120.08 1566.57 120.24 1569.96 120.4 1573.34 120.56 1576.72 120.72 1580.11 120.88 1583.49 121.04 1586.87 121.2 1590.25 121.36 1593.64 121.52 1597.02 121.68 1600.4 121.84 1603.79 122 1607.17 122.16 1610.55 122.32 1613.93 122.48 1617.32 122.64 1620.7 122.8 1624.08 122.96 1627.46 123.12 1630.85 123.28 1634.23 123.44 1637.61 123.6 1640.99 123.76 1644.38 123.92 1647.78 124.08 1651.17 124.23 1654.56 124.38 1657.95 124.53 1661.33 124.68 1664.72 124.83 1668.11 124.98 1671.49 125.13 1674.87 125.28 1678.26 125.43 1681.64 125.58 1685.02 125.73 1688.4 125.88 1691.79 126.03 1695.17 126.18 1698.56 126.33 1701.95 126.48 1705.33 126.63 1708.71 126.78 1712.1 126.93 1715.48 127.08 1718.86 127.23 1722.24 127.38 1725.63 127.53 1729.01 127.68 1732.4 127.83 1735.79 127.98 1739.17 128.13 1742.55 128.28 1745.94 128.43 1749.32 128.58 1752.7 128.73 1756.12 128.88 1759.54 129.02 1762.93 129.15 1766.31 129.29 1769.7 129.42 1773.09 129.56 1776.47 129.69 1779.86 129.82 1783.24 129.95 1786.62 130.08 1790.01 130.22 1793.39 130.35 1796.78 130.48 1800.17 130.62 1803.56 130.75 1806.94 130.89 1810.33 131.02 1813.71 131.15 1817.09 131.29 1820.48 131.42 1823.86 131.56 1827.25 131.69 1830.64 131.82 1834.03 131.96 1837.41 132.09 1840.79 132.23 1844.18 132.36 1847.56 132.5 1850.95 132.63 1854.33 132.76 1857.71 132.9 1861.1 133.03 1864.51 133.17 1867.92 133.29 1871.31 133.41 1874.69 133.53 1878.08 133.65 1881.47 133.77 1884.85 133.89 1888.24 134.01 1891.64 134.13 1895.04 134.24 1898.43 134.35 1901.82 134.46 1905.21 134.57 1908.59 134.68 1911.98 134.79 1915.37 134.9 1918.77 135.01 1922.17 135.12 1925.55 135.22 1928.94 135.32 1932.33 135.43 1935.72 135.53 1939.11 135.63 1942.5 135.74 1945.9 135.84 1949.3 135.94 1952.69 136.04 1956.08 136.14 1959.47 136.23 1962.86 136.33 1966.25 136.43 1969.64 136.53 1973.04 136.63 1976.45 136.72 1979.84 136.81 1983.23 136.9 1986.62 136.99 1990.01 137.08 1993.4 137.17 1996.79 137.26 2000.19 137.35 2003.6 137.43 2006.99 137.51 2010.38 137.59 2013.77 137.67 2017.16 137.75 2020.55 137.83 2023.94 137.91 2027.34 137.99 2030.75 138.06 2034.14 138.13 2037.53 138.2 2040.92 138.27 2044.31 138.34 2047.7 138.41 2051.09 138.48 2054.5 138.55 2057.91 138.61 2061.3 138.67 2064.69 138.73 2068.08 138.78 2071.47 138.84 2074.86 138.9 2078.25 138.96 2081.66 139.01 2085.07 139.06 2088.46 139.1 2091.85 139.15 2095.24 139.19 2098.63 139.23 2102.02 139.28 2105.41 139.32 2108.82 139.37 2112.23 139.4 2115.62 139.43 2119.01 139.46 2122.4 139.49 2125.79 139.52 2129.18 139.55 2132.57 139.58 2135.98 139.61 2139.4 139.63 2142.79 139.65 2146.18 139.67 2149.57 139.69 2152.96 139.71 2156.35 139.73 2159.74 139.75 2163.16 139.77 2166.58 139.77C2166.58 139.77 2169.97 139.77 2169.97 139.77L2173.36 139.77C2173.36 139.77 2176.75 139.77 2176.75 139.77L2180.14 139.77C2180.14 139.77 2183.53 139.77 2183.53 139.77L2186.92 139.77C2186.92 139.77 2190.31 139.77 2190.31 139.77 2197.49 139.78 2203.33 133.97 2203.34 126.79 2203.35 119.61 2197.54 113.77 2190.36 113.76L2186.97 113.76C2186.97 113.76 2183.58 113.74 2183.58 113.74L2180.19 113.74C2180.19 113.74 2176.8 113.72 2176.8 113.72L2173.41 113.72C2173.41 113.72 2170.02 113.7 2170.02 113.7L2166.63 113.7C2166.63 113.7 2163.27 113.68 2163.27 113.68L2159.91 113.66 2156.52 113.64 2153.13 113.62 2149.74 113.6 2146.35 113.58 2142.96 113.56 2139.57 113.54 2136.21 113.52 2132.85 113.48 2129.46 113.44 2126.07 113.4 2122.68 113.36 2119.29 113.32 2115.9 113.28 2112.51 113.24 2109.15 113.2 2105.78 113.15 2102.39 113.1 2099 113.05 2095.61 113 2092.22 112.95 2088.83 112.9 2085.44 112.85 2082.08 112.8 2078.72 112.74 2075.33 112.68 2071.94 112.62 2068.55 112.56 2065.16 112.5 2061.77 112.44 2058.38 112.38 2055.01 112.32 2051.64 112.25 2048.25 112.18 2044.86 112.11 2041.47 112.04 2038.08 111.97 2034.69 111.9 2031.3 111.83 2027.93 111.76 2024.56 111.68 2021.17 111.6 2017.78 111.52 2014.39 111.44 2011 111.36 2007.61 111.28 2004.22 111.2 2000.85 111.12 1997.48 111.03 1994.09 110.94 1990.7 110.85 1987.31 110.76 1983.92 110.67 1980.53 110.58 1977.14 110.49 1973.77 110.4 1970.4 110.3 1967.01 110.2 1963.62 110.1 1960.23 110 1956.84 109.9 1953.45 109.8 1950.07 109.7 1946.7 109.6 1943.33 109.49 1939.95 109.38 1936.56 109.27 1933.17 109.16 1929.78 109.05 1926.39 108.94 1923.01 108.83 1919.64 108.72 1916.27 108.6 1912.88 108.48 1909.5 108.37 1906.11 108.25 1902.72 108.13 1899.34 108.01 1895.95 107.9 1892.58 107.78 1889.21 107.66 1885.83 107.54 1882.44 107.42 1879.06 107.3 1875.67 107.18 1872.28 107.06 1868.89 106.94 1865.53 106.82 1862.17 106.68 1858.78 106.54 1855.4 106.4 1852.01 106.26 1848.62 106.12 1845.23 105.98 1841.85 105.84 1838.46 105.7 1835.07 105.56 1831.69 105.42 1828.3 105.28 1824.91 105.14 1821.53 105 1818.14 104.86 1814.75 104.72 1811.37 104.58 1807.99 104.44 1804.6 104.3 1801.22 104.16 1797.84 104.02 1794.45 103.88 1791.07 103.74 1787.68 103.6 1784.29 103.46 1780.91 103.32 1777.52 103.18 1774.13 103.04 1770.75 102.9 1767.36 102.76 1763.97 102.62 1760.59 102.48 1757.24 102.34 1753.89 102.19 1750.51 102.04 1747.13 101.88 1743.74 101.72 1740.36 101.56 1736.98 101.41 1733.59 101.25 1730.21 101.09 1726.83 100.94 1723.44 100.78 1720.05 100.62 1716.67 100.46 1713.29 100.31 1709.9 100.15 1706.52 99.99 1703.14 99.83 1699.76 99.68 1696.37 99.52 1692.99 99.36 1689.61 99.2 1686.22 99.05 1682.84 98.89 1679.46 98.73 1676.07 98.58 1672.69 98.42 1669.31 98.26 1665.93 98.1 1662.54 97.95 1659.16 97.79 1655.78 97.63 1652.39 97.47 1649.02 97.32 1645.65 97.16 1642.27 97 1638.88 96.84 1635.5 96.68 1632.12 96.52 1628.74 96.36 1625.35 96.2 1621.97 96.04 1618.59 95.88 1615.2 95.72 1611.82 95.56 1608.44 95.4 1605.06 95.24 1601.67 95.08 1598.29 94.92 1594.91 94.76 1591.53 94.6 1588.14 94.44 1584.76 94.28 1581.38 94.12 1577.99 93.96 1574.61 93.8 1571.23 93.64 1567.85 93.48 1564.46 93.32 1561.08 93.16 1557.7 93 1554.32 92.84 1550.93 92.68 1547.55 92.52 1544.17 92.36 1540.78 92.2 1537.39 92.04 1534.01 91.88 1530.63 91.72 1527.25 91.56 1523.87 91.4 1520.49 91.24 1517.1 91.08 1513.72 90.92 1510.34 90.76 1506.96 90.6 1503.57 90.44 1500.19 90.28 1496.81 90.12 1493.43 89.96 1490.04 89.8 1486.65 89.64 1483.26 89.49 1479.88 89.34 1476.5 89.19 1473.11 89.04 1469.73 88.89 1466.35 88.74 1462.97 88.59 1459.59 88.44 1456.21 88.29 1452.83 88.14 1449.45 87.99 1446.06 87.84 1442.68 87.69 1439.3 87.54 1435.92 87.39 1432.52 87.23 1429.12 87.09 1425.73 86.94 1422.35 86.8 1418.97 86.66 1415.59 86.52 1412.21 86.37 1408.82 86.23 1405.44 86.09 1402.06 85.94 1398.68 85.8 1395.29 85.66 1391.91 85.51 1388.53 85.37 1385.15 85.23 1381.76 85.08 1378.36 84.94 1374.96 84.8 1371.57 84.66 1368.19 84.52 1364.81 84.38 1361.43 84.24 1358.04 84.1 1354.66 83.96 1351.26 83.82 1347.86 83.69 1344.48 83.56 1341.09 83.43 1337.71 83.3 1334.33 83.17 1330.95 83.04 1327.56 82.91 1324.16 82.78 1320.76 82.65 1317.37 82.52 1313.99 82.39 1310.61 82.26 1307.23 82.14 1303.84 82.01 1300.46 81.88 1297.06 81.75 1293.66 81.63 1290.27 81.51 1286.89 81.39 1283.51 81.27 1280.13 81.15 1276.74 81.03 1273.36 80.91 1269.96 80.79 1266.56 80.68 1263.18 80.57 1259.8 80.46 1256.42 80.35 1253.03 80.24 1249.65 80.13 1246.27 80.02 1242.87 79.91 1239.47 79.81 1236.09 79.71 1232.7 79.61 1229.32 79.51 1225.94 79.41 1222.56 79.31 1219.18 79.21 1215.78 79.11 1212.38 79.02 1208.99 78.93 1205.61 78.84 1202.23 78.75 1198.85 78.66 1195.47 78.57 1192.09 78.48 1188.69 78.39 1185.29 78.31 1181.91 78.22 1178.52 78.14 1175.14 78.05 1171.76 77.97 1168.38 77.89 1164.99 77.8 1161.58 77.72 1158.17 77.65 1154.79 77.58 1151.41 77.51 1148.02 77.44 1144.64 77.37 1141.26 77.3 1137.88 77.23 1134.47 77.16 1131.07 77.1 1127.69 77.04 1124.31 76.97 1120.93 76.91 1117.54 76.85 1114.16 76.79 1110.78 76.73 1107.37 76.66 1103.96 76.61 1100.58 76.56 1097.2 76.51 1093.81 76.46 1090.43 76.41 1087.05 76.36 1083.67 76.31 1080.26 76.26 1076.85 76.22 1073.47 76.18 1070.08 76.14 1066.7 76.1 1063.32 76.06 1059.94 76.02 1056.55 75.98 1053.14 75.94 1049.73 75.91 1046.35 75.88 1042.96 75.85 1039.58 75.82 1036.2 75.79 1032.81 75.76 1029.43 75.73 1026.02 75.7 1022.61 75.7C1022.61 75.7 1019.23 75.67 1019.23 75.67L1015.85 75.67C1015.85 75.67 1012.46 75.64 1012.46 75.64L1009.08 75.64C1009.08 75.64 1005.7 75.62 1005.7 75.62L1002.32 75.62C1002.32 75.62 998.91 75.59 998.91 75.59L992.11 75.59C992.11 75.59 988.73 75.59 988.73 75.59L981.96 75.59C981.96 75.59 978.58 75.59 978.58 75.59L975.2 75.59C975.2 75.59 971.79 75.59 971.79 75.59L968.38 75.59C968.38 75.59 965 75.62 965 75.62L961.61 75.64 958.23 75.66 954.85 75.66C954.85 75.66 951.46 75.69 951.46 75.69L948.08 75.71 944.66 75.73 941.24 75.76 937.86 75.79 934.47 75.82 931.09 75.85 927.71 75.88 924.32 75.91 920.94 75.94 917.52 75.97 914.1 76.02 910.71 76.07 907.32 76.12 903.94 76.17 900.55 76.22 897.17 76.27 893.79 76.32 890.37 76.37 886.24 76.45 882.14 76.52 878.04 76.59 873.94 76.66 869.84 76.73 865.74 76.8 861.64 76.87 857.51 76.94 853.38 77.03 849.27 77.12 845.17 77.21 841.06 77.3 836.96 77.39 832.85 77.48 828.74 77.57 824.61 77.66 820.48 77.77 816.37 77.88 812.26 77.99 808.15 78.1 804.04 78.21 799.93 78.32 795.82 78.43 791.69 78.54 787.56 78.66 783.45 78.78 779.34 78.9 775.23 79.02 771.12 79.14 767.01 79.26 762.9 79.38 758.76 79.5 754.62 79.64 750.51 79.78 746.4 79.92 742.29 80.06 738.18 80.2 734.07 80.34 729.96 80.48 725.82 80.62 721.68 80.78 717.57 80.94 713.46 81.1 709.35 81.26 705.24 81.42 701.13 81.58 697.02 81.74 692.88 81.9 688.75 82.07 684.64 82.24 680.53 82.41 676.42 82.58 672.31 82.75 668.2 82.92 664.09 83.09 659.95 83.26 655.81 83.45 651.7 83.64 647.59 83.83 643.48 84.02 639.37 84.21 635.26 84.4 631.15 84.59 627.01 84.78 622.87 84.99 618.76 85.2 614.65 85.41 610.54 85.62 606.43 85.83 602.32 86.04 598.22 86.25 594.09 86.46 589.96 86.69 585.86 86.92 581.76 87.15 577.66 87.38 573.56 87.61 569.46 87.84 565.36 88.07 561.23 88.3 557.1 88.55 553 88.8 548.9 89.05 544.8 89.3 540.7 89.55 536.6 89.8 532.5 90.05 528.37 90.3 524.24 90.57 520.15 90.84 516.06 91.1 511.97 91.37 507.88 91.64 503.79 91.9 499.7 92.17 495.57 92.44 492.78 92.64 489.98 92.84 487.14 93.07 484.3 93.3 481.42 93.55 478.55 93.8 475.64 94.07 472.73 94.34 469.78 94.64 466.83 94.94 463.84 95.26 460.86 95.58 457.84 95.91 454.82 96.25 451.77 96.6 448.72 96.95 445.64 97.31 442.56 97.67 439.45 98.05 436.34 98.42 433.21 98.81 430.08 99.2 426.92 99.59 423.76 99.98 420.57 100.39 417.39 100.79 414.21 101.19 411.03 101.59 407.8 102 404.57 102.41 401.34 102.82 398.13 103.23 394.88 103.64 391.62 104.05 388.36 104.46 385.12 104.87 381.85 105.27 378.56 105.67 375.27 106.07 372.02 106.47 368.75 106.85 365.44 107.23 362.13 107.61 358.88 107.99 355.61 108.34 352.29 108.7 348.97 109.06 345.69 109.42 342.41 109.75 339.12 110.08 335.83 110.4 332.55 110.72 329.27 111.02 325.99 111.32 322.71 111.6 319.44 111.88 316.18 112.13 312.92 112.38 309.67 112.61 306.42 112.84 303.18 113.04 299.95 113.24 296.73 113.42 293.52 113.59 290.32 113.73 287.12 113.87 283.94 113.98 280.76 114.09 277.6 114.17 274.45 114.25 271.32 114.29 268.19 114.34 265.08 114.34C265.08 114.34 261.98 114.36 261.98 114.36L258.91 114.33 255.85 114.3 252.81 114.23 249.77 114.16 246.75 114.05 243.75 113.94 240.78 113.78 237.82 113.62 234.89 113.42 231.96 113.22 229.06 112.97 226.18 112.73 223.34 112.44 220.5 112.14 217.7 111.8 214.9 111.45 212.13 111.06 209.39 110.67 206.69 110.22 204 109.78 201.36 109.28 198.63 108.76 198.56 108.74 198.8 108.81 199.47 109.04 200.8 109.68 203.28 111.5 206.45 115.94 207.52 123.57 205.05 129.72 202.61 132.3 201.06 133.37 200.15 133.84 199.76 134.01 199.67 134.04 199.78 134 200.09 133.92 200.54 133.81 201.1 133.68 201.69 133.55 203.34 133.22 205.18 132.89 207.25 132.55 209.47 132.2 211.82 131.85 214.26 131.5 216.75 131.16 219.26 130.82 221.75 130.49 224.2 130.16 226.58 129.84 228.83 129.53 229.93 129.38 230.99 129.23 232.01 129.08 232.99 128.93 233.93 128.78 234.79 128.64 237.6 128.18 240.4 127.72 243.2 127.26 245.98 126.81 248.76 126.36 251.57 125.91 254.37 125.46 257.17 125.01 259.97 124.56 262.78 124.11 265.58 123.66 268.39 123.21 271.2 122.76 274.01 122.31 276.81 121.86 279.63 121.41 282.45 120.95 285.25 120.49 288.05 120.04 290.89 119.58 293.72 119.1 296.52 118.63 299.32 118.16 302.16 117.68 305 117.19 307.8 116.71 310.6 116.23 313.46 115.73 316.31 115.21 319.1 114.7 321.89 114.19 324.75 113.67 327.61 113.12 330.4 112.58 333.19 112.05 336.05 111.5 338.91 110.92 341.69 110.35 344.47 109.79 347.35 109.2 350.22 108.58 352.99 107.98 355.76 107.38 358.64 106.75 361.51 106.08 364.27 105.43 367.03 104.79 369.82 104.14 373.23 103.33 376.61 102.53 379.99 101.73 383.31 100.94 386.62 100.18 389.99 99.41 393.37 98.64 396.68 97.88 399.99 97.15 403.36 96.41 406.73 95.67 410.04 94.94 413.35 94.24 416.71 93.53 420.07 92.82 423.37 92.12 426.67 91.45 430.03 90.77 433.39 90.09 436.69 89.42 439.99 88.78 443.35 88.13 446.7 87.48 450 86.84 453.3 86.23 456.65 85.6 460 84.97 463.3 84.36 466.59 83.77 469.94 83.17 473.29 82.57 476.58 81.98 479.87 81.42 483.22 80.85 486.57 80.28 489.87 79.72 493.17 79.18 496.52 78.63 499.87 78.08 503.17 77.54 506.47 77.03 509.82 76.51 513.17 75.99 516.47 75.47 519.78 74.98 523.14 74.48 526.5 73.98 529.81 73.49 533.13 73.02 536.49 72.54 539.85 72.06 543.16 71.59 546.48 71.14 549.85 70.69 553.22 70.24 556.54 69.79 559.86 69.36 563.24 68.93 566.61 68.5 569.94 68.07 573.28 67.66 576.66 67.25 580.04 66.84 583.38 66.43 586.72 66.04 590.11 65.65 593.5 65.26 596.85 64.87 600.21 64.5 603.61 64.13 607.01 63.76 610.37 63.39 613.74 63.04 617.15 62.69 620.56 62.33 623.93 61.98 627.31 61.65 630.73 61.31 634.15 60.97 637.53 60.64 640.93 60.32 644.37 60 647.81 59.68 651.21 59.36 654.63 59.06 658.08 58.76 661.53 58.46 664.94 58.16 668.37 57.87 671.84 57.58 675.31 57.29 678.74 57 682.19 56.73 685.67 56.46 689.15 56.19 692.61 55.92 695.16 55.73 697.74 55.54 700.32 55.35 702.9 55.16 705.48 54.97 708.06 54.78 710.64 54.59 713.2 54.4 715.76 54.21 718.34 54.02 720.91 53.83 723.49 53.64 726.07 53.45 728.64 53.27 731.22 53.08 733.78 52.89 736.34 52.71 738.91 52.53 741.48 52.35 744.05 52.17 746.62 51.99 749.19 51.81 751.76 51.63 754.32 51.45 756.87 51.28 759.44 51.1 762.01 50.93 764.58 50.76 767.15 50.59 769.72 50.42 772.29 50.24 774.84 50.07 777.39 49.9 779.96 49.73 782.53 49.56 785.1 49.39 787.67 49.22 790.24 49.05 792.81 48.88 795.36 48.71 797.91 48.55 800.47 48.39 803.04 48.23 805.61 48.07 808.17 47.91 810.74 47.75 813.3 47.59 815.84 47.43 818.38 47.28 820.94 47.13 823.5 46.98 826.06 46.83 828.63 46.68 831.19 46.53 833.75 46.38 836.31 46.23 838.87 46.08 841.43 45.93 843.99 45.78 846.55 45.63 849.11 45.48 851.67 45.33 854.23 45.18 856.76 45.03 859.28 44.89 861.84 44.75 864.4 44.61 866.96 44.47 869.52 44.33 872.08 44.19 874.64 44.05 877.2 43.91 879.76 43.77 882.32 43.63 884.88 43.49 887.44 43.35 890 43.21 892.56 43.07 895.12 42.93 897.64 42.79 900.16 42.67 902.72 42.54 905.28 42.41 907.84 42.28 910.4 42.15 912.95 42.02 915.51 41.89 918.07 41.76 920.63 41.63 923.19 41.5 925.75 41.37 928.31 41.24 930.87 41.11 933.43 40.98 935.99 40.85 938.51 40.72 941.03 40.61 943.58 40.49 946.13 40.38 948.68 40.27 951.23 40.16 953.78 40.05 956.33 39.94 958.88 39.82 961.43 39.71 963.98 39.6 966.53 39.49 969.08 39.38 971.63 39.26 974.18 39.15 976.73 39.04 979.25 38.93 981.77 38.83 984.32 38.73 986.87 38.63 989.42 38.53 991.97 38.43 994.52 38.33 997.07 38.23 999.62 38.13 1002.17 38.03 1004.72 37.93 1007.27 37.83 1009.82 37.73 1012.37 37.63 1014.92 37.53 1017.47 37.43 1019.99 37.33 1022.51 37.24 1025.06 37.15 1027.61 37.06 1030.16 36.97 1032.71 36.88 1035.26 36.79 1037.81 36.7 1040.36 36.61 1042.91 36.52 1045.46 36.43 1048.01 36.34 1050.56 36.25 1053.11 36.16 1055.66 36.07 1058.21 35.98 1060.73 35.89 1063.25 35.81 1065.8 35.73 1068.35 35.65 1070.9 35.57 1073.45 35.49 1076 35.41 1078.55 35.33 1081.1 35.25 1083.65 35.17 1086.2 35.09 1088.75 35.01 1091.3 34.93 1093.85 34.85 1096.4 34.77 1098.95 34.69 1101.47 34.61 1103.99 34.54 1106.54 34.47 1109.09 34.4 1111.64 34.33 1114.19 34.26 1116.74 34.19 1119.29 34.12 1121.84 34.05 1124.39 33.98 1126.94 33.91 1129.49 33.84 1132.04 33.77 1134.59 33.7 1137.14 33.63 1139.69 33.56 1142.21 33.49 1144.73 33.43 1147.28 33.37 1149.83 33.31 1152.38 33.25 1154.93 33.19 1157.48 33.13 1160.03 33.07 1162.58 33.01 1165.13 32.95 1167.68 32.89 1170.23 32.83 1172.78 32.77 1175.33 32.71 1177.88 32.65 1180.43 32.59 1182.95 32.53 1185.47 32.48 1188.02 32.43 1190.57 32.38 1193.12 32.33 1195.67 32.28 1198.22 32.23 1200.77 32.18 1203.32 32.13 1205.87 32.08 1208.42 32.03 1210.97 31.98 1213.52 31.93 1216.07 31.88 1218.62 31.83 1221.17 31.78 1223.69 31.73 1226.21 31.69 1228.76 31.65 1231.31 31.61 1233.86 31.57 1236.41 31.53 1238.96 31.49 1241.51 31.45 1244.06 31.41 1246.61 31.37 1249.16 31.33 1251.71 31.29 1254.26 31.25 1256.81 31.21 1259.36 31.17 1261.91 31.13 1264.43 31.09 1266.95 31.06 1269.5 31.03 1272.05 31 1274.6 30.97 1277.15 30.94 1279.7 30.91 1282.25 30.88 1284.8 30.85 1287.35 30.82 1289.9 30.79 1292.45 30.76 1295 30.73 1297.55 30.7 1300.1 30.67 1302.65 30.64 1305.17 30.61 1307.7 30.59 1310.25 30.57 1312.8 30.55 1315.35 30.53 1317.9 30.51 1320.45 30.49 1323 30.47 1325.55 30.45 1328.1 30.43 1330.65 30.41 1333.2 30.39 1335.75 30.37 1338.3 30.35 1340.85 30.33 1343.4 30.31 1345.92 30.29 1348.45 30.29C1348.45 30.29 1351 30.27 1351 30.27L1353.56 30.27C1353.56 30.27 1356.11 30.25 1356.11 30.25L1358.67 30.25C1358.67 30.25 1361.22 30.23 1361.22 30.23L1363.77 30.23C1363.77 30.23 1366.33 30.21 1366.33 30.21L1368.88 30.21C1368.88 30.21 1371.44 30.18 1371.44 30.18L1373.99 30.18C1373.99 30.18 1376.55 30.16 1376.55 30.16L1379.1 30.16C1379.1 30.16 1381.66 30.14 1381.66 30.14L1384.21 30.14C1384.21 30.14 1386.74 30.12 1386.74 30.12L1389.27 30.12C1389.27 30.12 1391.83 30.12 1391.83 30.12L1394.39 30.12C1394.39 30.12 1396.95 30.12 1396.95 30.12L1399.51 30.12C1399.51 30.12 1402.07 30.12 1402.07 30.12L1404.63 30.12C1404.63 30.12 1407.19 30.12 1407.19 30.12L1409.75 30.12C1409.75 30.12 1412.31 30.12 1412.31 30.12L1414.87 30.12C1414.87 30.12 1417.43 30.12 1417.43 30.12L1419.99 30.12C1419.99 30.12 1422.55 30.12 1422.55 30.12L1425.11 30.12C1425.11 30.12 1427.65 30.12 1427.65 30.12L1430.19 30.12C1430.19 30.12 1432.75 30.12 1432.75 30.12L1435.31 30.12C1435.31 30.12 1437.87 30.12 1437.87 30.12L1440.43 30.12C1440.43 30.12 1442.99 30.12 1442.99 30.12L1445.55 30.12C1445.55 30.12 1448.11 30.12 1448.11 30.12L1450.67 30.12C1450.67 30.12 1453.23 30.12 1453.23 30.12L1455.79 30.12C1455.79 30.12 1458.35 30.12 1458.35 30.12L1460.91 30.12C1460.91 30.12 1463.47 30.12 1463.47 30.12L1466.03 30.12C1466.03 30.12 1468.57 30.12 1468.57 30.12L1471.11 30.12C1471.11 30.12 1473.68 30.14 1473.68 30.14L1476.25 30.14C1476.25 30.14 1478.81 30.16 1478.81 30.16L1481.38 30.16C1481.38 30.16 1483.94 30.19 1483.94 30.19L1486.5 30.19C1486.5 30.19 1489.07 30.21 1489.07 30.21L1491.63 30.21C1491.63 30.21 1494.19 30.23 1494.19 30.23L1496.76 30.23C1496.76 30.23 1499.32 30.25 1499.32 30.25L1501.89 30.25C1501.89 30.25 1504.45 30.27 1504.45 30.27L1507.01 30.27C1507.01 30.27 1509.55 30.3 1509.55 30.3L1512.09 30.32 1514.66 30.34 1517.23 30.36 1519.8 30.38 1522.37 30.4 1524.94 30.42 1527.51 30.44 1530.08 30.46 1532.65 30.48 1535.22 30.5 1537.79 30.52 1540.36 30.54 1542.93 30.56 1545.5 30.58 1548.07 30.6 1550.62 30.62 1553.17 30.65 1555.75 30.68 1558.32 30.71 1560.89 30.74 1563.47 30.77 1566.04 30.8 1568.61 30.83 1571.18 30.86 1573.76 30.89 1576.33 30.92 1578.9 30.95 1581.48 30.98 1584.05 31.01 1586.62 31.04 1589.19 31.07 1591.74 31.1 1594.3 31.14 1596.88 31.17 1599.46 31.21 1602.04 31.24 1604.62 31.28 1607.2 31.32 1609.78 31.35 1612.36 31.39 1614.94 31.43 1617.52 31.46 1620.1 31.5 1622.68 31.53 1625.26 31.57 1627.84 31.61 1630.42 31.64 1632.98 31.68 1635.55 31.72 1638.14 31.76 1640.73 31.8 1643.32 31.84 1645.91 31.88 1648.5 31.92 1651.09 31.96 1653.68 32 1656.27 32.04 1658.86 32.08 1661.45 32.12 1664.04 32.16 1666.63 32.2 1669.22 32.24 1671.81 32.28 1674.38 32.32 1678.69 32.4 1683.01 32.48 1687.32 32.56 1691.63 32.64 1695.92 32.72 1700.21 32.8 1704.5 32.88 1708.78 32.96 1713.04 33.05 1717.32 33.14 1721.6 33.23 1725.86 33.32 1730.11 33.41 1734.37 33.5 1738.63 33.6 1742.87 33.69 1747.1 33.79 1751.35 33.89 1755.6 34 1759.82 34.1 1764.03 34.21 1768.26 34.32 1772.49 34.43 1776.7 34.54 1780.9 34.67 1785.12 34.8 1789.34 34.93 1793.54 35.06 1797.72 35.2 1801.93 35.34 1806.14 35.48 1810.32 35.62 1814.49 35.78 1818.69 35.94 1822.89 36.1 1827.06 36.26 1831.23 36.43 1835.43 36.6 1839.63 36.77 1843.79 36.94 1847.95 37.13 1852.14 37.32 1856.33 37.51 1860.49 37.7 1864.64 37.91 1868.83 38.12 1873.02 38.33 1877.17 38.54 1881.32 38.77 1885.51 39 1889.7 39.23 1893.85 39.46 1898 39.71 1902.19 39.96 1906.38 40.21 1910.52 40.46 1914.67 40.73 1918.86 41.01 1923.05 41.29 1927.2 41.56 1931.36 41.86 1935.56 42.16 1939.76 42.46 1943.91 42.76 1948.06 43.09 1952.26 43.42 1956.46 43.75 1960.61 44.08 1964.77 44.44 1968.98 44.8 1973.19 45.16 1977.35 45.52 1981.52 45.91 1985.74 46.3 1989.96 46.69 1994.12 47.07 1998.3 47.48 2002.53 47.9 2006.76 48.32 2010.94 48.74 2015.13 49.19 2019.38 49.64 2023.63 50.09 2027.82 50.54 2032.03 51.02 2036.29 51.51 2040.55 52 2044.75 52.48 2048.97 53 2053.25 53.52 2057.53 54.04 2061.74 54.56 2065.97 55.12 2070.27 55.68 2074.57 56.25 2078.86 56.81 2082.58 57.3 2086.31 57.79 2090.04 58.28 2093.8 58.78 2097.56 59.26 2101.29 59.73 2105.02 60.21 2108.74 60.68 2112.46 61.16 2116.19 61.64 2119.92 62.12 2123.62 62.59 2127.32 63.08 2131.02 63.57 2134.72 64.07 2138.4 64.57 2142.08 65.09 2145.76 65.61 2149.44 66.15 2153.1 66.69 2156.76 67.25 2160.41 67.81 2164.05 68.4 2167.71 69 2169.65 69.33 2171.7 69.7 2173.85 70.11 2176.08 70.55 2178.37 71.02 2180.73 71.51 2183.19 72.04 2185.65 72.57 2188.19 73.13 2190.75 73.7 2193.36 74.29 2195.99 74.88 2198.65 75.48 2201.32 76.09 2204.01 76.7 2206.71 77.31 2209.4 77.92 2212.09 78.53 2214.78 79.13 2217.46 79.72 2220.11 80.29 2222.74 80.85 2225.34 81.39 2227.91 81.91 2230.45 82.41 2232.95 82.89 2235.4 83.34 2237.8 83.76 2240.16 84.15 2242.46 84.5 2244.71 84.82 2246.91 85.1 2249.05 85.33 2251.15 85.52 2253.23 85.65 2255.26 85.72 2257.29 85.72C2257.29 85.72 2259.38 85.63 2259.38 85.63L2261.49 85.42 2263.73 85.05 2266.25 84.39 2268.99 83.3 2272.05 81.48 2275.32 78.41 2277.91 74.21 2279.25 69.38 2279.25 64.7C2279.25 64.7 2278.3 60.75 2278.3 60.75L2276.57 57.09 2274.23 53.96 2271.89 51.71 2269.6 49.98 2267.3 48.58 2265.07 47.44 2262.84 46.46 2260.55 45.57 2258.24 44.78 2255.88 44.05 2253.43 43.37 2250.93 42.74 2248.37 42.15 2245.73 41.59 2243.04 41.07 2240.3 40.57 2237.5 40.1 2234.63 39.65 2231.78 39.24 2228.9 38.83 2225.96 38.46 2223.04 38.09 2220.09 37.76 2217.18 37.44 2214.23 37.13 2211.32 36.84 2208.45 36.57 2205.61 36.32 2202.82 36.09 2200.09 35.87 2197.42 35.66 2194.82 35.47 2192.31 35.29 2189.89 35.13 2187.57 34.98 2185.37 34.85 2183.28 34.73 2181.32 34.62 2179.5 34.52 2177.82 34.43 2176.3 34.36 2174.95 34.3 2173.77 34.25 2172.78 34.21 2171.99 34.18 2171.66 34.18C2171.66 34.18 2171.4 34.16 2171.4 34.16L2171.2 34.16C2171.2 34.16 2171.07 34.15 2171.07 34.15L2171.05 34.15C2171.05 34.15 2171.63 34.19 2171.63 34.19L2167.17 33.79 2162.7 33.39 2158.23 32.99 2153.72 32.59 2149.2 32.22 2144.73 31.85 2140.26 31.48 2135.75 31.1 2131.23 30.75 2126.75 30.4 2122.28 30.05 2117.77 29.7 2113.25 29.37 2108.78 29.05 2104.3 28.73 2099.78 28.4 2095.26 28.1 2090.78 27.8 2086.3 27.5 2081.78 27.2 2077.26 26.92 2072.78 26.64 2068.3 26.36 2063.78 26.08 2059.26 25.82 2054.78 25.56 2050.3 25.3 2045.78 25.04 2041.26 24.8 2036.78 24.56 2032.3 24.32 2027.78 24.08 2023.26 23.86 2018.78 23.64 2014.29 23.42 2009.77 23.2 2005.25 23 2000.76 22.8 1996.27 22.6 1991.75 22.4 1987.23 22.22 1982.74 22.04 1978.25 21.86 1973.73 21.68 1969.21 21.52 1964.72 21.36 1960.23 21.2 1955.7 21.04 1951.17 20.9 1946.68 20.76 1942.19 20.62 1937.7 20.48 1933.21 20.34 1928.72 20.2 1924.23 20.06 1919.68 19.92 1915.13 19.81 1910.64 19.7 1906.15 19.59 1901.66 19.48 1897.17 19.37 1892.68 19.26 1888.19 19.15 1883.65 19.04 1879.11 18.96 1874.62 18.88 1870.13 18.8 1865.64 18.72 1861.15 18.64 1856.66 18.56 1852.17 18.48 1847.64 18.4 1843.11 18.34 1838.62 18.29 1834.13 18.23 1829.64 18.18 1825.15 18.13 1820.66 18.08 1816.17 18.02 1811.64 17.97 1807.11 17.94 1802.62 17.91 1798.13 17.88 1793.64 17.85 1789.15 17.82 1784.66 17.79 1780.17 17.76 1775.64 17.73 1771.12 17.73C1771.12 17.73 1766.63 17.71 1766.63 17.71L1762.14 17.71C1762.14 17.71 1757.65 17.69 1757.65 17.69L1753.16 17.69C1753.16 17.69 1748.67 17.67 1748.67 17.67L1744.18 17.67C1744.18 17.67 1739.7 17.65 1739.7 17.65L1736.31 17.63 1732.9 17.63C1732.9 17.63 1729.5 17.6 1729.5 17.6L1726.09 17.58 1722.68 17.58C1722.68 17.58 1719.27 17.55 1719.27 17.55L1715.86 17.53 1712.45 17.53C1712.45 17.53 1709.04 17.5 1709.04 17.5L1705.63 17.48 1702.22 17.48C1702.22 17.48 1698.81 17.45 1698.81 17.45L1695.4 17.45C1695.4 17.45 1691.99 17.42 1691.99 17.42L1688.58 17.4 1685.18 17.4C1685.18 17.4 1681.77 17.37 1681.77 17.37L1678.37 17.35 1674.96 17.35C1674.96 17.35 1671.56 17.32 1671.56 17.32L1668.15 17.32C1668.15 17.32 1664.75 17.29 1664.75 17.29L1661.35 17.27 1657.94 17.27C1657.94 17.27 1654.53 17.24 1654.53 17.24L1651.12 17.22 1647.72 17.22C1647.72 17.22 1644.31 17.19 1644.31 17.19L1640.91 17.19C1640.91 17.19 1637.5 17.16 1637.5 17.16L1634.09 17.14 1630.74 17.14C1630.74 17.14 1627.38 17.09 1627.38 17.09L1623.97 17.05 1620.56 17.01 1617.15 16.97 1613.74 16.93 1610.33 16.89 1606.92 16.85 1603.51 16.81 1600.1 16.77 1596.69 16.73 1593.28 16.69 1589.87 16.65 1586.46 16.61 1583.05 16.57 1579.64 16.53 1576.23 16.49 1572.82 16.45 1569.41 16.41 1566 16.37 1562.59 16.33 1559.18 16.29 1555.77 16.25 1552.36 16.21 1548.95 16.17 1545.54 16.13 1542.13 16.09 1538.72 16.05 1535.31 16.01 1531.9 15.97 1528.49 15.93 1525.08 15.89 1521.7 15.85 1518.32 15.8 1514.91 15.75 1511.5 15.7 1508.09 15.65 1504.68 15.6 1501.27 15.55 1497.86 15.5 1494.45 15.45 1491.04 15.4 1487.63 15.35 1484.22 15.3 1480.81 15.25 1477.4 15.2 1473.99 15.15 1470.58 15.1 1467.17 15.05 1463.76 15 1460.35 14.95 1456.94 14.9 1453.53 14.85 1450.12 14.8 1446.71 14.75 1443.3 14.7 1439.89 14.65 1436.48 14.6 1433.07 14.55 1429.66 14.5 1426.25 14.45 1422.84 14.4 1419.43 14.35 1416.02 14.3 1412.62 14.25 1409.22 14.2 1405.81 14.15 1402.4 14.1 1398.99 14.05 1395.58 14 1392.17 13.95 1388.76 13.9 1385.35 13.85 1381.94 13.8 1378.53 13.75 1375.12 13.7 1371.71 13.65 1368.3 13.6 1364.89 13.55 1361.48 13.5 1358.07 13.45 1354.66 13.4 1351.25 13.35 1347.84 13.3 1344.43 13.25 1341.02 13.2 1337.61 13.15 1334.2 13.1 1330.79 13.05 1327.38 13 1323.97 12.95 1320.56 12.9 1317.15 12.85 1313.74 12.8 1310.33 12.75 1306.92 12.7 1303.5 12.65 1300.08 12.6 1296.67 12.55 1293.26 12.5 1289.85 12.45 1286.44 12.4 1283.03 12.35 1279.62 12.3 1276.21 12.25 1272.8 12.2 1269.39 12.15 1265.98 12.1 1262.57 12.05 1259.16 12 1255.75 11.95 1252.34 11.9 1248.92 11.85 1245.5 11.8 1242.09 11.75 1238.68 11.7 1235.27 11.66 1231.86 11.61 1228.45 11.56 1225.04 11.51 1221.63 11.46 1218.22 11.41 1214.81 11.36 1211.4 11.31 1207.99 11.27 1204.58 11.22 1201.17 11.17 1197.76 11.12 1194.33 11.07 1190.9 11.03 1187.49 10.99 1184.08 10.95 1180.67 10.91 1177.26 10.87 1173.85 10.83 1170.44 10.79 1167.03 10.75 1163.62 10.71 1160.21 10.67 1156.8 10.63 1153.39 10.59 1149.98 10.55 1146.57 10.51 1143.16 10.47 1139.73 10.43 1136.3 10.4 1132.89 10.37 1129.48 10.34 1126.07 10.31 1122.66 10.28 1119.25 10.25 1115.84 10.22 1112.43 10.19 1109.02 10.16 1105.61 10.13 1102.2 10.1 1098.79 10.07 1095.38 10.04 1091.97 10.01 1088.56 9.98 1085.13 9.95 1081.7 9.93 1078.29 9.91 1074.88 9.89 1071.47 9.87 1068.06 9.85 1064.65 9.83 1061.24 9.81 1057.82 9.79 1054.4 9.79C1054.4 9.79 1050.99 9.76 1050.99 9.76L1047.58 9.74 1044.17 9.74C1044.17 9.74 1040.76 9.71 1040.76 9.71L1037.35 9.71C1037.35 9.71 1033.94 9.68 1033.94 9.68L1030.51 9.68C1030.51 9.68 1027.08 9.66 1027.08 9.66L1023.67 9.66C1023.67 9.66 1020.26 9.65 1020.26 9.65L1016.85 9.65C1016.85 9.65 1013.44 9.63 1013.44 9.63L1010.03 9.63C1010.03 9.63 1006.62 9.62 1006.62 9.62L1003.2 9.62C1003.2 9.62 999.77 9.62 999.77 9.62L972.46 9.62C972.46 9.62 969.05 9.64 969.05 9.64L965.64 9.64C965.64 9.64 962.23 9.66 962.23 9.66L958.82 9.66C958.82 9.66 955.41 9.68 955.41 9.68L952 9.68C952 9.68 948.57 9.7 948.57 9.7L945.14 9.72 941.73 9.74 938.32 9.76 934.91 9.78 931.5 9.8 928.09 9.82 924.68 9.84 921.25 9.86 917.82 9.89 914.41 9.91 911 9.93 907.59 9.95 904.18 9.98 900.77 10 897.36 10.02 893.93 10.04 890.5 10.08 887.09 10.12 883.68 10.15 880.27 10.19 876.86 10.23 873.46 10.26 870.05 10.3 866.62 10.34 863.19 10.39 859.79 10.44 856.38 10.49 852.97 10.54 849.56 10.59 846.16 10.64 842.75 10.68 839.32 10.73 835.89 10.78 832.48 10.84 829.08 10.9 825.67 10.96 822.26 11.01 818.85 11.07 815.45 11.13 812.02 11.19 808.59 11.26 805.18 11.33 801.78 11.4 798.37 11.47 794.96 11.54 791.55 11.61 788.14 11.68 784.71 11.75 781.27 11.83 777.87 11.91 774.46 11.99 771.06 12.07 767.66 12.15 764.25 12.23 760.84 12.31 757.41 12.39 753.98 12.48 750.58 12.57 747.17 12.66 743.76 12.75 740.36 12.84 736.95 12.93 733.54 13.02 730.1 13.11 726.66 13.22 723.25 13.33 719.85 13.43 716.44 13.53 713.03 13.64 709.63 13.74 706.22 13.85 702.78 13.95 699.34 14.07 695.94 14.19 692.54 14.31 689.14 14.43 685.74 14.55 682.34 14.67 678.93 14.79 675.49 14.91 672.06 15.04 668.66 15.17 665.26 15.3 661.86 15.43 658.46 15.56 655.06 15.69 651.66 15.82 648.22 15.95 644.78 16.1 641.38 16.25 637.98 16.4 634.58 16.55 631.18 16.7 627.78 16.85 624.37 17 620.93 17.15 617.49 17.31 614.09 17.47 610.69 17.63 607.29 17.79 603.89 17.95 600.49 18.11 597.09 18.27 593.65 18.43 590.21 18.61 586.81 18.79 583.41 18.97 580.01 19.15 576.61 19.33 573.21 19.51 569.81 19.69 566.37 19.87 562.93 20.07 559.53 20.26 556.13 20.45 552.73 20.64 549.33 20.83 545.93 21.02 542.53 21.21 539.09 21.41 535.65 21.62 532.25 21.83 528.85 22.04 525.45 22.25 522.05 22.46 518.65 22.67 515.25 22.88 511.81 23.09 508.37 23.32 504.97 23.55 501.57 23.78 498.17 24.01 494.77 24.24 491.37 24.47 487.97 24.7 484.52 24.93 481.08 25.18 477.68 25.43 474.28 25.68 470.88 25.93 467.48 26.18 464.08 26.43 460.68 26.68 457.23 26.93 453.78 27.2 450.38 27.47 446.98 27.73 443.58 28 440.18 28.26 436.78 28.53 433.38 28.79 429.78 29.07 425.3 29.52 420.98 29.95 416.66 30.38 412.34 30.81 408.02 31.24 403.7 31.67 399.38 32.1 395.06 32.53 390.74 32.96 386.42 33.39 382.1 33.82 377.78 34.25 373.46 34.68 369.14 35.11 364.82 35.54 360.23 36 355.65 36.6 351.34 37.17 347.03 37.74 342.72 38.31 338.41 38.88 334.1 39.45 329.79 40.02 325.48 40.59 321.17 41.16 316.86 41.73 312.55 42.3 308.24 42.87 303.93 43.44 299.62 44.01 295.31 44.58 290.87 45.17 286.44 45.82 282.13 46.46 277.82 47.09 273.51 47.73 269.2 48.37 264.89 49 260.58 49.64 256.27 50.28 251.96 50.91 247.65 51.55 243.34 52.19 239.03 52.82 234.72 53.46 230.41 54.1 226.1 54.73 221.78 55.37 217.45 56.02 213.14 56.66 208.83 57.3 204.53 57.94 200.23 58.58 195.92 59.22 191.61 59.86 187.32 60.5 183.03 61.13 178.72 61.76 174.41 62.39 170.12 63.02 165.83 63.64 161.52 64.26 157.21 64.88 152.93 65.5 148.65 66.1 144.34 66.71 140.03 67.32 135.76 67.92 131.49 68.5 127.17 69.09 122.86 69.68 118.59 70.26 114.31 70.82 109.99 71.38 105.67 71.94 101.41 72.5 97.14 73.03 92.82 73.56 88.5 74.09 84.24 74.62 79.98 75.11 75.66 75.61 71.33 76.11 67.07 76.6 62.8 77.06 58.47 77.53 54.14 78 49.89 78.46 45.63 78.88 41.3 79.31 36.96 79.74 32.71 80.16 28.46 80.53 24.12 80.91 19.78 81.29 15.44 81.67C6.11 82.37-0.76 90.57 0.07 99.86 0.89 109.15 9.09 116.02 18.38 115.2Z" class="MsftOfcThm_Text2_Fill_v2" stroke="none" stroke-width="1" stroke-linecap="butt" stroke-linejoin="miter" stroke-miterlimit="4" fill="currentColor" fill-opacity="1"></path></g></svg>
