<svg viewBox="0 0 1090.52 60.78" xmlns="http://www.w3.org/2000/svg" xmlns:xlink="http://www.w3.org/1999/xlink" id="Layer_2" overflow="hidden">
<defs></defs><g id="_ÎÓÈ_1"><g><path d="M5.12 46.75C2.39 46.75 0.12 44.6 0 41.85-0.12 39.02 2.07 36.63 4.9 36.51 289.76 24.27 578.07 18.11 864.31 18.11 926.91 18.11 989.35 18.4 1051.7 18.99 1054.53 19.02 1056.8 21.33 1056.78 24.16 1056.75 26.97 1054.46 29.24 1051.66 29.24 1051.64 29.24 1051.63 29.24 1051.61 29.24 704.33 25.95 352.32 31.84 5.34 46.75 5.27 46.75 5.19 46.75 5.12 46.75Z" class="MsftOfcThm_Text2_Fill_v2" stroke="none" stroke-width="1" stroke-linecap="butt" stroke-linejoin="miter" stroke-miterlimit="4" fill="currentColor" fill-opacity="1"></path><path d="M17 60.78C14.28 60.78 12.02 58.64 11.89 55.9 11.76 53.07 13.94 50.67 16.77 50.54L1085.16 0C1087.99-0.14 1090.39 2.05 1090.52 4.88 1090.65 7.71 1088.47 10.11 1085.64 10.24L17.25 60.77C17.17 60.77 17.09 60.77 17 60.77Z" class="MsftOfcThm_Text2_Fill_v2" stroke="none" stroke-width="1" stroke-linecap="butt" stroke-linejoin="miter" stroke-miterlimit="4" fill="currentColor" fill-opacity="1"></path></g></g></svg>
