<svg viewBox="0 0 1078.73 54.94" xmlns="http://www.w3.org/2000/svg" xmlns:xlink="http://www.w3.org/1999/xlink" id="Layer_2" overflow="hidden">
<defs></defs><g id="_ÎÓÈ_1"><path d="M1073.61 54.94C1073.5 54.94 1073.39 54.94 1073.28 54.93 760.29 35.29 442.87 34.9 129.84 53.77 127.13 53.93 124.76 51.95 124.44 49.25 124.12 46.55 125.97 44.08 128.64 43.61 130.93 43.21 133.2 42.81 135.49 42.42 92.15 45.87 48.87 49.88 5.66 54.45 2.85 54.75 0.32 52.71 0.03 49.89-0.26 47.07 1.77 44.55 4.59 44.26 93.11 34.89 182 27.87 270.98 23.2 321.08 17.52 371.38 13.31 421.71 10.26 288.23 10.42 154.95 12.2 22.35 15.62 19.51 15.68 17.17 13.46 17.1 10.63 17.03 7.8 19.26 5.45 22.09 5.38 348.96-3.05 680.41-1.56 1007.2 9.8 1007.24 9.8 1007.2 9.8 1007.23 9.8 1010.05 9.9 1012.26 12.26 1012.17 15.08 1012.08 17.9 1009.73 20.11 1006.9 20.04 843.47 15.26 676.88 10.38 510.56 16.28 698.85 15.29 887.17 24.77 1074.14 44.71 1076.91 45.01 1078.94 47.46 1078.7 50.24 1078.47 52.91 1076.24 54.93 1073.6 54.93ZM271.84 33.41C259.39 34.82 246.96 36.32 234.53 37.92 410.82 29.74 588.16 27.63 765.04 31.58 600.78 24.19 436.03 24.8 271.84 33.41Z" class="MsftOfcThm_Text2_Fill_v2" stroke="none" stroke-width="1" stroke-linecap="butt" stroke-linejoin="miter" stroke-miterlimit="4" fill="currentColor" fill-opacity="1"></path></g></svg>
