<svg viewBox="0 0 466.24 55.13" xmlns="http://www.w3.org/2000/svg" xmlns:xlink="http://www.w3.org/1999/xlink" id="Layer_2" overflow="hidden">
<defs></defs><g id="_ÎÓÈ_1"><path d="M57.17 55.13C54.66 55.13 52.49 53.29 52.11 50.77 51.71 48.14 53.4 45.64 55.99 45.02 124.97 28.53 195.16 16.96 265.81 10.4 178.81 11.54 91.72 18.78 5.91 32.05 3.11 32.49 0.5 30.57 0.06 27.77-0.37 24.97 1.54 22.36 4.34 21.92 117.28 4.46 232.46-2.62 346.68 0.86 362.96 1.36 380.46 2.08 398.12 4.04 400.82 4.34 402.82 6.69 402.67 9.4 402.53 12.11 400.29 14.24 397.58 14.25 306.14 14.65 214.67 23.53 124.83 40.69 169.68 38.1 213.92 35.86 256.11 33.8 320.59 30.64 393.68 27.05 462.29 43.28 465.04 43.93 466.75 46.69 466.1 49.45 465.45 52.2 462.69 53.91 459.93 53.26 392.73 37.37 320.42 40.91 256.61 44.04 193.23 47.15 125.24 50.64 57.51 55.11 57.4 55.11 57.28 55.12 57.17 55.12Z" class="MsftOfcThm_Text2_Fill_v2" stroke="none" stroke-width="1" stroke-linecap="butt" stroke-linejoin="miter" stroke-miterlimit="4" fill="currentColor" fill-opacity="1"></path></g></svg>
