<?xml version="1.0"?>
<svg id="Layer_1" data-name="Layer 1" xmlns="http://www.w3.org/2000/svg" xmlns:xlink="http://www.w3.org/1999/xlink" viewBox="0 0 311.39 162.49">
  <defs>

    <clipPath id="clippath">
      <rect fill="#000000" x="111.66" width="1.27" height="162.49"></rect>
    </clipPath>
  </defs>
  <g>
    <rect fill="#000000" x="111.66" width="1.27" height="162.49"></rect>
    <g clip-path="url(#clippath)">
      <rect fill="#000000" x="111.66" width="1.27" height="162.49"></rect>
    </g>
  </g>
  <polygon fill="#000000" points="125.58 60.14 125.58 56.11 139.84 56.11 139.84 60.14 136.15 60.83 136.15 70.47 150.2 70.47 150.2 60.83 146.51 60.14 146.51 56.11 150.2 56.11 157.08 56.11 160.77 56.11 160.77 60.14 157.08 60.83 157.08 84.8 160.77 85.49 160.77 89.5 146.51 89.5 146.51 85.49 150.2 84.8 150.2 75.63 136.15 75.63 136.15 84.8 139.84 85.49 139.84 89.5 125.58 89.5 125.58 85.49 129.25 84.8 129.25 60.83 125.58 60.14"></polygon>
  <path fill="#000000" d="M159.5,76.86c0-3.7,1.07-6.73,3.2-9.09,2.14-2.36,5.09-3.54,8.86-3.54s6.74,1.18,8.88,3.53c2.14,2.36,3.21,5.39,3.21,9.11v.48c0,3.73-1.07,6.77-3.21,9.12-2.14,2.35-5.08,3.52-8.83,3.52s-6.77-1.17-8.9-3.52c-2.14-2.35-3.2-5.39-3.2-9.12v-.48ZM166.4,77.35c0,2.26.41,4.08,1.23,5.45.82,1.37,2.14,2.05,3.97,2.05s3.09-.69,3.91-2.07c.83-1.38,1.24-3.19,1.24-5.44v-.48c0-2.2-.42-4-1.25-5.39-.84-1.39-2.15-2.09-3.95-2.09s-3.11.7-3.93,2.09c-.82,1.39-1.23,3.19-1.23,5.39v.48Z"></path>
  <path fill="#000000" d="M182.89,85.49l3.33-.69v-15.41h-3.81v-4.7h3.81v-2.75c0-2.78.83-4.93,2.48-6.43,1.66-1.51,3.98-2.26,6.97-2.26.58,0,1.18.04,1.79.13.61.08,1.27.2,2,.35l-.59,4.98c-.38-.06-.74-.12-1.1-.16-.35-.05-.77-.07-1.24-.07-1.12,0-1.97.3-2.54.89-.58.6-.86,1.45-.86,2.57v2.75h5.08v4.7h-5.08v15.41l3.33.69v4.01h-13.57v-4.01Z"></path>
  <path fill="#000000" d="M199.31,85.49l3.33-.69v-15.41h-3.81v-4.7h3.81v-2.75c0-2.78.83-4.93,2.48-6.43,1.66-1.51,3.98-2.26,6.98-2.26.58,0,1.18.04,1.78.13.61.08,1.27.2,2,.35l-.59,4.98c-.38-.06-.74-.12-1.1-.16-.35-.05-.77-.07-1.24-.07-1.12,0-1.97.3-2.54.89-.58.6-.86,1.45-.86,2.57v2.75h5.08v4.7h-5.08v15.41l3.33.69v4.01h-13.57v-4.01Z"></path>
  <path fill="#000000" d="M215.18,68.72v-4.04h10.1l.28,3.28c.82-1.19,1.85-2.11,3.09-2.76,1.24-.65,2.67-.98,4.29-.98s3.04.35,4.21,1.06c1.17.7,2.05,1.77,2.65,3.19.79-1.33,1.81-2.37,3.07-3.12s2.74-1.12,4.44-1.12c2.52,0,4.51.85,5.97,2.53,1.46,1.69,2.19,4.26,2.19,7.72v10.32l3.33.69v4.01h-13.22v-4.01l2.98-.69v-10.34c0-1.88-.31-3.19-.95-3.92-.63-.73-1.57-1.1-2.81-1.1-.98,0-1.83.21-2.54.63-.72.42-1.29,1.01-1.71,1.76,0,.29,0,.54.02.75.01.21.02.42.02.63v11.61l2.79.69v4.01h-12.46v-4.01l2.79-.69v-10.34c0-1.84-.32-3.13-.95-3.89-.63-.76-1.58-1.14-2.84-1.14-.93,0-1.74.17-2.45.52-.7.34-1.28.83-1.74,1.46v13.39l2.98.69v4.01h-13.2v-4.01l3.33-.69v-15.39l-3.69-.69Z"></path>
  <path fill="#000000" d="M274.46,89.5c-.19-.41-.35-.84-.5-1.27s-.25-.88-.33-1.32c-.82.92-1.82,1.66-2.99,2.22-1.17.57-2.52.85-4.03.85-2.51,0-4.5-.66-5.97-1.98-1.47-1.32-2.21-3.12-2.21-5.4s.96-4.12,2.89-5.39c1.92-1.27,4.74-1.9,8.46-1.9h3.52v-2.43c0-1.19-.35-2.12-1.06-2.78-.71-.66-1.76-.99-3.15-.99-.79,0-1.49.09-2.1.26-.61.18-1.11.39-1.49.63l-.45,2.66h-5.2l.02-5.51c1.26-.83,2.71-1.52,4.34-2.09,1.63-.57,3.41-.85,5.33-.85,3.17,0,5.74.75,7.72,2.26,1.98,1.51,2.97,3.65,2.97,6.44v10.25c0,.38,0,.74.01,1.08,0,.34.04.66.08.96l2.11.28v4.01h-7.97ZM268.48,85.03c1.04,0,1.99-.22,2.84-.65.85-.44,1.51-.98,1.99-1.64v-3.78h-3.52c-1.47,0-2.58.33-3.33,1-.76.66-1.14,1.46-1.14,2.4,0,.84.28,1.5.84,1.97.56.47,1.34.71,2.33.71"></path>
  <path fill="#000000" d="M282.47,85.49l3.31-.69v-15.39l-3.66-.69v-4.04h10.1l.31,3.55c.85-1.27,1.9-2.26,3.15-2.96,1.24-.7,2.64-1.06,4.18-1.06,2.59,0,4.6.79,6.05,2.36,1.45,1.57,2.18,4.04,2.18,7.41v10.8l3.31.69v4.01h-13.2v-4.01l2.96-.69v-10.78c0-1.67-.35-2.85-1.04-3.54-.69-.69-1.74-1.04-3.14-1.04-.92,0-1.74.18-2.46.54-.72.36-1.33.87-1.82,1.52v13.31l2.79.69v4.01h-13v-4.01Z"></path>
  <path fill="#000000" d="M125.4,123.11l2.22-.17,10.74-28.24h2.35l10.63,28.24,2.26.17v1.83h-7.45v-1.83l2.64-.21-2.49-6.77h-13.58l-2.51,6.77,2.64.21v1.83h-7.43v-1.83ZM133.54,113.91h11.94l-5.87-15.99h-.13l-5.94,15.99Z"></path>
  <path fill="#000000" d="M152.12,113.89c0-3.58.77-6.45,2.29-8.61,1.53-2.15,3.65-3.23,6.36-3.23,1.59,0,2.97.35,4.14,1.05,1.17.7,2.13,1.68,2.9,2.96l.29-3.59h2.1v22.17c0,2.89-.78,5.18-2.34,6.85-1.57,1.68-3.75,2.51-6.54,2.51-1.08,0-2.23-.13-3.46-.39-1.23-.26-2.3-.62-3.21-1.08l.67-2.1c.9.43,1.84.76,2.83,1,.99.24,2.03.35,3.13.35,2.13,0,3.74-.63,4.82-1.89,1.08-1.26,1.62-3.01,1.62-5.25v-2.84c-.76,1.15-1.72,2.03-2.89,2.65-1.16.61-2.53.92-4.09.92-2.7,0-4.81-1-6.33-3.01-1.52-2.01-2.28-4.68-2.28-8.03v-.44ZM154.61,114.33c0,2.7.55,4.85,1.65,6.47,1.1,1.61,2.74,2.42,4.93,2.42,1.62,0,2.97-.37,4.04-1.1,1.07-.73,1.9-1.74,2.48-3.03v-10.42c-.55-1.31-1.35-2.38-2.39-3.21-1.04-.82-2.4-1.23-4.09-1.23-2.19,0-3.84.9-4.95,2.7-1.12,1.8-1.67,4.12-1.67,6.98v.44Z"></path>
  <path fill="#000000" d="M182.08,125.38c-2.82,0-5.16-1.03-7.02-3.1s-2.78-4.7-2.78-7.9v-1.14c0-3.21.92-5.87,2.77-7.99,1.85-2.12,4.08-3.18,6.69-3.18,2.76,0,4.92.87,6.5,2.62,1.58,1.74,2.37,4.07,2.37,6.97v2.12h-15.86v.6c0,2.52.68,4.63,2.02,6.34,1.35,1.71,3.12,2.56,5.3,2.56,1.54,0,2.85-.21,3.95-.64,1.09-.43,2.03-1.04,2.8-1.85l1.06,1.7c-.84.89-1.91,1.59-3.2,2.11-1.29.52-2.82.78-4.61.78M181.75,104.18c-1.83,0-3.37.7-4.62,2.11-1.25,1.4-1.98,3.17-2.19,5.28l.04.1h13.16v-.62c0-1.95-.57-3.58-1.72-4.9-1.15-1.32-2.71-1.97-4.67-1.97"></path>
  <path fill="#000000" d="M191.26,123.11l3.38-.27v-18.25l-3.38-.27v-1.85h5.59l.23,3.92c.72-1.38,1.69-2.45,2.92-3.21,1.23-.75,2.67-1.13,4.35-1.13,2.44,0,4.29.74,5.56,2.23,1.27,1.49,1.91,3.81,1.91,6.97v11.59l3.38.27v1.83h-9.26v-1.83l3.38-.27v-11.57c0-2.57-.48-4.39-1.44-5.46-.96-1.07-2.33-1.6-4.1-1.6s-3.17.46-4.27,1.38c-1.1.92-1.89,2.14-2.38,3.66v13.58l3.38.27v1.83h-9.26v-1.83Z"></path>
  <path fill="#000000" d="M223.5,123.28c1.65,0,3.1-.47,4.36-1.41s1.89-2.25,1.89-3.92h2.2l.04.13c.07,2.08-.76,3.81-2.48,5.21-1.72,1.4-3.73,2.1-6.01,2.1-3.04,0-5.41-1.05-7.08-3.15-1.68-2.1-2.51-4.79-2.51-8.09v-.87c0-3.27.84-5.95,2.51-8.05,1.67-2.11,4.03-3.16,7.06-3.16,1.73,0,3.32.33,4.75.98,1.44.65,2.61,1.54,3.51,2.66l.1,4.9h-2.12l-.4-3.99c-.66-.75-1.49-1.34-2.48-1.77-.99-.44-2.11-.65-3.37-.65-2.41,0-4.19.86-5.35,2.59-1.16,1.72-1.73,3.89-1.73,6.51v.87c0,2.66.57,4.85,1.72,6.56,1.15,1.71,2.94,2.57,5.38,2.57"></path>
  <path fill="#000000" d="M255.3,104.32l-2.28.19-9.07,24.02c-.58,1.52-1.34,2.82-2.26,3.88-.93,1.06-2.28,1.6-4.07,1.6-.29,0-.64-.03-1.06-.09-.41-.06-.72-.13-.91-.2l.29-2.08c.17.03.43.06.8.09.37.03.63.05.78.05,1.09,0,1.96-.38,2.59-1.14.64-.76,1.2-1.75,1.68-2.97l1.16-3.01-7.97-20.16-2.28-.19v-1.85h7.72v1.85l-2.68.21,5.48,14.33.79,2.7h.13l6.15-17.03-2.74-.21v-1.85h7.77v1.85Z"></path>
  <g>
    <polygon fill="#000000" points="138.34 31.48 138.34 35.36 136.98 35.36 136.87 32.77 131.69 32.77 131.69 48.59 133.78 48.76 133.78 49.87 128.06 49.87 128.06 48.76 130.15 48.59 130.15 32.77 124.98 32.77 124.87 35.36 123.5 35.36 123.5 31.48 138.34 31.48"></polygon>
    <path fill="#000000" d="M134.04,50.12h-6.23v-1.6l2.09-.16v-15.33h-4.67l-.1,2.59h-1.88v-4.39h15.36v4.39h-1.87l-.11-2.59h-4.67v15.33l2.09.16v1.6ZM128.32,49.61h5.2v-.62l-2.09-.16v-16.31h5.69l.11,2.59h.85v-3.37h-14.32v3.37h.86l.1-2.59h5.69v16.31l-2.09.16v.62Z"></path>
  </g>
  <g>
    <path fill="#000000" d="M139.81,31.29v-1.12h3.61v8.37c.46-.82,1.08-1.45,1.84-1.91.77-.46,1.67-.68,2.69-.68,1.46,0,2.58.45,3.36,1.34.78.89,1.17,2.28,1.17,4.15v7.15l2.09.16v1.11h-5.71v-1.11l2.09-.16v-7.17c0-1.48-.3-2.55-.89-3.19-.59-.64-1.41-.97-2.45-.97s-1.93.27-2.63.81c-.7.54-1.22,1.26-1.56,2.16v8.35l2.09.16v1.11h-5.7v-1.11l2.09-.16v-17.14l-2.09-.16Z"></path>
    <path fill="#000000" d="M154.85,50.12h-6.23v-1.6l2.09-.16v-6.94c0-1.41-.28-2.42-.82-3.02-.55-.59-1.29-.88-2.26-.88s-1.82.26-2.48.76c-.65.5-1.14,1.18-1.46,2.01v8.07l2.09.16v1.6h-6.22v-1.6l2.09-.16v-16.67l-2.09-.16v-1.61h4.13v7.78c.41-.52.89-.94,1.45-1.28.81-.48,1.76-.72,2.82-.72,1.53,0,2.73.48,3.56,1.43.82.94,1.23,2.39,1.23,4.32v6.91l2.09.16v1.6ZM149.13,49.61h5.2v-.62l-2.09-.16v-7.38c0-1.8-.37-3.15-1.11-3.99-.74-.84-1.77-1.25-3.17-1.25-.97,0-1.83.22-2.56.65-.73.43-1.31,1.04-1.75,1.81l-.48.86v-9.1h-3.1v.63l2.09.16v17.61l-2.09.16v.62h5.19v-.62l-2.09-.16v-8.67c.36-.94.92-1.71,1.66-2.28.75-.58,1.69-.87,2.79-.87s2,.35,2.65,1.05c.64.69.96,1.82.96,3.36v7.41l-2.09.16v.62Z"></path>
  </g>
  <g>
    <path fill="#000000" d="M160.75,50.13c-1.74,0-3.19-.63-4.33-1.89-1.14-1.26-1.72-2.86-1.72-4.81v-.69c0-1.95.57-3.58,1.71-4.86,1.14-1.29,2.52-1.93,4.13-1.93,1.7,0,3.04.53,4.01,1.59.97,1.06,1.46,2.48,1.46,4.24v1.29h-9.79v.37c0,1.53.42,2.82,1.25,3.86.83,1.04,1.92,1.56,3.27,1.56.95,0,1.76-.13,2.43-.39.67-.26,1.25-.64,1.73-1.12l.65,1.04c-.52.54-1.18.97-1.97,1.28-.8.32-1.74.47-2.84.47M160.54,37.24c-1.13,0-2.08.43-2.85,1.28-.77.86-1.22,1.93-1.35,3.21l.02.06h8.13v-.38c0-1.19-.35-2.18-1.06-2.98-.71-.8-1.67-1.2-2.88-1.2"></path>
    <path fill="#000000" d="M160.75,50.39c-1.81,0-3.33-.66-4.52-1.97-1.18-1.3-1.78-2.97-1.78-4.98v-.69c0-2.01.6-3.7,1.77-5.03,1.19-1.34,2.64-2.02,4.33-2.02s3.18.56,4.2,1.68c1.01,1.1,1.53,2.59,1.53,4.41v1.54h-9.79v.11c0,1.47.4,2.71,1.2,3.7.79.98,1.79,1.46,3.07,1.46.91,0,1.7-.13,2.34-.37.64-.25,1.19-.6,1.64-1.06l.23-.23.94,1.48-.14.14c-.55.56-1.24,1.02-2.07,1.34-.82.33-1.81.49-2.94.49M160.54,36.21c-1.55,0-2.84.6-3.94,1.85-1.09,1.23-1.65,2.81-1.65,4.69v.69c0,1.87.56,3.43,1.65,4.63,1.09,1.2,2.48,1.8,4.14,1.8,1.06,0,1.99-.15,2.75-.46.69-.27,1.27-.64,1.74-1.08l-.38-.6c-.46.41-.99.73-1.58.96-.7.27-1.55.41-2.53.41-1.43,0-2.6-.56-3.48-1.65-.87-1.08-1.31-2.43-1.31-4.02v-.62h9.79v-1.03c0-1.69-.47-3.07-1.39-4.07-.92-1-2.2-1.51-3.82-1.51M164.75,42.06h-8.56l-.11-.28v-.06c.14-1.34.61-2.47,1.42-3.36.82-.91,1.85-1.37,3.04-1.37,1.28,0,2.32.43,3.08,1.29.75.84,1.13,1.91,1.13,3.15v.63ZM156.62,41.55h7.61v-.12c0-1.12-.34-2.06-1-2.81-.67-.75-1.54-1.11-2.69-1.11-1.06,0-1.93.39-2.66,1.2-.69.76-1.11,1.72-1.26,2.85"></path>
  </g>
  <path fill="#000000" d="M81.95,31.43c2.3,1.27,4.39,4.57,4.89,10.9l.07.86c3.03,38.12,3.71,63.54,12.74,83.26.17.36,0-95.02,0-95.02h-17.7Z"></path>
  <path fill="#000000" d="M0,120.39c1.29-2.16,2.88-3.89,4.82-4.52,1.51-.49,3.88-.54,6.52,2.01,1.96,1.89,3.65,2.78,4.76,2.52.69-.16,1.27-.91,2.71-3.72l.16-.46c4.24-11.98,7.32-18.49,11.43-18.49h.04c3.27.04,4.52,4.13,5.04,5.43,1.45,3.67,2.36,5.45,3.13,6.17.85.82,1.58.06,2.17-1.71.45-1.36.98-3.85,1.6-6.74,2.5-11.76,4.63-20.15,9.26-20.93,3.28-.56,5.05,2.13,5.63,3.35.65,1.37,2.47,5.88,3.73,6.17,1.45.12,1.66-3.29,2.51-8.23.53-3.11,1.17-6.3,2.17-11.17,1.71-8.29,3.94-18.21,6.27-27.82,1.5-6.19,3.31-9.54,5.41-10.83H0v88.96Z"></path>
  <path fill="#000000" d="M97.55,131.15c-.54-.72-.98-1.39-1.15-1.75-9.85-20.57-10.53-46.52-13.65-85.81l-.07-.86c-.74-4.91-1.28-7.05-2.85-7.16-1.66-.12-2.66,2.79-3.75,7.23-2.47,10.05-4.6,19.82-6.33,28.19-.99,4.82-1.85,8.97-2.31,11.99-1.15,7.48-2.62,10.59-5.22,11.1-3.04.6-4.2-.74-6.43-4.42-.94-1.55-1.92-3.79-2.11-4.2-.67-1.47-1.96-1.79-2.66.07-1.08,2.88-.83,1.95-1.63,4.37-1.19,3.61-2.1,8.03-2.93,11.93-.64,3.01-1.19,5.6-1.72,7.19-1.19,3.57-2.93,5.38-5.18,5.38h0c-1.12,0-5.02-.72-8.02-9.86-.54-1.63-1-2.17-1.9-1.91-.97.43-3.35,5.49-6.73,15.05l-.16.46c-1.29,3.65-3.2,5.79-5.68,6.38-2.6.62-5.5-.59-8.61-3.58-1.41-1.35-2.12-1.12-2.36-1.05-2.26.73-4.84,6.35-6.09,11.24h97.55Z"></path>
</svg>