<?xml version="1.0"?>
<svg id="Layer_1" xmlns="http://www.w3.org/2000/svg" xmlns:xlink="http://www.w3.org/1999/xlink" version="1.1" viewBox="0 0 311.4 162.5">

  <defs>

    <clipPath id="clippath">
      <rect fill="none" x="111.7" width="1.3" height="162.5"></rect>
    </clipPath>
  </defs>
  <g>
    <rect fill="#FFFFFF" x="111.7" width="1.3" height="162.5"></rect>
    <g clip-path="url(#clippath)">
      <rect fill="#FFFFFF" x="111.7" width="1.3" height="162.5"></rect>
    </g>
  </g>
  <polygon fill="#FFFFFF" points="125.6 60.1 125.6 56.1 139.8 56.1 139.8 60.1 136.1 60.8 136.1 70.5 150.2 70.5 150.2 60.8 146.5 60.1 146.5 56.1 150.2 56.1 157.1 56.1 160.8 56.1 160.8 60.1 157.1 60.8 157.1 84.8 160.8 85.5 160.8 89.5 146.5 89.5 146.5 85.5 150.2 84.8 150.2 75.6 136.1 75.6 136.1 84.8 139.8 85.5 139.8 89.5 125.6 89.5 125.6 85.5 129.2 84.8 129.2 60.8 125.6 60.1"></polygon>
  <path fill="#FFFFFF" d="M159.5,76.9c0-3.7,1.1-6.7,3.2-9.1,2.1-2.4,5.1-3.5,8.9-3.5s6.7,1.2,8.9,3.5c2.1,2.4,3.2,5.4,3.2,9.1v.5c0,3.7-1.1,6.8-3.2,9.1-2.1,2.3-5.1,3.5-8.8,3.5s-6.8-1.2-8.9-3.5c-2.1-2.3-3.2-5.4-3.2-9.1v-.5h0ZM166.4,77.3c0,2.3.4,4.1,1.2,5.4.8,1.4,2.1,2.1,4,2.1s3.1-.7,3.9-2.1c.8-1.4,1.2-3.2,1.2-5.4v-.5c0-2.2-.4-4-1.2-5.4-.8-1.4-2.1-2.1-3.9-2.1s-3.1.7-3.9,2.1c-.8,1.4-1.2,3.2-1.2,5.4v.5h0Z"></path>
  <path fill="#FFFFFF" d="M182.9,85.5l3.3-.7v-15.4h-3.8v-4.7h3.8v-2.8c0-2.8.8-4.9,2.5-6.4,1.7-1.5,4-2.3,7-2.3s1.2,0,1.8.1c.6,0,1.3.2,2,.3l-.6,5c-.4,0-.7-.1-1.1-.2-.4,0-.8,0-1.2,0-1.1,0-2,.3-2.5.9-.6.6-.9,1.5-.9,2.6v2.8h5.1v4.7h-5.1v15.4l3.3.7v4h-13.6v-4h0Z"></path>
  <path fill="#FFFFFF" d="M199.3,85.5l3.3-.7v-15.4h-3.8v-4.7h3.8v-2.8c0-2.8.8-4.9,2.5-6.4,1.7-1.5,4-2.3,7-2.3s1.2,0,1.8.1c.6,0,1.3.2,2,.3l-.6,5c-.4,0-.7-.1-1.1-.2-.4,0-.8,0-1.2,0-1.1,0-2,.3-2.5.9-.6.6-.9,1.5-.9,2.6v2.8h5.1v4.7h-5.1v15.4l3.3.7v4h-13.6v-4Z"></path>
  <path fill="#FFFFFF" d="M215.2,68.7v-4h10.1l.3,3.3c.8-1.2,1.9-2.1,3.1-2.8,1.2-.7,2.7-1,4.3-1s3,.3,4.2,1.1c1.2.7,2.1,1.8,2.6,3.2.8-1.3,1.8-2.4,3.1-3.1s2.7-1.1,4.4-1.1c2.5,0,4.5.8,6,2.5,1.5,1.7,2.2,4.3,2.2,7.7v10.3l3.3.7v4h-13.2v-4l3-.7v-10.3c0-1.9-.3-3.2-.9-3.9-.6-.7-1.6-1.1-2.8-1.1s-1.8.2-2.5.6c-.7.4-1.3,1-1.7,1.8,0,.3,0,.5,0,.8,0,.2,0,.4,0,.6v11.6l2.8.7v4h-12.5v-4l2.8-.7v-10.3c0-1.8-.3-3.1-.9-3.9-.6-.8-1.6-1.1-2.8-1.1s-1.7.2-2.4.5c-.7.3-1.3.8-1.7,1.5v13.4l3,.7v4h-13.2v-4l3.3-.7v-15.4l-3.7-.7h0Z"></path>
  <path fill="#FFFFFF" d="M274.5,89.5c-.2-.4-.4-.8-.5-1.3s-.2-.9-.3-1.3c-.8.9-1.8,1.7-3,2.2-1.2.6-2.5.8-4,.8-2.5,0-4.5-.7-6-2s-2.2-3.1-2.2-5.4,1-4.1,2.9-5.4c1.9-1.3,4.7-1.9,8.5-1.9h3.5v-2.4c0-1.2-.4-2.1-1.1-2.8-.7-.7-1.8-1-3.1-1s-1.5,0-2.1.3c-.6.2-1.1.4-1.5.6l-.5,2.7h-5.2v-5.5c1.3-.8,2.7-1.5,4.4-2.1s3.4-.8,5.3-.8c3.2,0,5.7.8,7.7,2.3s3,3.7,3,6.4v10.2c0,.4,0,.7,0,1.1,0,.3,0,.7,0,1l2.1.3v4h-8,0ZM268.5,85c1,0,2-.2,2.8-.7.9-.4,1.5-1,2-1.6v-3.8h-3.5c-1.5,0-2.6.3-3.3,1-.8.7-1.1,1.5-1.1,2.4s.3,1.5.8,2,1.3.7,2.3.7"></path>
  <path fill="#FFFFFF" d="M282.5,85.5l3.3-.7v-15.4l-3.7-.7v-4h10.1l.3,3.6c.9-1.3,1.9-2.3,3.1-3,1.2-.7,2.6-1.1,4.2-1.1,2.6,0,4.6.8,6,2.4,1.5,1.6,2.2,4,2.2,7.4v10.8l3.3.7v4h-13.2v-4l3-.7v-10.8c0-1.7-.4-2.8-1-3.5s-1.7-1-3.1-1-1.7.2-2.5.5-1.3.9-1.8,1.5v13.3l2.8.7v4h-13v-4h0Z"></path>
  <path fill="#FFFFFF" d="M125.4,123.1l2.2-.2,10.7-28.2h2.4l10.6,28.2,2.3.2v1.8h-7.4v-1.8l2.6-.2-2.5-6.8h-13.6l-2.5,6.8,2.6.2v1.8h-7.4v-1.8h0ZM133.5,113.9h11.9l-5.9-16h-.1l-5.9,16Z"></path>
  <path fill="#FFFFFF" d="M152.1,113.9c0-3.6.8-6.4,2.3-8.6,1.5-2.2,3.6-3.2,6.4-3.2s3,.3,4.1,1.1c1.2.7,2.1,1.7,2.9,3l.3-3.6h2.1v22.2c0,2.9-.8,5.2-2.3,6.9-1.6,1.7-3.8,2.5-6.5,2.5s-2.2-.1-3.5-.4c-1.2-.3-2.3-.6-3.2-1.1l.7-2.1c.9.4,1.8.8,2.8,1s2,.4,3.1.4c2.1,0,3.7-.6,4.8-1.9s1.6-3,1.6-5.2v-2.8c-.8,1.2-1.7,2-2.9,2.7-1.2.6-2.5.9-4.1.9-2.7,0-4.8-1-6.3-3s-2.3-4.7-2.3-8v-.4h0ZM154.6,114.3c0,2.7.6,4.8,1.6,6.5,1.1,1.6,2.7,2.4,4.9,2.4s3-.4,4-1.1c1.1-.7,1.9-1.7,2.5-3v-10.4c-.6-1.3-1.4-2.4-2.4-3.2-1-.8-2.4-1.2-4.1-1.2s-3.8.9-4.9,2.7c-1.1,1.8-1.7,4.1-1.7,7v.4h0Z"></path>
  <path fill="#FFFFFF" d="M182.1,125.4c-2.8,0-5.2-1-7-3.1s-2.8-4.7-2.8-7.9v-1.1c0-3.2.9-5.9,2.8-8,1.9-2.1,4.1-3.2,6.7-3.2s4.9.9,6.5,2.6c1.6,1.7,2.4,4.1,2.4,7v2.1h-15.9v.6c0,2.5.7,4.6,2,6.3,1.4,1.7,3.1,2.6,5.3,2.6s2.9-.2,3.9-.6c1.1-.4,2-1,2.8-1.8l1.1,1.7c-.8.9-1.9,1.6-3.2,2.1-1.3.5-2.8.8-4.6.8M181.8,104.2c-1.8,0-3.4.7-4.6,2.1-1.2,1.4-2,3.2-2.2,5.3h0c0,0,13.2,0,13.2,0v-.6c0-1.9-.6-3.6-1.7-4.9s-2.7-2-4.7-2"></path>
  <path fill="#FFFFFF" d="M191.3,123.1l3.4-.3v-18.2l-3.4-.3v-1.8h5.6l.2,3.9c.7-1.4,1.7-2.4,2.9-3.2,1.2-.8,2.7-1.1,4.4-1.1,2.4,0,4.3.7,5.6,2.2,1.3,1.5,1.9,3.8,1.9,7v11.6l3.4.3v1.8h-9.3v-1.8l3.4-.3v-11.6c0-2.6-.5-4.4-1.4-5.5s-2.3-1.6-4.1-1.6-3.2.5-4.3,1.4-1.9,2.1-2.4,3.7v13.6l3.4.3v1.8h-9.3v-1.8h0Z"></path>
  <path fill="#FFFFFF" d="M223.5,123.3c1.6,0,3.1-.5,4.4-1.4s1.9-2.2,1.9-3.9h2.2c0,2.2-.8,3.9-2.5,5.3s-3.7,2.1-6,2.1-5.4-1.1-7.1-3.2c-1.7-2.1-2.5-4.8-2.5-8.1v-.9c0-3.3.8-5.9,2.5-8.1,1.7-2.1,4-3.2,7.1-3.2s3.3.3,4.8,1c1.4.7,2.6,1.5,3.5,2.7v4.9c.1,0-2,0-2,0l-.4-4c-.7-.8-1.5-1.3-2.5-1.8-1-.4-2.1-.7-3.4-.7-2.4,0-4.2.9-5.4,2.6-1.2,1.7-1.7,3.9-1.7,6.5v.9c0,2.7.6,4.8,1.7,6.6s2.9,2.6,5.4,2.6"></path>
  <path fill="#FFFFFF" d="M255.3,104.3l-2.3.2-9.1,24c-.6,1.5-1.3,2.8-2.3,3.9-.9,1.1-2.3,1.6-4.1,1.6s-.6,0-1.1,0c-.4,0-.7-.1-.9-.2l.3-2.1c.2,0,.4,0,.8,0,.4,0,.6,0,.8,0,1.1,0,2-.4,2.6-1.1.6-.8,1.2-1.8,1.7-3l1.2-3-8-20.2-2.3-.2v-1.8h7.7v1.8l-2.7.2,5.5,14.3.8,2.7h.1l6.1-17-2.7-.2v-1.8h7.8v1.8h0Z"></path>
  <g>
    <polygon fill="#FFFFFF" points="138.3 31.5 138.3 35.4 137 35.4 136.9 32.8 131.7 32.8 131.7 48.6 133.8 48.8 133.8 49.9 128.1 49.9 128.1 48.8 130.1 48.6 130.1 32.8 125 32.8 124.9 35.4 123.5 35.4 123.5 31.5 138.3 31.5"></polygon>
    <path fill="#FFFFFF" d="M134,50.1h-6.2v-1.6l2.1-.2v-15.3h-4.7v2.6h-2v-4.4h15.4v4.4h-1.9v-2.6h-4.8v15.3l2.1.2v1.6h0ZM128.3,49.6h5.2v-.6l-2.1-.2v-16.3h5.7v2.6h1v-3.4h-14.3v3.4h.9v-2.6h5.8v16.3l-2.1.2v.6h0Z"></path>
  </g>
  <g>
    <path fill="#FFFFFF" d="M139.8,31.3v-1.1h3.6v8.4c.5-.8,1.1-1.5,1.8-1.9.8-.5,1.7-.7,2.7-.7,1.5,0,2.6.5,3.4,1.3s1.2,2.3,1.2,4.2v7.2l2.1.2v1.1h-5.7v-1.1l2.1-.2v-7.2c0-1.5-.3-2.5-.9-3.2s-1.4-1-2.4-1-1.9.3-2.6.8c-.7.5-1.2,1.3-1.6,2.2v8.4l2.1.2v1.1h-5.7v-1.1l2.1-.2v-17.1l-2.1-.2h0Z"></path>
    <path fill="#FFFFFF" d="M154.9,50.1h-6.2v-1.6l2.1-.2v-6.9c0-1.4-.3-2.4-.8-3-.6-.6-1.3-.9-2.3-.9s-1.8.3-2.5.8c-.6.5-1.1,1.2-1.5,2v8.1l2.1.2v1.6h-6.2v-1.6l2.1-.2v-16.7l-2.1-.2v-1.6h4.1v7.8c.4-.5.9-.9,1.4-1.3.8-.5,1.8-.7,2.8-.7,1.5,0,2.7.5,3.6,1.4.8.9,1.2,2.4,1.2,4.3v6.9l2.1.2v1.6h0ZM149.1,49.6h5.2v-.6l-2.1-.2v-7.4c0-1.8-.4-3.2-1.1-4s-1.8-1.2-3.2-1.2-1.8.2-2.6.7-1.3,1-1.8,1.8l-.5.9v-9.1h-3.1v.6l2.1.2v17.6l-2.1.2v.6h5.2v-.6l-2.1-.2v-8.7c.4-.9.9-1.7,1.7-2.3.8-.6,1.7-.9,2.8-.9s2,.3,2.6,1c.6.7,1,1.8,1,3.4v7.4l-2.1.2v.6h0Z"></path>
  </g>
  <g>
    <path fill="#FFFFFF" d="M160.8,50.1c-1.7,0-3.2-.6-4.3-1.9s-1.7-2.9-1.7-4.8v-.7c0-2,.6-3.6,1.7-4.9,1.1-1.3,2.5-1.9,4.1-1.9s3,.5,4,1.6,1.5,2.5,1.5,4.2v1.3h-9.8v.4c0,1.5.4,2.8,1.2,3.9s1.9,1.6,3.3,1.6,1.8-.1,2.4-.4,1.2-.6,1.7-1.1l.6,1c-.5.5-1.2,1-2,1.3-.8.3-1.7.5-2.8.5M160.5,37.2c-1.1,0-2.1.4-2.9,1.3-.8.9-1.2,1.9-1.4,3.2h0c0,0,8.1,0,8.1,0v-.4c0-1.2-.4-2.2-1.1-3-.7-.8-1.7-1.2-2.9-1.2"></path>
    <path fill="#FFFFFF" d="M160.8,50.4c-1.8,0-3.3-.7-4.5-2-1.2-1.3-1.8-3-1.8-5v-.7c0-2,.6-3.7,1.8-5,1.2-1.3,2.6-2,4.3-2s3.2.6,4.2,1.7c1,1.1,1.5,2.6,1.5,4.4v1.5h-9.8c0,1.6.4,2.8,1.2,3.8.8,1,1.8,1.5,3.1,1.5s1.7-.1,2.3-.4c.6-.2,1.2-.6,1.6-1.1l.2-.2.9,1.5h-.1c-.6.7-1.2,1.2-2.1,1.5-.8.3-1.8.5-2.9.5M160.5,36.2c-1.6,0-2.8.6-3.9,1.8-1.1,1.2-1.6,2.8-1.6,4.7v.7c0,1.9.6,3.4,1.6,4.6s2.5,1.8,4.1,1.8,2-.2,2.8-.5c.7-.3,1.3-.6,1.7-1.1l-.4-.6c-.5.4-1,.7-1.6,1-.7.3-1.6.4-2.5.4-1.4,0-2.6-.6-3.5-1.7-.9-1.1-1.3-2.4-1.3-4v-.6h9.8v-1c0-1.7-.5-3.1-1.4-4.1s-2.2-1.5-3.8-1.5M164.8,42.1h-8.6v-.3c-.1,0-.1,0-.1,0,.1-1.3.6-2.5,1.4-3.4.8-.9,1.9-1.4,3-1.4s2.3.4,3.1,1.3c.8.8,1.1,1.9,1.1,3.2,0,0,0,.6,0,.6ZM156.6,41.5h7.6c0-1.2-.3-2.2-1-2.9-.7-.8-1.5-1.1-2.7-1.1s-1.9.4-2.7,1.2c-.7.8-1.1,1.7-1.3,2.8"></path>
  </g>
  <path fill="#D2EB00" d="M81.9,31.4c2.3,1.3,4.4,4.6,4.9,10.9v.9c3.1,38.1,3.8,63.5,12.8,83.3.2.4,0-95,0-95,0,0-17.7,0-17.7,0Z"></path>
  <path fill="#D2EB00" d="M0,120.4c1.3-2.2,2.9-3.9,4.8-4.5,1.5-.5,3.9-.5,6.5,2,2,1.9,3.6,2.8,4.8,2.5.7-.2,1.3-.9,2.7-3.7l.2-.5c4.2-12,7.3-18.5,11.4-18.5h0c3.3,0,4.5,4.1,5,5.4,1.5,3.7,2.4,5.4,3.1,6.2.8.8,1.6,0,2.2-1.7.5-1.4,1-3.8,1.6-6.7,2.5-11.8,4.6-20.2,9.3-20.9,3.3-.6,5,2.1,5.6,3.3.7,1.4,2.5,5.9,3.7,6.2,1.5.1,1.7-3.3,2.5-8.2.5-3.1,1.2-6.3,2.2-11.2,1.7-8.3,3.9-18.2,6.3-27.8,1.5-6.2,3.3-9.5,5.4-10.8H0v89h0Z"></path>
  <path fill="#D2EB00" d="M97.6,131.1c-.5-.7-1-1.4-1.2-1.8-9.8-20.6-10.5-46.5-13.7-85.8v-.9c-.8-4.9-1.3-7-2.9-7.2-1.7-.1-2.7,2.8-3.8,7.2-2.5,10-4.6,19.8-6.3,28.2-1,4.8-1.8,9-2.3,12-1.2,7.5-2.6,10.6-5.2,11.1-3,.6-4.2-.7-6.4-4.4-.9-1.6-1.9-3.8-2.1-4.2-.7-1.5-2-1.8-2.7,0-1.1,2.9-.8,1.9-1.6,4.4-1.2,3.6-2.1,8-2.9,11.9-.6,3-1.2,5.6-1.7,7.2-1.2,3.6-2.9,5.4-5.2,5.4h0c-1.1,0-5-.7-8-9.9-.5-1.6-1-2.2-1.9-1.9-1,.4-3.4,5.5-6.7,15.1l-.2.5c-1.3,3.7-3.2,5.8-5.7,6.4-2.6.6-5.5-.6-8.6-3.6-1.4-1.3-2.1-1.1-2.4-1.1-2.3.7-4.8,6.3-6.1,11.2h97.5,0Z"></path>
</svg>