<?xml version="1.0"?>
<svg id="Layer_1" data-name="Layer 1" xmlns="http://www.w3.org/2000/svg" xmlns:xlink="http://www.w3.org/1999/xlink" viewBox="0 0 417.21 89.8">
  <defs>

    <clipPath id="clippath">
      <rect fill="none" x="61.71" width=".7" height="89.8"></rect>
    </clipPath>
  </defs>
  <g clip-path="url(#clippath)">
    <rect fill="#182D43" x="61.71" width=".7" height="89.8"></rect>
  </g>
  <polygon fill="#182D43" points="70.32 42.22 70.32 38.05 85.03 38.05 85.03 42.22 81.22 42.93 81.22 52.87 95.72 52.87 95.72 42.93 91.91 42.22 91.91 38.05 95.72 38.05 102.82 38.05 106.63 38.05 106.63 42.22 102.82 42.93 102.82 67.67 106.63 68.38 106.63 72.52 91.91 72.52 91.91 68.38 95.72 67.67 95.72 58.2 81.22 58.2 81.22 67.67 85.03 68.38 85.03 72.52 70.32 72.52 70.32 68.38 74.1 67.67 74.1 42.93 70.32 42.22"></polygon>
  <path fill="#182D43" d="M105.32,59.48c0-3.82,1.1-6.95,3.31-9.39,2.2-2.44,5.25-3.66,9.14-3.66s6.96,1.22,9.16,3.65c2.2,2.43,3.31,5.56,3.31,9.4v.5c0,3.85-1.1,6.99-3.31,9.41-2.21,2.42-5.24,3.63-9.11,3.63s-6.98-1.21-9.19-3.63c-2.21-2.42-3.31-5.56-3.31-9.41v-.5ZM112.44,59.97c0,2.34.42,4.21,1.27,5.62.85,1.41,2.21,2.12,4.1,2.12s3.18-.71,4.04-2.13c.85-1.42,1.28-3.29,1.28-5.61v-.5c0-2.27-.43-4.13-1.29-5.56-.86-1.44-2.22-2.15-4.08-2.15s-3.2.72-4.05,2.15c-.85,1.44-1.27,3.29-1.27,5.56v.5Z"></path>
  <path fill="#182D43" d="M129.46,68.38l3.44-.71v-15.91h-3.93v-4.85h3.93v-2.84c0-2.87.85-5.09,2.56-6.64,1.71-1.55,4.11-2.33,7.2-2.33.6,0,1.22.04,1.84.13.63.09,1.31.21,2.06.37l-.61,5.14c-.39-.06-.77-.12-1.13-.17-.37-.05-.79-.07-1.28-.07-1.16,0-2.03.31-2.62.92-.59.62-.89,1.5-.89,2.65v2.84h5.25v4.85h-5.25v15.91l3.44.71v4.14h-14.01v-4.14Z"></path>
  <path fill="#182D43" d="M146.4,68.38l3.44-.71v-15.91h-3.93v-4.85h3.93v-2.84c0-2.87.85-5.09,2.56-6.64,1.71-1.55,4.11-2.33,7.2-2.33.6,0,1.22.04,1.84.13.63.09,1.31.21,2.06.37l-.61,5.14c-.39-.06-.77-.12-1.13-.17-.37-.05-.79-.07-1.28-.07-1.16,0-2.03.31-2.62.92-.59.62-.89,1.5-.89,2.65v2.84h5.25v4.85h-5.25v15.91l3.44.71v4.14h-14.01v-4.14Z"></path>
  <path fill="#182D43" d="M162.78,51.07v-4.17h10.42l.29,3.39c.85-1.23,1.91-2.18,3.18-2.85,1.28-.67,2.75-1.01,4.43-1.01s3.14.36,4.34,1.09c1.2.73,2.11,1.82,2.73,3.29.81-1.37,1.87-2.45,3.17-3.22,1.3-.77,2.83-1.16,4.59-1.16,2.6,0,4.66.87,6.16,2.62,1.5,1.74,2.26,4.4,2.26,7.96v10.65l3.44.71v4.14h-13.64v-4.14l3.07-.71v-10.68c0-1.94-.33-3.29-.98-4.05-.65-.76-1.62-1.14-2.9-1.14-1.01,0-1.88.22-2.62.65-.74.43-1.33,1.04-1.77,1.81,0,.3,0,.56.02.77.02.21.02.43.02.65v11.98l2.88.71v4.14h-12.86v-4.14l2.88-.71v-10.68c0-1.89-.33-3.23-.98-4.01-.65-.78-1.63-1.17-2.93-1.17-.96,0-1.8.18-2.53.53-.72.36-1.32.86-1.79,1.5v13.82l3.08.71v4.14h-13.62v-4.14l3.44-.71v-15.88l-3.81-.71Z"></path>
  <path fill="#182D43" d="M223.96,72.52c-.2-.43-.37-.86-.51-1.31-.15-.45-.26-.9-.34-1.36-.85.95-1.87,1.71-3.09,2.3-1.21.58-2.6.88-4.16.88-2.59,0-4.64-.68-6.16-2.05-1.52-1.36-2.28-3.22-2.28-5.57s.99-4.25,2.98-5.56c1.99-1.31,4.9-1.96,8.74-1.96h3.64v-2.51c0-1.23-.37-2.19-1.1-2.86-.73-.68-1.81-1.02-3.25-1.02-.81,0-1.54.09-2.17.27-.63.18-1.15.4-1.54.65l-.46,2.75h-5.37l.02-5.68c1.3-.85,2.79-1.57,4.48-2.15,1.68-.58,3.52-.88,5.5-.88,3.27,0,5.93.78,7.97,2.33,2.04,1.55,3.06,3.77,3.06,6.64v10.58c0,.39,0,.76.01,1.11,0,.35.04.68.09,1l2.17.28v4.14h-8.22ZM217.79,67.9c1.07,0,2.05-.23,2.93-.67.88-.45,1.56-1.01,2.05-1.69v-3.91h-3.64c-1.51,0-2.66.34-3.44,1.03-.78.69-1.17,1.51-1.17,2.47,0,.87.29,1.55.87,2.04.58.49,1.38.73,2.4.73"></path>
  <path fill="#182D43" d="M232.23,68.38l3.42-.71v-15.88l-3.78-.71v-4.17h10.42l.32,3.67c.88-1.31,1.96-2.33,3.25-3.05,1.28-.73,2.72-1.09,4.32-1.09,2.67,0,4.75.81,6.25,2.44,1.5,1.63,2.25,4.17,2.25,7.65v11.15l3.42.71v4.14h-13.62v-4.14l3.05-.71v-11.13c0-1.72-.36-2.94-1.07-3.66-.72-.72-1.8-1.08-3.24-1.08-.94,0-1.79.19-2.54.56-.75.37-1.38.9-1.88,1.58v13.73l2.88.71v4.14h-13.42v-4.14Z"></path>
  <path fill="#182D43" d="M270.24,70.36l2.54-.19,12.27-32.28h2.68l12.15,32.28,2.59.19v2.09h-8.52v-2.09l3.02-.24-2.85-7.74h-15.52l-2.87,7.74,3.01.24v2.09h-8.5v-2.09ZM279.54,59.84h13.65l-6.72-18.28h-.14l-6.79,18.28Z"></path>
  <path fill="#182D43" d="M300.4,59.82c0-4.1.87-7.38,2.62-9.84,1.75-2.46,4.17-3.69,7.28-3.69,1.82,0,3.4.4,4.74,1.2,1.34.8,2.44,1.93,3.31,3.38l.33-4.11h2.4v25.35c0,3.31-.89,5.92-2.68,7.83-1.79,1.91-4.28,2.87-7.48,2.87-1.23,0-2.55-.15-3.95-.45-1.4-.3-2.62-.71-3.67-1.23l.76-2.4c1.03.49,2.11.87,3.24,1.14,1.13.27,2.32.4,3.57.4,2.44,0,4.27-.72,5.51-2.16,1.23-1.44,1.85-3.44,1.85-6.01v-3.25c-.87,1.31-1.97,2.32-3.3,3.03-1.33.7-2.89,1.06-4.68,1.06-3.09,0-5.5-1.15-7.24-3.44-1.74-2.29-2.61-5.36-2.61-9.19v-.5ZM303.25,60.32c0,3.09.63,5.55,1.89,7.39,1.26,1.84,3.14,2.77,5.64,2.77,1.85,0,3.39-.42,4.62-1.26,1.23-.84,2.17-1.99,2.84-3.47v-11.92c-.63-1.5-1.54-2.72-2.73-3.67-1.19-.94-2.75-1.41-4.68-1.41-2.5,0-4.39,1.03-5.66,3.09-1.27,2.06-1.91,4.71-1.91,7.97v.5Z"></path>
  <path fill="#182D43" d="M334.27,72.94c-3.23,0-5.9-1.18-8.02-3.55-2.12-2.37-3.18-5.38-3.18-9.03v-1.31c0-3.67,1.06-6.72,3.17-9.14,2.11-2.42,4.66-3.63,7.65-3.63,3.15,0,5.63,1,7.43,2.99,1.8,1.99,2.71,4.65,2.71,7.97v2.42h-18.14v.69c0,2.88.77,5.3,2.31,7.25,1.54,1.96,3.56,2.93,6.06,2.93,1.76,0,3.26-.25,4.51-.74,1.25-.49,2.32-1.19,3.2-2.11l1.21,1.95c-.97,1.01-2.18,1.81-3.65,2.41-1.47.59-3.23.89-5.27.89M333.89,48.71c-2.09,0-3.85.8-5.28,2.41-1.43,1.61-2.27,3.62-2.5,6.04l.05.12h15.05v-.71c0-2.23-.66-4.1-1.97-5.6-1.31-1.5-3.09-2.26-5.34-2.26"></path>
  <path fill="#182D43" d="M344.38,70.36l3.87-.31v-20.87l-3.87-.31v-2.11h6.39l.26,4.49c.82-1.58,1.94-2.81,3.34-3.67,1.4-.86,3.06-1.29,4.97-1.29,2.78,0,4.9.85,6.36,2.55,1.46,1.7,2.18,4.36,2.18,7.96v13.25l3.87.31v2.09h-10.59v-2.09l3.87-.31v-13.22c0-2.94-.55-5.02-1.65-6.24-1.1-1.22-2.66-1.83-4.69-1.83s-3.62.53-4.88,1.58c-1.26,1.05-2.16,2.45-2.72,4.19v15.53l3.87.31v2.09h-10.59v-2.09Z"></path>
  <path fill="#182D43" d="M380.94,70.55c1.88,0,3.55-.54,4.99-1.61,1.44-1.08,2.16-2.57,2.16-4.49h2.52l.05.14c.08,2.37-.87,4.36-2.84,5.96-1.97,1.6-4.26,2.4-6.87,2.4-3.48,0-6.18-1.2-8.09-3.6-1.91-2.4-2.87-5.48-2.87-9.24v-1c0-3.73.96-6.81,2.87-9.21,1.91-2.41,4.61-3.61,8.07-3.61,1.98,0,3.79.37,5.44,1.12,1.65.74,2.98,1.76,4.01,3.04l.12,5.6h-2.42l-.45-4.56c-.76-.85-1.71-1.53-2.84-2.03-1.13-.5-2.42-.75-3.86-.75-2.75,0-4.79.99-6.11,2.96-1.32,1.97-1.98,4.45-1.98,7.44v1c0,3.04.66,5.54,1.97,7.5,1.31,1.96,3.36,2.94,6.15,2.94"></path>
  <path fill="#182D43" d="M417.21,48.87l-2.61.21-10.37,27.46c-.66,1.74-1.53,3.22-2.59,4.44-1.06,1.22-2.61,1.83-4.65,1.83-.33,0-.74-.04-1.21-.11-.47-.07-.82-.15-1.04-.23l.33-2.37c.19.03.49.07.91.11.42.04.72.06.89.06,1.25,0,2.24-.44,2.97-1.3.73-.87,1.37-2,1.92-3.39l1.33-3.44-9.12-23.05-2.61-.21v-2.11h8.83v2.11l-3.06.24,6.27,16.38.9,3.09h.14l7.03-19.46-3.13-.24v-2.11h8.88v2.11Z"></path>
  <g>
    <polygon fill="#182D43" points="80.28 17.8 80.28 20.92 79.18 20.92 79.09 18.84 74.92 18.84 74.92 31.59 76.6 31.72 76.6 32.62 72 32.62 72 31.72 73.68 31.59 73.68 18.84 69.51 18.84 69.43 20.92 68.32 20.92 68.32 17.8 80.28 17.8"></polygon>
    <path fill="#182D43" d="M76.81,32.82h-5.02v-1.29l1.68-.13v-12.36h-3.76l-.08,2.09h-1.52v-3.54h12.38v3.54h-1.5l-.09-2.09h-3.76v12.36l1.68.13v1.29ZM72.21,32.41h4.19v-.5l-1.68-.13v-13.15h4.58l.09,2.09h.69v-2.71h-11.54v2.71h.7l.08-2.09h4.58v13.15l-1.68.13v.5Z"></path>
    <path fill="#182D43" d="M81.46,17.64v-.91h2.91v6.75c.37-.66.87-1.17,1.49-1.54.62-.37,1.34-.55,2.17-.55,1.18,0,2.08.36,2.71,1.08.63.72.94,1.84.94,3.35v5.76l1.68.13v.9h-4.61v-.9l1.68-.13v-5.78c0-1.19-.24-2.05-.72-2.57-.48-.52-1.14-.78-1.98-.78s-1.55.22-2.12.66c-.57.44-.99,1.02-1.25,1.74v6.73l1.68.13v.9h-4.6v-.9l1.68-.13v-13.81l-1.68-.13Z"></path>
    <path fill="#182D43" d="M93.58,32.82h-5.02v-1.29l1.68-.13v-5.59c0-1.14-.22-1.95-.66-2.43-.44-.48-1.04-.71-1.82-.71s-1.47.21-1.99.61c-.53.4-.92.95-1.17,1.62v6.5l1.68.13v1.29h-5.01v-1.29l1.68-.13v-13.43l-1.68-.13v-1.3h3.33v6.27c.33-.42.72-.76,1.17-1.03.65-.38,1.42-.58,2.28-.58,1.23,0,2.2.39,2.87,1.15.66.76,1,1.93,1,3.48v5.57l1.68.13v1.29ZM88.98,32.41h4.19v-.5l-1.68-.13v-5.95c0-1.45-.3-2.54-.89-3.21-.59-.68-1.43-1.01-2.55-1.01-.78,0-1.48.17-2.06.52-.58.34-1.06.84-1.41,1.46l-.39.69v-7.33h-2.49v.51l1.68.13v14.19l-1.68.13v.5h4.18v-.5l-1.68-.13v-6.99c.29-.76.74-1.38,1.34-1.84.6-.46,1.36-.7,2.25-.7s1.62.28,2.13.85c.51.56.77,1.47.77,2.71v5.97l-1.68.13v.5Z"></path>
    <path fill="#182D43" d="M98.34,32.83c-1.4,0-2.57-.51-3.49-1.52-.92-1.01-1.38-2.3-1.38-3.87v-.56c0-1.57.46-2.88,1.38-3.92.92-1.04,2.03-1.56,3.33-1.56,1.37,0,2.45.43,3.23,1.28.78.85,1.18,1.99,1.18,3.42v1.04h-7.89v.29c0,1.24.34,2.27,1.01,3.11.67.84,1.55,1.26,2.64,1.26.76,0,1.42-.11,1.96-.32.54-.21,1.01-.51,1.39-.91l.53.83c-.42.43-.95.78-1.59,1.03-.64.25-1.41.38-2.29.38M98.17,22.44c-.91,0-1.68.34-2.3,1.03-.62.69-.99,1.55-1.09,2.59l.02.05h6.55v-.31c0-.96-.29-1.76-.86-2.4-.57-.65-1.35-.97-2.32-.97"></path>
    <path fill="#182D43" d="M98.34,33.03c-1.46,0-2.69-.53-3.65-1.59-.95-1.05-1.44-2.4-1.44-4.01v-.56c0-1.62.48-2.98,1.43-4.05.96-1.08,2.13-1.63,3.49-1.63s2.56.45,3.39,1.35c.82.89,1.23,2.09,1.23,3.56v1.24h-7.89v.09c0,1.18.32,2.18.96,2.98.63.79,1.45,1.18,2.48,1.18.73,0,1.37-.1,1.89-.3.51-.2.96-.49,1.32-.86l.19-.19.75,1.19-.11.12c-.44.45-1,.82-1.66,1.08-.66.26-1.46.4-2.37.4M98.17,21.61c-1.25,0-2.29.49-3.17,1.49-.88,1-1.33,2.27-1.33,3.78v.56c0,1.51.45,2.76,1.33,3.73.88.96,2,1.45,3.34,1.45.86,0,1.6-.12,2.21-.37.55-.22,1.02-.51,1.4-.87l-.3-.48c-.37.33-.79.59-1.28.77-.57.22-1.25.33-2.04.33-1.15,0-2.09-.45-2.8-1.33-.7-.87-1.05-1.96-1.05-3.24v-.5h7.89v-.83c0-1.36-.38-2.47-1.12-3.28-.74-.81-1.77-1.22-3.08-1.22M101.56,26.32h-6.9l-.09-.23v-.05c.11-1.08.5-1.99,1.14-2.71.66-.73,1.49-1.1,2.45-1.1,1.03,0,1.87.35,2.48,1.04.6.68.91,1.53.91,2.54v.51ZM95.01,25.91h6.13v-.1c0-.9-.27-1.66-.81-2.27-.54-.6-1.24-.9-2.17-.9-.85,0-1.56.31-2.14.96-.56.61-.9,1.39-1.02,2.3"></path>
  </g>
  <path fill="#182D43" d="M45.29,17.37c1.27.7,2.42,2.53,2.7,6.03l.04.47c1.67,21.07,2.05,35.11,7.04,46.01.09.2,0-52.51,0-52.51h-9.78Z"></path>
  <path fill="#182D43" d="M0,66.53c.71-1.19,1.59-2.15,2.66-2.5.84-.27,2.14-.3,3.6,1.11,1.08,1.04,2.02,1.54,2.63,1.39.38-.09.7-.5,1.5-2.05l.09-.25c2.34-6.62,4.04-10.22,6.32-10.22h.02c1.81.02,2.5,2.28,2.79,3,.8,2.03,1.3,3.01,1.73,3.41.47.45.87.04,1.2-.94.25-.75.54-2.13.88-3.72,1.38-6.5,2.56-11.13,5.12-11.57,1.81-.31,2.79,1.18,3.11,1.85.36.76,1.36,3.25,2.06,3.41.8.06.92-1.82,1.39-4.55.3-1.72.65-3.48,1.2-6.17.94-4.58,2.18-10.06,3.46-15.38.83-3.42,1.83-5.27,2.99-5.99H0v49.17Z"></path>
  <path fill="#182D43" d="M53.91,72.44c-.3-.4-.54-.77-.64-.97-5.45-11.37-5.82-25.71-7.54-47.42l-.04-.47c-.41-2.71-.71-3.9-1.57-3.96-.92-.07-1.47,1.54-2.07,4-1.36,5.55-2.54,10.95-3.5,15.58-.55,2.66-1.02,4.96-1.28,6.63-.64,4.13-1.45,5.85-2.89,6.14-1.68.33-2.32-.41-3.56-2.44-.52-.86-1.06-2.09-1.17-2.32-.37-.81-1.08-.99-1.47.04-.6,1.59-.46,1.08-.9,2.41-.66,1.99-1.16,4.44-1.62,6.59-.35,1.66-.66,3.1-.95,3.97-.66,1.97-1.62,2.97-2.86,2.97h0c-.62,0-2.77-.4-4.43-5.45-.3-.9-.55-1.2-1.05-1.05-.54.24-1.85,3.04-3.72,8.32l-.09.25c-.71,2.02-1.77,3.2-3.14,3.53-1.44.34-3.04-.32-4.76-1.98-.78-.75-1.17-.62-1.3-.58-1.25.4-2.67,3.51-3.37,6.21h53.91Z"></path>
</svg>