<?xml version="1.0"?>
<svg id="Layer_1" xmlns="http://www.w3.org/2000/svg" xmlns:xlink="http://www.w3.org/1999/xlink" version="1.1" viewBox="0 0 417.2 89.8">

  <defs>

    <clipPath id="clippath">
      <rect fill="none" x="61.7" width=".7" height="89.8"></rect>
    </clipPath>
  </defs>
  <g>
    <rect fill="#FFFFFF" x="61.7" width=".7" height="89.8"></rect>
    <g clip-path="url(#clippath)">
      <rect fill="#FFFFFF" x="61.7" width=".7" height="89.8"></rect>
    </g>
  </g>
  <polygon fill="#FFFFFF" points="70.3 42.2 70.3 38 85 38 85 42.2 81.2 42.9 81.2 52.9 95.7 52.9 95.7 42.9 91.9 42.2 91.9 38 95.7 38 102.8 38 106.6 38 106.6 42.2 102.8 42.9 102.8 67.7 106.6 68.4 106.6 72.5 91.9 72.5 91.9 68.4 95.7 67.7 95.7 58.2 81.2 58.2 81.2 67.7 85 68.4 85 72.5 70.3 72.5 70.3 68.4 74.1 67.7 74.1 42.9 70.3 42.2"></polygon>
  <path fill="#FFFFFF" d="M105.3,59.5c0-3.8,1.1-7,3.3-9.4,2.2-2.4,5.2-3.7,9.1-3.7s7,1.2,9.2,3.7,3.3,5.6,3.3,9.4v.5c0,3.8-1.1,7-3.3,9.4-2.2,2.4-5.2,3.6-9.1,3.6s-7-1.2-9.2-3.6-3.3-5.6-3.3-9.4c0,0,0-.5,0-.5ZM112.4,60c0,2.3.4,4.2,1.3,5.6s2.2,2.1,4.1,2.1,3.2-.7,4-2.1c.8-1.4,1.3-3.3,1.3-5.6v-.5c0-2.3-.4-4.1-1.3-5.6-.9-1.4-2.2-2.2-4.1-2.2s-3.2.7-4.1,2.2c-.8,1.4-1.3,3.3-1.3,5.6,0,0,0,.5,0,.5Z"></path>
  <path fill="#FFFFFF" d="M129.5,68.4l3.4-.7v-15.9h-3.9v-4.8h3.9v-2.8c0-2.9.9-5.1,2.6-6.6,1.7-1.5,4.1-2.3,7.2-2.3s1.2,0,1.8.1c.6,0,1.3.2,2.1.4l-.6,5.1c-.4,0-.8-.1-1.1-.2-.4,0-.8,0-1.3,0-1.2,0-2,.3-2.6.9-.6.6-.9,1.5-.9,2.7v2.8h5.2v4.8h-5.2v15.9l3.4.7v4.1h-14v-4.1Z"></path>
  <path fill="#FFFFFF" d="M146.4,68.4l3.4-.7v-15.9h-3.9v-4.8h3.9v-2.8c0-2.9.9-5.1,2.6-6.6,1.7-1.5,4.1-2.3,7.2-2.3s1.2,0,1.8.1c.6,0,1.3.2,2.1.4l-.6,5.1c-.4,0-.8-.1-1.1-.2-.4,0-.8,0-1.3,0-1.2,0-2,.3-2.6.9-.6.6-.9,1.5-.9,2.7v2.8h5.2v4.8h-5.2v15.9l3.4.7v4.1h-14v-4.1Z"></path>
  <path fill="#FFFFFF" d="M162.8,51.1v-4.2h10.4l.3,3.4c.9-1.2,1.9-2.2,3.2-2.8,1.3-.7,2.8-1,4.4-1s3.1.4,4.3,1.1,2.1,1.8,2.7,3.3c.8-1.4,1.9-2.5,3.2-3.2s2.8-1.2,4.6-1.2c2.6,0,4.7.9,6.2,2.6,1.5,1.7,2.3,4.4,2.3,8v10.7l3.4.7v4.1h-13.6v-4.1l3.1-.7v-10.7c0-1.9-.3-3.3-1-4s-1.6-1.1-2.9-1.1-1.9.2-2.6.7c-.7.4-1.3,1-1.8,1.8,0,.3,0,.6,0,.8s0,.4,0,.7v12l2.9.7v4.1h-12.9v-4.1l2.9-.7v-10.7c0-1.9-.3-3.2-1-4-.6-.8-1.6-1.2-2.9-1.2s-1.8.2-2.5.5c-.7.4-1.3.9-1.8,1.5v13.8l3.1.7v4.1h-13.6v-4.1l3.4-.7v-15.9l-3.8-.7h0Z"></path>
  <path fill="#FFFFFF" d="M224,72.5c-.2-.4-.4-.9-.5-1.3-.1-.4-.3-.9-.3-1.4-.9.9-1.9,1.7-3.1,2.3-1.2.6-2.6.9-4.2.9-2.6,0-4.6-.7-6.2-2.1-1.5-1.4-2.3-3.2-2.3-5.6s1-4.2,3-5.6c2-1.3,4.9-2,8.7-2h3.6v-2.5c0-1.2-.4-2.2-1.1-2.9-.7-.7-1.8-1-3.2-1s-1.5,0-2.2.3-1.1.4-1.5.7l-.5,2.8h-5.4v-5.7c1.3-.8,2.8-1.6,4.5-2.2,1.7-.6,3.5-.9,5.5-.9,3.3,0,5.9.8,8,2.3,2,1.5,3.1,3.8,3.1,6.6v10.6c0,.4,0,.8,0,1.1,0,.3,0,.7,0,1l2.2.3v4.1h-8.2ZM217.8,67.9c1.1,0,2.1-.2,2.9-.7.9-.4,1.6-1,2.1-1.7v-3.9h-3.6c-1.5,0-2.7.3-3.4,1s-1.2,1.5-1.2,2.5.3,1.6.9,2,1.4.7,2.4.7"></path>
  <path fill="#FFFFFF" d="M232.2,68.4l3.4-.7v-15.9l-3.8-.7v-4.2h10.4l.3,3.7c.9-1.3,2-2.3,3.2-3,1.3-.7,2.7-1.1,4.3-1.1,2.7,0,4.8.8,6.2,2.4,1.5,1.6,2.2,4.2,2.2,7.7v11.1l3.4.7v4.1h-13.6v-4.1l3.1-.7v-11.1c0-1.7-.4-2.9-1.1-3.7-.7-.7-1.8-1.1-3.2-1.1s-1.8.2-2.5.6c-.8.4-1.4.9-1.9,1.6v13.7l2.9.7v4.1h-13.4v-4.1h0Z"></path>
  <path fill="#FFFFFF" d="M270.2,70.4l2.5-.2,12.3-32.3h2.7l12.1,32.3,2.6.2v2.1h-8.5v-2.1l3-.2-2.9-7.7h-15.5l-2.9,7.7,3,.2v2.1h-8.5v-2.1ZM279.5,59.8h13.6l-6.7-18.3h-.1l-6.8,18.3h0Z"></path>
  <path fill="#FFFFFF" d="M300.4,59.8c0-4.1.9-7.4,2.6-9.8s4.2-3.7,7.3-3.7,3.4.4,4.7,1.2,2.4,1.9,3.3,3.4l.3-4.1h2.4v25.3c0,3.3-.9,5.9-2.7,7.8-1.8,1.9-4.3,2.9-7.5,2.9s-2.5-.2-4-.4c-1.4-.3-2.6-.7-3.7-1.2l.8-2.4c1,.5,2.1.9,3.2,1.1s2.3.4,3.6.4c2.4,0,4.3-.7,5.5-2.2,1.2-1.4,1.9-3.4,1.9-6v-3.2c-.9,1.3-2,2.3-3.3,3-1.3.7-2.9,1.1-4.7,1.1-3.1,0-5.5-1.2-7.2-3.4s-2.6-5.4-2.6-9.2v-.5h0ZM303.2,60.3c0,3.1.6,5.6,1.9,7.4s3.1,2.8,5.6,2.8,3.4-.4,4.6-1.3c1.2-.8,2.2-2,2.8-3.5v-11.9c-.6-1.5-1.5-2.7-2.7-3.7-1.2-.9-2.8-1.4-4.7-1.4s-4.4,1-5.7,3.1-1.9,4.7-1.9,8v.5h0Z"></path>
  <path fill="#FFFFFF" d="M334.3,72.9c-3.2,0-5.9-1.2-8-3.6s-3.2-5.4-3.2-9v-1.3c0-3.7,1.1-6.7,3.2-9.1,2.1-2.4,4.7-3.6,7.6-3.6s5.6,1,7.4,3,2.7,4.7,2.7,8v2.4h-18.1v.7c0,2.9.8,5.3,2.3,7.3,1.5,2,3.6,2.9,6.1,2.9s3.3-.2,4.5-.7,2.3-1.2,3.2-2.1l1.2,1.9c-1,1-2.2,1.8-3.6,2.4-1.5.6-3.2.9-5.3.9M333.9,48.7c-2.1,0-3.9.8-5.3,2.4s-2.3,3.6-2.5,6h0c0,.1,15,.1,15,.1v-.7c0-2.2-.7-4.1-2-5.6s-3.1-2.3-5.3-2.3"></path>
  <path fill="#FFFFFF" d="M344.4,70.4l3.9-.3v-20.9l-3.9-.3v-2.1h6.4l.3,4.5c.8-1.6,1.9-2.8,3.3-3.7,1.4-.9,3.1-1.3,5-1.3,2.8,0,4.9.8,6.4,2.5s2.2,4.4,2.2,8v13.3l3.9.3v2.1h-10.6v-2.1l3.9-.3v-13.2c0-2.9-.5-5-1.6-6.2-1.1-1.2-2.7-1.8-4.7-1.8s-3.6.5-4.9,1.6c-1.3,1-2.2,2.5-2.7,4.2v15.5l3.9.3v2.1h-10.6v-2.1h0Z"></path>
  <path fill="#FFFFFF" d="M380.9,70.6c1.9,0,3.5-.5,5-1.6,1.4-1.1,2.2-2.6,2.2-4.5h2.6c0,2.5-.9,4.5-2.8,6.1s-4.3,2.4-6.9,2.4-6.2-1.2-8.1-3.6-2.9-5.5-2.9-9.2v-1c0-3.7,1-6.8,2.9-9.2,1.9-2.4,4.6-3.6,8.1-3.6s3.8.4,5.4,1.1c1.6.7,3,1.8,4,3v5.6c.1,0-2.3,0-2.3,0l-.5-4.6c-.8-.8-1.7-1.5-2.8-2s-2.4-.8-3.9-.8c-2.8,0-4.8,1-6.1,3-1.3,2-2,4.5-2,7.4v1c0,3,.7,5.5,2,7.5s3.4,2.9,6.1,2.9"></path>
  <path fill="#FFFFFF" d="M417.2,48.9l-2.6.2-10.4,27.5c-.7,1.7-1.5,3.2-2.6,4.4s-2.6,1.8-4.6,1.8-.7,0-1.2-.1-.8-.2-1-.2l.3-2.4c.2,0,.5,0,.9.1s.7,0,.9,0c1.2,0,2.2-.4,3-1.3.7-.9,1.4-2,1.9-3.4l1.3-3.4-9.1-23-2.6-.2v-2.1h8.8v2.1l-3.1.2,6.3,16.4.9,3.1h.1l7-19.5-3.1-.2v-2.1h8.9v2.1h0Z"></path>
  <g>
    <polygon fill="#FFFFFF" points="80.3 17.8 80.3 20.9 79.2 20.9 79.1 18.8 74.9 18.8 74.9 31.6 76.6 31.7 76.6 32.6 72 32.6 72 31.7 73.7 31.6 73.7 18.8 69.5 18.8 69.4 20.9 68.3 20.9 68.3 17.8 80.3 17.8"></polygon>
    <path fill="#FFFFFF" d="M76.8,32.8h-5v-1.3h1.7v-12.5h-3.8v2.1h-1.6v-3.5h12.4v3.5h-1.5v-2.1h-3.8v12.4h1.7v1.4h0ZM72.2,32.4h4.2v-.5h-1.7v-13.3h4.6v2.1h.8v-2.7h-11.5v2.7h.7v-2.1h4.7v13.1h-1.7v.6h0Z"></path>
    <path fill="#FFFFFF" d="M81.5,17.6v-.9h2.9v6.8c.4-.7.9-1.2,1.5-1.5.6-.4,1.3-.5,2.2-.5,1.2,0,2.1.4,2.7,1.1s.9,1.8.9,3.4v5.8h1.7v1h-4.6v-.9h1.7v-5.9c0-1.2-.2-2-.7-2.6s-1.1-.8-2-.8-1.6.2-2.1.7-1,1-1.2,1.7v6.7h1.7v1h-4.6v-.9h1.7v-13.9h-1.7c0-.1,0-.1,0-.1Z"></path>
    <path fill="#FFFFFF" d="M93.6,32.8h-5v-1.3h1.7v-5.7c0-1.1-.2-2-.7-2.4s-1-.7-1.8-.7-1.5.2-2,.6c-.5.4-.9,1-1.2,1.6v6.5h1.7v1.4h-5v-1.3h1.7v-13.6h-1.7v-1.4h3.3v6.3c.3-.4.7-.8,1.2-1,.7-.4,1.4-.6,2.3-.6,1.2,0,2.2.4,2.9,1.1.7.8,1,1.9,1,3.5v5.6h1.7v1.4h0ZM89,32.4h4.2v-.5h-1.7v-6.1c0-1.5-.3-2.5-.9-3.2-.6-.7-1.4-1-2.6-1s-1.5.2-2.1.5c-.6.3-1.1.8-1.4,1.5l-.4.7v-7.3h-2.5v.5h1.7v14.3h-1.7v.6h4.2v-.5h-1.7v-7.1c.3-.8.7-1.4,1.3-1.8.6-.5,1.4-.7,2.2-.7s1.6.3,2.1.9c.5.6.8,1.5.8,2.7v6h-1.7v.6h0Z"></path>
    <path fill="#FFFFFF" d="M98.3,32.8c-1.4,0-2.6-.5-3.5-1.5-.9-1-1.4-2.3-1.4-3.9v-.6c0-1.6.5-2.9,1.4-3.9s2-1.6,3.3-1.6,2.4.4,3.2,1.3c.8.9,1.2,2,1.2,3.4v1h-7.9v.3c0,1.2.3,2.3,1,3.1.7.8,1.6,1.3,2.6,1.3s1.4-.1,2-.3,1-.5,1.4-.9l.5.8c-.4.4-.9.8-1.6,1s-1.4.4-2.3.4M98.2,22.4c-.9,0-1.7.3-2.3,1s-1,1.5-1.1,2.6h0s6.6,0,6.6,0v-.3c0-1-.3-1.8-.9-2.4-.6-.6-1.3-1-2.3-1"></path>
    <path fill="#FFFFFF" d="M98.3,33c-1.5,0-2.7-.5-3.7-1.6-.9-1-1.4-2.4-1.4-4v-.6c0-1.6.5-3,1.4-4,1-1.1,2.1-1.6,3.5-1.6s2.6.5,3.4,1.4c.8.9,1.2,2.1,1.2,3.6v1.2h-7.9c0,1.3.3,2.3,1,3.1.6.8,1.4,1.2,2.5,1.2s1.4-.1,1.9-.3c.5-.2,1-.5,1.3-.9l.2-.2.8,1.2h-.1c-.4.6-1,.9-1.7,1.2s-1.5.4-2.4.4M98.2,21.6c-1.2,0-2.3.5-3.2,1.5s-1.3,2.3-1.3,3.8v.6c0,1.5.4,2.8,1.3,3.7.9,1,2,1.4,3.3,1.4s1.6-.1,2.2-.4c.6-.2,1-.5,1.4-.9l-.3-.5c-.4.3-.8.6-1.3.8-.6.2-1.2.3-2,.3-1.2,0-2.1-.5-2.8-1.3-.7-.9-1.1-2-1.1-3.2v-.5h7.9v-.8c0-1.4-.4-2.5-1.1-3.3-.7-.8-1.8-1.2-3.1-1.2M101.6,26.3h-6.9v-.2c0,0,0,0,0,0,.1-1.1.5-2,1.1-2.7.7-.7,1.5-1.1,2.4-1.1s1.9.4,2.5,1c.6.7.9,1.5.9,2.5v.5h0ZM95,25.9h6.1c0-1-.3-1.8-.8-2.4-.5-.6-1.2-.9-2.2-.9s-1.6.3-2.1,1c-.6.6-.9,1.4-1,2.3"></path>
  </g>
  <path fill="#D2EB00" d="M45.3,17.4c1.3.7,2.4,2.5,2.7,6v.5c1.7,21.1,2.1,35.1,7.1,46,0,.2,0-52.5,0-52.5,0,0-9.8,0-9.8,0Z"></path>
  <path fill="#D2EB00" d="M0,66.5c.7-1.2,1.6-2.2,2.7-2.5.8-.3,2.1-.3,3.6,1.1,1.1,1,2,1.5,2.6,1.4.4,0,.7-.5,1.5-2.1v-.2c2.4-6.6,4.1-10.2,6.4-10.2h0c1.8,0,2.5,2.3,2.8,3,.8,2,1.3,3,1.7,3.4.5.5.9,0,1.2-.9.2-.8.5-2.1.9-3.7,1.4-6.5,2.6-11.1,5.1-11.6,1.8-.3,2.8,1.2,3.1,1.8.4.8,1.4,3.2,2.1,3.4.8,0,.9-1.8,1.4-4.5.3-1.7.7-3.5,1.2-6.2.9-4.6,2.2-10.1,3.5-15.4.8-3.4,1.8-5.3,3-6H0v49.2Z"></path>
  <path fill="#D2EB00" d="M53.9,72.4c-.3-.4-.5-.8-.6-1-5.5-11.4-5.8-25.7-7.5-47.4v-.5c-.5-2.7-.8-3.9-1.6-4-.9,0-1.5,1.5-2.1,4-1.4,5.5-2.5,11-3.5,15.6-.5,2.7-1,5-1.3,6.6-.6,4.1-1.5,5.8-2.9,6.1-1.7.3-2.3-.4-3.6-2.4-.5-.9-1.1-2.1-1.2-2.3-.4-.8-1.1-1-1.5,0-.6,1.6-.5,1.1-.9,2.4-.7,2-1.2,4.4-1.6,6.6-.4,1.7-.7,3.1-1,4-.7,2-1.6,3-2.9,3h0c-.6,0-2.8-.4-4.4-5.5-.3-.9-.5-1.2-1-1-.5.2-1.9,3-3.7,8.3v.2c-.8,2-1.9,3.2-3.2,3.5-1.4.3-3-.3-4.8-2-.8-.8-1.2-.6-1.3-.6-1.2.4-2.7,3.5-3.4,6.2h53.9Z"></path>
</svg>