<svg xmlns="http://www.w3.org/2000/svg"
     width="1200" height="340" viewBox="0 0 1200 340"
     role="img" aria-labelledby="hero-title hero-desc">
  <title id="hero-title">The Hoffman Agency Design System</title>
  <desc id="hero-desc">A navy hero banner for the Hoffman Agency design-system repo, showing the Storyline mark, the real brand palette, and the Poppins + Libre Baskerville italic type pairing.</desc>

  <rect width="1200" height="340" fill="#182D43"/>

  <!-- Storyline mark, line variant (edge-locked, behind content, per brand rule) -->
  <g transform="translate(595.6,0) scale(0.314814815)" opacity="0.14">
    <path fill="#D2EB00" d="M742.5,1080h-31.4l130.9-136.4s42.8-37.3,78.5-33.2c42.6,4.9,84.3,96.4,117.7,28.2,24.1-49.1,62.6-207.8,121.8-219.7,64.6-12.9,65.6,103.8,106.1,132.2,19.2-1.6,38.4-130.1,43.4-150.8,10.4-43.3,34.3-139.3,70.2-165.9,68.4-50.7,90,67.1,115.7,93,16,16.2,23.8-36.9,26.1-48.2,33-155.7,54.9-314.4,97.7-468.2,11.2-40.2,21.7-87.4,59.2-110.8h48.2L1726.8,0c31.6,20.3,44.7,48.4,51,84.7,18.5,107.5,16.4,239.9,26.1,351.1,3,34.7,7.5,69.3,11,104,17,164.9,36.3,335.1,105.5,487.2,0,17,1.4,35.9,0,53h-13.5c-5.5,0-10-.1-12.1,0-86.9-165-108.1-356.8-126.7-540.2-4.5-45.1-9.9-90.4-13.8-135.6-8.3-98.8-6.2-215.7-22-311.3-2.9-17.8-18-71.8-42.7-42.7-11.9,14-28.9,84.7-34.5,106.1-32.6,126.6-54.9,255.4-79.9,383.5-7.1,36.3-15.9,122.1-55.7,136.3-63.8,22.6-77.9-74.8-110.2-106.1-16.6,12.7-22.5,33.8-29.6,52.4-25.8,67.1-29.1,132.8-48.2,198.9-22,75.7-75.9,112.1-124,28.9-9.3-16-29.2-75.2-35.9-82.6-5.8-6.5-17.2,12.6-20.6,17.9-45.8,70.1-68.1,282.6-187.9,208.7-17.1-10.5-40.8-44.5-60.6-37.2-28.4,5.3-134.4,119.5-137.1,122.9"/>
  </g>

  <!-- Title block -->
  <g font-family="-apple-system,BlinkMacSystemFont,'Segoe UI',Helvetica,Arial,sans-serif">
    <circle cx="68" cy="60" r="4" fill="#D2EB00"/>
    <text x="82" y="65" font-size="13" font-weight="700" letter-spacing="2.6" fill="#D2EB00">DESIGN SYSTEM</text>

    <!-- Real wordmark (1-color white, the variant this system's own README specifies for navy/dark backgrounds) -->
    <g transform="translate(64,82) scale(0.6013)" aria-label="The Hoffman Agency">
      <rect fill="#FAFAF7" x="61.71" width=".7" height="89.8"/>
      <polygon fill="#FAFAF7" points="70.32 42.22 70.32 38.05 85.03 38.05 85.03 42.22 81.22 42.93 81.22 52.87 95.72 52.87 95.72 42.93 91.91 42.22 91.91 38.05 95.72 38.05 102.82 38.05 106.63 38.05 106.63 42.22 102.82 42.93 102.82 67.67 106.63 68.38 106.63 72.52 91.91 72.52 91.91 68.38 95.72 67.67 95.72 58.2 81.22 58.2 81.22 67.67 85.03 68.38 85.03 72.52 70.32 72.52 70.32 68.38 74.1 67.67 74.1 42.93 70.32 42.22"/>
      <path fill="#FAFAF7" d="M105.32,59.48c0-3.82,1.1-6.95,3.31-9.39,2.2-2.44,5.25-3.66,9.14-3.66s6.96,1.22,9.16,3.65c2.2,2.43,3.31,5.56,3.31,9.4v.5c0,3.85-1.1,6.99-3.31,9.41-2.21,2.42-5.24,3.63-9.11,3.63s-6.98-1.21-9.19-3.63c-2.21-2.42-3.31-5.56-3.31-9.41v-.5ZM112.44,59.97c0,2.34.42,4.21,1.27,5.62.85,1.41,2.21,2.12,4.1,2.12s3.18-.71,4.04-2.13c.85-1.42,1.28-3.29,1.28-5.61v-.5c0-2.27-.43-4.13-1.29-5.56-.86-1.44-2.22-2.15-4.08-2.15s-3.2.72-4.05,2.15c-.85,1.44-1.27,3.29-1.27,5.56v.5Z"/>
      <path fill="#FAFAF7" d="M129.46,68.38l3.44-.71v-15.91h-3.93v-4.85h3.93v-2.84c0-2.87.85-5.09,2.56-6.64,1.71-1.55,4.11-2.33,7.2-2.33.6,0,1.22.04,1.84.13.63.09,1.31.21,2.06.37l-.61,5.14c-.39-.06-.77-.12-1.13-.17-.37-.05-.79-.07-1.28-.07-1.16,0-2.03.31-2.62.92-.59.62-.89,1.5-.89,2.65v2.84h5.25v4.85h-5.25v15.91l3.44.71v4.14h-14.01v-4.14Z"/>
      <path fill="#FAFAF7" d="M146.4,68.38l3.44-.71v-15.91h-3.93v-4.85h3.93v-2.84c0-2.87.85-5.09,2.56-6.64,1.71-1.55,4.11-2.33,7.2-2.33.6,0,1.22.04,1.84.13.63.09,1.31.21,2.06.37l-.61,5.14c-.39-.06-.77-.12-1.13-.17-.37-.05-.79-.07-1.28-.07-1.16,0-2.03.31-2.62.92-.59.62-.89,1.5-.89,2.65v2.84h5.25v4.85h-5.25v15.91l3.44.71v4.14h-14.01v-4.14Z"/>
      <path fill="#FAFAF7" d="M162.78,51.07v-4.17h10.42l.29,3.39c.85-1.23,1.91-2.18,3.18-2.85,1.28-.67,2.75-1.01,4.43-1.01s3.14.36,4.34,1.09c1.2.73,2.11,1.82,2.73,3.29.81-1.37,1.87-2.45,3.17-3.22,1.3-.77,2.83-1.16,4.59-1.16,2.6,0,4.66.87,6.16,2.62,1.5,1.74,2.26,4.4,2.26,7.96v10.65l3.44.71v4.14h-13.64v-4.14l3.07-.71v-10.68c0-1.94-.33-3.29-.98-4.05-.65-.76-1.62-1.14-2.9-1.14-1.01,0-1.88.22-2.62.65-.74.43-1.33,1.04-1.77,1.81,0,.3,0,.56.02.77.02.21.02.43.02.65v11.98l2.88.71v4.14h-12.86v-4.14l2.88-.71v-10.68c0-1.89-.33-3.23-.98-4.01-.65-.78-1.63-1.17-2.93-1.17-.96,0-1.8.18-2.53.53-.72.36-1.32.86-1.79,1.5v13.82l3.08.71v4.14h-13.62v-4.14l3.44-.71v-15.88l-3.81-.71Z"/>
      <path fill="#FAFAF7" d="M223.96,72.52c-.2-.43-.37-.86-.51-1.31-.15-.45-.26-.9-.34-1.36-.85.95-1.87,1.71-3.09,2.3-1.21.58-2.6.88-4.16.88-2.59,0-4.64-.68-6.16-2.05-1.52-1.36-2.28-3.22-2.28-5.57s.99-4.25,2.98-5.56c1.99-1.31,4.9-1.96,8.74-1.96h3.64v-2.51c0-1.23-.37-2.19-1.1-2.86-.73-.68-1.81-1.02-3.25-1.02-.81,0-1.54.09-2.17.27-.63.18-1.15.4-1.54.65l-.46,2.75h-5.37l.02-5.68c1.3-.85,2.79-1.57,4.48-2.15,1.68-.58,3.52-.88,5.5-.88,3.27,0,5.93.78,7.97,2.33,2.04,1.55,3.06,3.77,3.06,6.64v10.58c0,.39,0,.76.01,1.11,0,.35.04.68.09,1l2.17.28v4.14h-8.22ZM217.79,67.9c1.07,0,2.05-.23,2.93-.67.88-.45,1.56-1.01,2.05-1.69v-3.91h-3.64c-1.51,0-2.66.34-3.44,1.03-.78.69-1.17,1.51-1.17,2.47,0,.87.29,1.55.87,2.04.58.49,1.38.73,2.4.73"/>
      <path fill="#FAFAF7" d="M232.23,68.38l3.42-.71v-15.88l-3.78-.71v-4.17h10.42l.32,3.67c.88-1.31,1.96-2.33,3.25-3.05,1.28-.73,2.72-1.09,4.32-1.09,2.67,0,4.75.81,6.25,2.44,1.5,1.63,2.25,4.17,2.25,7.65v11.15l3.42.71v4.14h-13.62v-4.14l3.05-.71v-11.13c0-1.72-.36-2.94-1.07-3.66-.72-.72-1.8-1.08-3.24-1.08-.94,0-1.79.19-2.54.56-.75.37-1.38.9-1.88,1.58v13.73l2.88.71v4.14h-13.42v-4.14Z"/>
      <path fill="#FAFAF7" d="M270.24,70.36l2.54-.19,12.27-32.28h2.68l12.15,32.28,2.59.19v2.09h-8.52v-2.09l3.02-.24-2.85-7.74h-15.52l-2.87,7.74,3.01.24v2.09h-8.5v-2.09ZM279.54,59.84h13.65l-6.72-18.28h-.14l-6.79,18.28Z"/>
      <path fill="#FAFAF7" d="M300.4,59.82c0-4.1.87-7.38,2.62-9.84,1.75-2.46,4.17-3.69,7.28-3.69,1.82,0,3.4.4,4.74,1.2,1.34.8,2.44,1.93,3.31,3.38l.33-4.11h2.4v25.35c0,3.31-.89,5.92-2.68,7.83-1.79,1.91-4.28,2.87-7.48,2.87-1.23,0-2.55-.15-3.95-.45-1.4-.3-2.62-.71-3.67-1.23l.76-2.4c1.03.49,2.11.87,3.24,1.14,1.13.27,2.32.4,3.57.4,2.44,0,4.27-.72,5.51-2.16,1.23-1.44,1.85-3.44,1.85-6.01v-3.25c-.87,1.31-1.97,2.32-3.3,3.03-1.33.7-2.89,1.06-4.68,1.06-3.09,0-5.5-1.15-7.24-3.44-1.74-2.29-2.61-5.36-2.61-9.19v-.5ZM303.25,60.32c0,3.09.63,5.55,1.89,7.39,1.26,1.84,3.14,2.77,5.64,2.77,1.85,0,3.39-.42,4.62-1.26,1.23-.84,2.17-1.99,2.84-3.47v-11.92c-.63-1.5-1.54-2.72-2.73-3.67-1.19-.94-2.75-1.41-4.68-1.41-2.5,0-4.39,1.03-5.66,3.09-1.27,2.06-1.91,4.71-1.91,7.97v.5Z"/>
      <path fill="#FAFAF7" d="M334.27,72.94c-3.23,0-5.9-1.18-8.02-3.55-2.12-2.37-3.18-5.38-3.18-9.03v-1.31c0-3.67,1.06-6.72,3.17-9.14,2.11-2.42,4.66-3.63,7.65-3.63,3.15,0,5.63,1,7.43,2.99,1.8,1.99,2.71,4.65,2.71,7.97v2.42h-18.14v.69c0,2.88.77,5.3,2.31,7.25,1.54,1.96,3.56,2.93,6.06,2.93,1.76,0,3.26-.25,4.51-.74,1.25-.49,2.32-1.19,3.2-2.11l1.21,1.95c-.97,1.01-2.18,1.81-3.65,2.41-1.47.59-3.23.89-5.27.89M333.89,48.71c-2.09,0-3.85.8-5.28,2.41-1.43,1.61-2.27,3.62-2.5,6.04l.05.12h15.05v-.71c0-2.23-.66-4.1-1.97-5.6-1.31-1.5-3.09-2.26-5.34-2.26"/>
      <path fill="#FAFAF7" d="M344.38,70.36l3.87-.31v-20.87l-3.87-.31v-2.11h6.39l.26,4.49c.82-1.58,1.94-2.81,3.34-3.67,1.4-.86,3.06-1.29,4.97-1.29,2.78,0,4.9.85,6.36,2.55,1.46,1.7,2.18,4.36,2.18,7.96v13.25l3.87.31v2.09h-10.59v-2.09l3.87-.31v-13.22c0-2.94-.55-5.02-1.65-6.24-1.1-1.22-2.66-1.83-4.69-1.83s-3.62.53-4.88,1.58c-1.26,1.05-2.16,2.45-2.72,4.19v15.53l3.87.31v2.09h-10.59v-2.09Z"/>
      <path fill="#FAFAF7" d="M380.94,70.55c1.88,0,3.55-.54,4.99-1.61,1.44-1.08,2.16-2.57,2.16-4.49h2.52l.05.14c.08,2.37-.87,4.36-2.84,5.96-1.97,1.6-4.26,2.4-6.87,2.4-3.48,0-6.18-1.2-8.09-3.6-1.91-2.4-2.87-5.48-2.87-9.24v-1c0-3.73.96-6.81,2.87-9.21,1.91-2.41,4.61-3.61,8.07-3.61,1.98,0,3.79.37,5.44,1.12,1.65.74,2.98,1.76,4.01,3.04l.12,5.6h-2.42l-.45-4.56c-.76-.85-1.71-1.53-2.84-2.03-1.13-.5-2.42-.75-3.86-.75-2.75,0-4.79.99-6.11,2.96-1.32,1.97-1.98,4.45-1.98,7.44v1c0,3.04.66,5.54,1.97,7.5,1.31,1.96,3.36,2.94,6.15,2.94"/>
      <path fill="#FAFAF7" d="M417.21,48.87l-2.61.21-10.37,27.46c-.66,1.74-1.53,3.22-2.59,4.44-1.06,1.22-2.61,1.83-4.65,1.83-.33,0-.74-.04-1.21-.11-.47-.07-.82-.15-1.04-.23l.33-2.37c.19.03.49.07.91.11.42.04.72.06.89.06,1.25,0,2.24-.44,2.97-1.3.73-.87,1.37-2,1.92-3.39l1.33-3.44-9.12-23.05-2.61-.21v-2.11h8.83v2.11l-3.06.24,6.27,16.38.9,3.09h.14l7.03-19.46-3.13-.24v-2.11h8.88v2.11Z"/>
      <polygon fill="#FAFAF7" points="80.28 17.8 80.28 20.92 79.18 20.92 79.09 18.84 74.92 18.84 74.92 31.59 76.6 31.72 76.6 32.62 72 32.62 72 31.72 73.68 31.59 73.68 18.84 69.51 18.84 69.43 20.92 68.32 20.92 68.32 17.8 80.28 17.8"/>
      <path fill="#FAFAF7" d="M76.81,32.82h-5.02v-1.29l1.68-.13v-12.36h-3.76l-.08,2.09h-1.52v-3.54h12.38v3.54h-1.5l-.09-2.09h-3.76v12.36l1.68.13v1.29ZM72.21,32.41h4.19v-.5l-1.68-.13v-13.15h4.58l.09,2.09h.69v-2.71h-11.54v2.71h.7l.08-2.09h4.58v13.15l-1.68.13v.5Z"/>
      <path fill="#FAFAF7" d="M81.46,17.64v-.91h2.91v6.75c.37-.66.87-1.17,1.49-1.54.62-.37,1.34-.55,2.17-.55,1.18,0,2.08.36,2.71,1.08.63.72.94,1.84.94,3.35v5.76l1.68.13v.9h-4.61v-.9l1.68-.13v-5.78c0-1.19-.24-2.05-.72-2.57-.48-.52-1.14-.78-1.98-.78s-1.55.22-2.12.66c-.57.44-.99,1.02-1.25,1.74v6.73l1.68.13v.9h-4.6v-.9l1.68-.13v-13.81l-1.68-.13Z"/>
      <path fill="#FAFAF7" d="M93.58,32.82h-5.02v-1.29l1.68-.13v-5.59c0-1.14-.22-1.95-.66-2.43-.44-.48-1.04-.71-1.82-.71s-1.47.21-1.99.61c-.53.4-.92.95-1.17,1.62v6.5l1.68.13v1.29h-5.01v-1.29l1.68-.13v-13.43l-1.68-.13v-1.3h3.33v6.27c.33-.42.72-.76,1.17-1.03.65-.38,1.42-.58,2.28-.58,1.23,0,2.2.39,2.87,1.15.66.76,1,1.93,1,3.48v5.57l1.68.13v1.29ZM88.98,32.41h4.19v-.5l-1.68-.13v-5.95c0-1.45-.3-2.54-.89-3.21-.59-.68-1.43-1.01-2.55-1.01-.78,0-1.48.17-2.06.52-.58.34-1.06.84-1.41,1.46l-.39.69v-7.33h-2.49v.51l1.68.13v14.19l-1.68.13v.5h4.18v-.5l-1.68-.13v-6.99c.29-.76.74-1.38,1.34-1.84.6-.46,1.36-.7,2.25-.7s1.62.28,2.13.85c.51.56.77,1.47.77,2.71v5.97l-1.68.13v.5Z"/>
      <path fill="#FAFAF7" d="M98.34,32.83c-1.4,0-2.57-.51-3.49-1.52-.92-1.01-1.38-2.3-1.38-3.87v-.56c0-1.57.46-2.88,1.38-3.92.92-1.04,2.03-1.56,3.33-1.56,1.37,0,2.45.43,3.23,1.28.78.85,1.18,1.99,1.18,3.42v1.04h-7.89v.29c0,1.24.34,2.27,1.01,3.11.67.84,1.55,1.26,2.64,1.26.76,0,1.42-.11,1.96-.32.54-.21,1.01-.51,1.39-.91l.53.83c-.42.43-.95.78-1.59,1.03-.64.25-1.41.38-2.29.38M98.17,22.44c-.91,0-1.68.34-2.3,1.03-.62.69-.99,1.55-1.09,2.59l.02.05h6.55v-.31c0-.96-.29-1.76-.86-2.4-.57-.65-1.35-.97-2.32-.97"/>
      <path fill="#D2EB00" d="M45.29,17.37c1.27.7,2.42,2.53,2.7,6.03l.04.47c1.67,21.07,2.05,35.11,7.04,46.01.09.2,0-52.51,0-52.51h-9.78Z"/>
      <path fill="#D2EB00" d="M0,66.53c.71-1.19,1.59-2.15,2.66-2.5.84-.27,2.14-.3,3.6,1.11,1.08,1.04,2.02,1.54,2.63,1.39.38-.09.7-.5,1.5-2.05l.09-.25c2.34-6.62,4.04-10.22,6.32-10.22h.02c1.81.02,2.5,2.28,2.79,3,.8,2.03,1.3,3.01,1.73,3.41.47.45.87.04,1.2-.94.25-.75.54-2.13.88-3.72,1.38-6.5,2.56-11.13,5.12-11.57,1.81-.31,2.79,1.18,3.11,1.85.36.76,1.36,3.25,2.06,3.41.8.06.92-1.82,1.39-4.55.3-1.72.65-3.48,1.2-6.17.94-4.58,2.18-10.06,3.46-15.38.83-3.42,1.83-5.27,2.99-5.99H0v49.17Z"/>
      <path fill="#D2EB00" d="M53.91,72.44c-.3-.4-.54-.77-.64-.97-5.45-11.37-5.82-25.71-7.54-47.42l-.04-.47c-.41-2.71-.71-3.9-1.57-3.96-.92-.07-1.47,1.54-2.07,4-1.36,5.55-2.54,10.95-3.5,15.58-.55,2.66-1.02,4.96-1.28,6.63-.64,4.13-1.45,5.85-2.89,6.14-1.68.33-2.32-.41-3.56-2.44-.52-.86-1.06-2.09-1.17-2.32-.37-.81-1.08-.99-1.47.04-.6,1.59-.46,1.08-.9,2.41-.66,1.99-1.16,4.44-1.62,6.59-.35,1.66-.66,3.1-.95,3.97-.66,1.97-1.62,2.97-2.86,2.97h0c-.62,0-2.77-.4-4.43-5.45-.3-.9-.55-1.2-1.05-1.05-.54.24-1.85,3.04-3.72,8.32l-.09.25c-.71,2.02-1.77,3.2-3.14,3.53-1.44.34-3.04-.32-4.76-1.98-.78-.75-1.17-.62-1.3-.58-1.25.4-2.67,3.51-3.37,6.21h53.91Z"/>
    </g>

    <text x="64" y="176" font-size="32" font-weight="700" letter-spacing="-0.4" fill="#FAFAF7">Point an LLM here.</text>
    <text x="64" y="216" font-size="32" font-weight="700" letter-spacing="-0.4" fill="#FAFAF7">Ship things that stay <tspan font-family="Georgia,'Songti SC',serif" font-style="italic" font-weight="400">on brand</tspan>.</text>

    <text x="64" y="258" font-size="18" font-weight="400" fill="#FAFAF7" fill-opacity="0.7">Brand tokens, 48 slide layouts, two UI kits —</text>
    <text x="64" y="282" font-size="18" font-weight="400" fill="#FAFAF7" fill-opacity="0.7">the rules an agent needs to build on-brand.</text>

    <text x="64" y="312" font-size="13.5" font-weight="500" letter-spacing="0.4" fill="#D2EB00" fill-opacity="0.75" font-family="ui-monospace,SFMono-Regular,Menlo,monospace">DESIGN.md · colors_and_type.css · AGENTS.md</text>
  </g>

  <!-- Proof panel -->
  <g font-family="-apple-system,BlinkMacSystemFont,'Segoe UI',Helvetica,Arial,sans-serif">
    <text x="720" y="65" font-size="12" font-weight="700" letter-spacing="2.2" fill="#FAFAF7" fill-opacity="0.55">ACTUAL SYSTEM TOKENS</text>
    <line x1="720" y1="78" x2="1136" y2="78" stroke="#FAFAF7" stroke-opacity="0.18" stroke-width="1"/>

    <g font-family="ui-monospace,SFMono-Regular,Menlo,monospace" font-size="9.5" font-weight="500" letter-spacing="0.3" fill="#FAFAF7" fill-opacity="0.6" text-anchor="middle">
      <rect x="720" y="100" width="40" height="40" fill="#D2EB00"/>
      <text x="740" y="155">LIME</text>

      <rect x="780" y="100" width="40" height="40" fill="#CB65FF"/>
      <text x="800" y="155">LAVENDER</text>

      <rect x="840" y="100" width="40" height="40" fill="#6103B9"/>
      <text x="860" y="155">PURPLE</text>

      <rect x="900" y="100" width="40" height="40" fill="#86FFF1"/>
      <text x="920" y="155">CYAN</text>

      <rect x="960" y="100" width="40" height="40" fill="#145F7B"/>
      <text x="980" y="155">TEAL</text>
    </g>

    <text x="720" y="252" font-size="56" font-weight="800" fill="#FAFAF7">Aa</text>
    <text x="720" y="272" font-size="10" font-weight="500" letter-spacing="0.3" fill="#FAFAF7" fill-opacity="0.55" font-family="ui-monospace,SFMono-Regular,Menlo,monospace">POPPINS</text>

    <text x="860" y="252" font-size="56" font-weight="400" font-style="italic" fill="#FAFAF7" font-family="Georgia,'Songti SC',serif">Aa</text>
    <path d="M860,262 q10,10 20,0 t20,0 t20,0" fill="none" stroke="#D2EB00" stroke-width="3" stroke-linecap="round"/>
    <text x="860" y="284" font-size="10" font-weight="500" letter-spacing="0.3" fill="#FAFAF7" fill-opacity="0.55" font-family="ui-monospace,SFMono-Regular,Menlo,monospace">BASKERVILLE · ITALIC</text>
  </g>
</svg>
